<?xml version="1.0" encoding="utf-8"?>
<!-- Generator: Adobe Illustrator 26.0.0, SVG Export Plug-In . SVG Version: 6.00 Build 0)  -->
<svg version="1.1" id="Layer_1" xmlns="http://www.w3.org/2000/svg" xmlns:xlink="http://www.w3.org/1999/xlink" x="0px" y="0px"
	 viewBox="0 0 1597.2 2207.6" style="enable-background:new 0 0 1597.2 2207.6;" xml:space="preserve">
<style type="text/css">
	.st0{fill:#FFFFFF;}
	.st1{fill:#400705;}
</style>
<g id="Layer_1-2">
	<path class="st0" d="M940.7,1003.7c-22.6-38.3-47.6-75-73.3-111.2c-14.2-20-28.6-40-42.9-59.9c-1.6-2.2-4.4-3.3-7-1.8
		c-17.2,10.2-36,17.1-55.7,20.5c-19.3,3.4-39.1,4.2-58.6,5.8c-10.4,0.8-20.8,1.7-31,3.9c-9.5,2-18.8,4.7-27.8,8.2
		c-19.1,7.3-37.1,17.3-53.4,29.6c-18.2,13.4-34,29.7-46.9,48.3c-2.5,0.3-4.6,2.2-5,4.7c-45.1-16-93.1-22.4-140.9-18.8
		c-48,3.8-95.1,18-136.3,43.2c-23.6,14.4-44.9,32.2-63.3,52.7c-3.6,4,0.7,9.6,4.7,8.7c1.7,2.9,3.5,5.7,5.2,8.6
		c0.2,0.8,0.4,1.6,0.6,2.4c0.8,3.1,1.4,6.2,2,9.3c0.6,3.7,0.9,5.8,1.3,9.2c0.8,6.8,0.9,13.7,0.3,20.5c-0.1,0.7-0.1,1.5-0.2,2.2
		c0,0.1-0.1,0.4-0.1,0.6c0,0.2-0.1,0.5-0.1,0.7c-0.3,1.5-0.5,3-0.9,4.5c-0.3,1.3-0.7,2.5-1.1,3.7c-0.1,0.3-0.2,0.7-0.4,1
		c0,0,0,0,0,0.1c-0.3,0.6-0.6,1.2-0.9,1.8c-0.4,0.7-0.8,1.3-1.2,1.9c-0.1,0.2-0.2,0.3-0.2,0.4c-0.1,0.1-0.2,0.2-0.3,0.3
		c-0.4,0.5-0.9,0.9-1.4,1.4c0,0-0.1,0.1-0.1,0.1c-0.2,0.2-0.4,0.3-0.6,0.4c-0.4,0.2-0.7,0.4-1.1,0.6c0-0.1-1.2,0.5-1.5,0.5
		c-0.3,0.1-1.1,0.2-1.3,0.2c-0.6,0-1.3,0.1-1.9,0.1c-4.3-0.1-5.8,4.3-4.4,7.4c-1.1,1.5-1.1,3.6,0,5.1c25.5,39.3,50.3,79,74.4,119.1
		c24.7,41.1,48.8,82.5,72.2,124.3c13.1,23.3,25.9,46.8,38.5,70.4c2.4,4.4,8,2.5,9.2-1.3c0,0.4,0,0.8,0,1.2c0,3.7,3.2,5.3,6.1,4.8
		c1.3,0.5,2.9,0.4,4.1-0.4c35.9-26.6,69.8-55.9,106.8-81c18.1-12.4,37.2-23.2,57.3-32.2c22-9.8,44.9-17.2,68.4-22.2
		c26.4-5.6,53.5-7,80.3-4.1c2.7,0.3,5.1-2.6,5.1-5.1c0-0.1,0-0.2,0-0.3c0.6,0.3,1.3,0.4,2,0.4c2.5,0,5.4-2.3,5.1-5.1
		c0-0.4-0.1-0.8-0.2-1.2c23.8-27.5,54.9-47.9,86.4-65.5c16.3-9.1,32.9-18.2,50.2-25.1c16.9-6.7,34.5-10.8,52.4-13.6
		c20.9-3.3,42-5.2,62.9-8.6c1.2-0.2,2.3-1,2.9-2.1c0.8,0.8,1.7,1.5,2.6,2.2c2.2,1.6,5.7,0.4,7-1.8c1.5-2.6,0.4-5.3-1.8-7
		c-4.7-3.8-7.1-9.7-6.4-15.7c0.3-1.4,0.7-2.7,1.1-4c0.1-0.3,0.6-1.3,1-1.9c0.2-0.4,0.5-0.8,0.7-1.2c0.1-0.1,0.5-0.7,0.4-0.7
		c1.9-2.6,4.5-4.5,7.5-5.7c2.5-1.1,3.1-4.8,1.8-7c-0.8-1.4-2.3-2.3-3.9-2.4c0-0.1,0.1-0.1,0.1-0.2c0.1-0.3,0.1-0.6,0.1-0.9
		c1.2,1.1,3,1.5,4.6,1.1c2.5-0.7,4.5-3.7,3.6-6.3C982.6,1080.4,962.9,1041.2,940.7,1003.7z M699.9,1252.8c0.3,0.5,0.7,1,1.1,1.4
		c-1.2-0.2-2.4-0.4-3.5-0.5c0.9-0.2,1.6-0.6,2.3-1.2C699.8,1252.6,699.8,1252.7,699.9,1252.8z M205.7,1106.1
		C205.5,1106.3,205.2,1106.4,205.7,1106.1z"/>
	<path class="st1" d="M543.4,953.1c-46.4-17.1-95.9-24-145.2-20.3c-48,3.8-95.1,18-136.3,43.2c-23.6,14.4-44.9,32.2-63.3,52.7
		c-4.3,4.9,2.8,12.1,7.2,7.2c31.7-35.3,72-61.9,116.9-77.3c44.6-15.3,92.5-19.8,139.3-14.5c26.9,3.1,53.3,9.4,78.7,18.8
		c2.6,0.9,5.6-1.1,6.3-3.6C547.6,956.7,546.1,953.9,543.4,953.1L543.4,953.1z"/>
	<path class="st1" d="M202.8,1036.6c26.3,43.3,52.1,86.8,77.5,130.7s50.2,87.9,74.7,132.3c13.7,24.9,27.3,50,40.7,75.1
		c1.5,2.4,4.6,3.2,7,1.8c0.3-0.2,0.7-0.4,0.9-0.7c30.3-30.6,62.9-59.3,99.1-82.8c36-23.3,76.6-42.2,119.7-46.6
		c24.5-2.6,49.2-0.1,72.7,7.1c6.3,2,8.9-7.9,2.7-9.8c-43.3-13.5-89.2-9.8-131.5,5.6c-42.7,15.5-81.1,41-116,69.8
		c-18.8,15.6-36.7,32.1-53.8,49.5l8,1c-23.9-44.7-48.2-89-73.1-133.2s-50.1-88-75.9-131.6c-14.5-24.5-29.1-48.9-43.9-73.2
		C208.2,1025.9,199.4,1031,202.8,1036.6L202.8,1036.6z"/>
	<path class="st1" d="M539.7,954.5c20,38.5,41.2,76.3,62.5,114.1c21.5,38.1,42.9,76.2,63.2,115c11.9,22.8,23.4,45.8,34.5,69.1
		c1.2,2.5,4.7,3.1,7,1.8c2.5-1.5,3-4.5,1.8-7c-19.2-40.7-40.1-80.5-61.8-119.9c-20.9-37.9-42.4-75.5-63.4-113.4
		c-11.9-21.5-23.7-43.1-35-65C545.4,943.6,536.6,948.7,539.7,954.5L539.7,954.5z"/>
	<path class="st1" d="M552.5,952.5c21.9-32.2,55-57.6,90.9-72.2c9-3.7,18.3-6.7,27.8-8.9c9.4-2,19-3.4,28.6-4
		c20.1-1.7,40.3-2.6,60.3-5.7c22.1-3.3,43.4-10.8,62.6-22.2l-7-1.8c25.4,35.5,51.2,70.8,75.5,107.1c24.6,36.6,48,74.1,67.8,113.6
		c10.8,21.4,20.3,43.4,28.4,66c0.8,2.7,3.6,4.2,6.3,3.6c2.5-0.7,4.5-3.7,3.6-6.3c-14.6-41.2-34.4-80.3-56.6-117.9
		c-22.6-38.3-47.6-75-73.3-111.2c-14.2-20-28.6-40-42.9-59.9c-1.6-2.2-4.4-3.3-7-1.8c-17.2,10.2-36,17.1-55.7,20.5
		c-19.3,3.4-39.1,4.2-58.6,5.8c-10.4,0.8-20.8,1.7-31,3.9c-9.5,2-18.8,4.7-27.8,8.2c-19.1,7.3-37.1,17.3-53.4,29.6
		c-18.2,13.7-34.5,29.9-47.3,48.8C540,952.8,548.8,957.9,552.5,952.5L552.5,952.5z"/>
	<path class="st1" d="M714.6,1250.6c29.1-26.9,61-50.5,94.7-71.4c16.9-10.5,34-20.7,52.1-28.9c17.9-8.2,36.6-14.2,55.9-18
		c21.5-4.1,43.8-4.8,65.4-1c2.7,0.5,5.5-0.7,6.3-3.6c0.7-2.4-0.8-5.8-3.6-6.3c-40.5-7-82,0.2-119.7,15.9
		c-19.1,7.9-37,18.1-54.7,28.8c-17.2,10.4-34,21.5-50.2,33.4c-18.6,13.6-36.5,28.3-53.4,43.9C702.6,1247.8,709.8,1255,714.6,1250.6
		L714.6,1250.6z"/>
	<path class="st1" d="M204.5,1034.8c0.2,0.5,0.4,0.9,0.7,1.4c0.1,0.2,0.2,0.4,0.3,0.6c0.5,1-0.3-0.8,0-0.1c0.5,1.2,0.9,2.3,1.3,3.5
		c0.9,2.7,1.7,5.5,2.4,8.2c0.8,3.1,1.4,6.2,2,9.3c0.6,3.7,0.9,5.8,1.3,9.2c0.8,6.8,0.9,13.7,0.3,20.5c-0.1,0.7-0.1,1.5-0.2,2.2
		c0,0.2-0.2,1.3,0,0.3c0,0.3-0.1,0.6-0.1,0.9c-0.3,1.5-0.5,3-0.9,4.5c-0.3,1.3-0.7,2.5-1.1,3.7c-0.1,0.4-0.3,0.8-0.4,1.2
		c0.1-0.2,0.4-0.9,0-0.1c-0.3,0.6-0.6,1.2-0.9,1.8c-0.4,0.7-0.8,1.3-1.2,1.9c-0.7,1.1,0.4-0.3-0.5,0.7c-0.4,0.5-0.9,0.9-1.4,1.4
		c-0.2,0.2-0.9,0.7,0.1,0c-0.3,0.2-0.6,0.4-0.9,0.6c-0.5,0.3-1,0.6-1.5,0.8c1.3-0.6-0.7,0.2-1.1,0.3s-2.2,0.3-0.8,0.2
		c-0.8,0.1-1.6,0.1-2.4,0.1c-6.5-0.2-6.5,10,0,10.2c14.2,0.3,21-12.6,22.9-24.9c2.3-14.7,0.7-30.1-2.6-44.6
		c-1.3-6.5-3.4-12.9-6.3-18.9C210.4,1023.9,201.6,1029,204.5,1034.8L204.5,1034.8z"/>
	<path class="st1" d="M194.9,1120.4c25.5,39.3,50.3,79,74.4,119.1c24.7,41.1,48.8,82.5,72.2,124.3c13.1,23.3,25.9,46.8,38.5,70.4
		c3.1,5.8,11.9,0.6,8.8-5.1c-22.5-42-45.6-83.6-69.5-124.8c-23.9-41.3-48.4-82.2-73.6-122.8c-13.8-22.2-27.9-44.3-42.1-66.3
		C200.1,1109.8,191.3,1114.9,194.9,1120.4L194.9,1120.4z"/>
	<path class="st1" d="M393.6,1371.6c-1.2,20.8-4.3,41.6-4.5,62.5c-0.1,6.5,10.1,6.6,10.2,0c0.2-20.9,3.3-41.7,4.5-62.5
		C404.2,1365,394,1365,393.6,1371.6z"/>
	<path class="st1" d="M399.3,1438.5c35.9-26.6,69.8-55.9,106.8-81c18.1-12.4,37.2-23.2,57.3-32.2c22-9.8,44.9-17.2,68.4-22.2
		c26.4-5.6,53.5-7,80.3-4.1c2.7,0.3,5.1-2.6,5.1-5.1c0-3-2.3-4.8-5.1-5.1c-48.7-5.6-98.1,4.7-143.2,23.2
		c-20.8,8.5-40.8,19-59.7,31.2c-19.4,12.6-37.9,26.6-56.1,40.7c-19.6,15.2-38.9,30.9-58.9,45.8c-2.2,1.6-3.3,4.4-1.8,7
		C393.6,1438.8,397.1,1440.1,399.3,1438.5L399.3,1438.5z"/>
	<path class="st1" d="M703.3,1252.8c0.5,0.7,0.9,1.5,1.3,2.3c0.3,0.5,0.5,1,0.7,1.5c0.1,0.3,0.8,1.9,0.4,1c1.2,3,2.3,6,3.3,9.1
		c2.4,7.2,4,14.7,4.9,22.3c0.3,2.7,2.1,5.1,5.1,5.1c2.5,0,5.4-2.3,5.1-5.1c-0.9-8.5-2.7-16.8-5.2-25c-1.7-5.5-3.6-11.5-6.8-16.3
		c-1.5-2.4-4.5-3.2-7-1.8C702.7,1247.2,701.9,1250.3,703.3,1252.8L703.3,1252.8z"/>
	<path class="st1" d="M722.6,1289.3c24-28.3,55.6-49.1,87.7-67c16.3-9.1,32.9-18.2,50.2-25.1c16.9-6.7,34.5-10.8,52.4-13.6
		c20.9-3.3,42-5.2,62.9-8.6c2.7-0.4,4.2-3.8,3.6-6.3c-0.8-2.9-3.5-4-6.3-3.6c-36.8,6.1-74.7,7.3-110,20.2c-18,6.6-35.2,15.7-52,24.8
		c-16.8,9-33,19-48.6,29.9c-17.2,12.2-33.5,25.9-47.1,42c-1.9,2-1.9,5.2,0,7.2C717.3,1291.1,720.8,1291.4,722.6,1289.3L722.6,1289.3
		z"/>
	<path class="st1" d="M985.8,1128.5c-8.7,3.7-14.7,12.4-15.8,21.7c-1.2,9.7,3.7,19.2,11.4,24.9c2.2,1.6,5.7,0.4,7-1.8
		c1.5-2.6,0.4-5.3-1.8-7c-4.7-3.8-7.1-9.7-6.4-15.7c0.3-1.4,0.7-2.7,1.1-4c0.1-0.3,0.6-1.3,1-1.9c0.2-0.4,0.5-0.8,0.7-1.2
		c0.1-0.1,0.7-1,0.3-0.5c1.9-2.6,4.6-4.6,7.6-5.8c2.5-1.1,3.1-4.8,1.8-7C991.2,1127.7,988.3,1127.4,985.8,1128.5L985.8,1128.5z"/>
	<path class="st1" d="M210.4,1107.7c25.1,39.9,49.4,80.3,72.9,121.2c23.4,40.7,46.1,81.9,67.9,123.5c12.3,23.5,24.4,47,36.2,70.8
		c1.2,2.3,4.7,0.3,3.5-2.1c-21-42.2-42.8-84-65.5-125.3c-22.5-41.2-45.9-82-70-122.3c-13.6-22.7-27.5-45.3-41.6-67.8
		C212.5,1103.4,209,1105.4,210.4,1107.7L210.4,1107.7z"/>
	<path class="st1" d="M218.1,1099.3c24.2,38.6,47.2,77.9,69.6,117.5c22.7,40.2,44.8,80.8,66.7,121.5c12,22.4,24,44.8,35.9,67.2
		c1.2,2.3,4.7,0.3,3.5-2.1c-21.4-40.2-42.8-80.4-64.6-120.3c-22.1-40.5-44.7-80.8-68-120.7c-12.9-21.9-26-43.6-39.4-65.1
		C220.2,1095,216.7,1097.1,218.1,1099.3L218.1,1099.3z"/>
	<path class="st1" d="M218.5,1082.1c23.5,39.3,47.6,78.1,71.3,117.3c23.3,38.6,46.2,77.4,67.5,117.2c12.5,23.3,24.4,46.9,35.8,70.8
		c1.1,2.4,4.6,0.3,3.5-2.1c-19.8-41.8-41.6-82.5-64.6-122.6c-22.4-39-45.9-77.3-69.4-115.7c-13.6-22.3-27.2-44.6-40.6-67
		C220.7,1077.8,217.2,1079.8,218.5,1082.1L218.5,1082.1z"/>
	<path class="st1" d="M401.5,1387c34.2-30.2,68.2-61.1,106.9-85.5c38.7-24.3,81.9-40.5,127.5-45c25.5-2.5,51.2-1.3,76.3,3.6
		c2.6,0.5,3.7-3.4,1.1-3.9c-45-9-92.1-5.7-135.8,8.2c-44.2,14-83.3,39.4-119.2,68.3c-20.5,16.5-40,34-59.7,51.4
		C396.6,1385.8,399.5,1388.7,401.5,1387L401.5,1387z"/>
	<path class="st1" d="M398.2,1403.2c32.2-31.7,67.2-60.7,105.7-84.4c19-11.8,39-22.1,59.7-30.7c21.6-8.9,43.9-16.1,67.3-18.1
		c27.3-2.4,54.7,0.5,82,0.4c2.6,0,2.6-4.1,0-4.1c-24.7,0.1-49.4-2.2-74.2-0.9c-12.2,0.6-24.4,2.3-36.3,5.2
		c-11.1,2.9-22.1,6.5-32.8,10.7c-42.1,16.3-80.9,40.2-116.4,67.8c-20.3,15.9-39.6,32.9-57.9,51.1
		C393.4,1402.1,396.3,1405,398.2,1403.2L398.2,1403.2z"/>
	<path class="st1" d="M399.7,1418.5c27.3-35.5,65.7-61.5,103.5-84.6c40-24.5,82.9-43.9,129.3-52.4c26.7-4.9,54.4-5.6,80.8,1.7
		c2.5,0.7,3.6-3.2,1.1-3.9c-23.5-6.4-48-6.8-72.1-3.4c-24.3,3.5-48.1,9.9-70.9,18.9c-21.9,8.5-42.9,19.4-63.1,31.4
		c-19.9,11.8-39.2,24.6-57.8,38.4c-20.1,15.1-39,32-54.3,52C394.6,1418.6,398.1,1420.6,399.7,1418.5L399.7,1418.5z"/>
	<path class="st1" d="M717.9,1261.7c11.1-15.9,26.2-28.9,41.7-40.4s31.9-21.9,48.2-32.1c34-21.1,71.9-37.3,111.2-45.4
		c19.5-4,39.6-5.9,59.4-3.3c2.6,0.3,2.6-3.7,0-4.1c-17.8-2.3-35.9-1-53.5,2.1c-19.7,3.6-39,9.1-57.7,16.5
		c-19.3,7.5-38,16.6-55.8,27.2c-16.8,10-33.3,20.7-49.2,32.1c-17.8,12.8-35.2,27.1-47.9,45.3
		C712.8,1261.8,716.4,1263.9,717.9,1261.7L717.9,1261.7z"/>
	<path class="st1" d="M718.6,1274.2c25.6-27.6,53.8-53.1,85.2-73.9c32.4-21.4,68.3-37.7,106.4-45.7c21.7-4.6,43.8-6.3,65.9-4.9
		l-1-3.8l-4.7,2.7c-2.3,1.3-0.2,4.8,2.1,3.5l4.7-2.7c1.8-1.1,0.9-3.7-1-3.8c-39.8-2.6-79.8,5.3-116.6,20.4
		c-35.5,14.6-67.9,35.7-97.2,60.4c-16.4,14-32,29-46.7,44.9C713.9,1273.2,716.8,1276.1,718.6,1274.2L718.6,1274.2z"/>
	<path class="st1" d="M721.4,1280.2c25.9-25.8,53.8-49.7,84.6-69.4c31.5-20.1,65.9-35.8,102.5-44c20.7-4.7,42-6.8,63.2-6.1
		c2.6,0.1,2.6-4,0-4.1c-38.3-1.3-76.4,6.8-111.7,21.3c-34.3,14.1-65.9,34.1-94.8,57.3c-16.3,13.2-31.9,27.2-46.7,42.1
		C716.6,1279.2,719.5,1282,721.4,1280.2L721.4,1280.2z"/>
	<path class="st1" d="M287.3,1074.3c16.7-6.8,33.3-13.5,50-20.2c15.3-6.1,30.6-12.5,46.2-17.9c0.9-0.3,1.8-0.6,2.7-0.9
		c0.3-0.1,1.4-0.2,1.6-0.4c-0.2,0.2-0.8-0.2-1.1-0.2c-0.5,0-0.1-0.4,0,0.1c0.1,0.3,0.4,0.5,0.2,0.3c0.2,0.3,0.5,0.6,0.7,0.9
		c2.9,4.2,5.3,8.8,7.8,13.2c8.1,14.6,15.7,29.4,23.1,44.3c3.4,6.8,6.8,13.5,10,20.3c1.9,3.9,4.1,8.3,5.4,11.8
		c0.1,0.2,0.1,0.4,0.2,0.6c0.2,0.4,0,0.3,0.1,0.2c0.1,0,0.2-1.9,0.8-1.8c-0.1,0-0.3,0.2-0.4,0.2c-1.3,0.5-2.5,1.1-3.7,1.7
		c-5.1,2.3-10.3,4.4-15.5,6.5c-15.4,6.3-30.9,12.4-46.6,18.2c-6.9,2.6-13.8,5.1-20.8,7.4c-2.4,0.8-4.9,1.6-7.4,2.3
		c-0.9,0.3-1.9,0.5-2.8,0.7c-0.3,0.1-0.7,0.1-1,0.2c-0.7,0.1,0.1,0-0.5,0.1c-0.1,0-0.5-0.1-0.6,0c0.2-0.2,0.4,0.3,0.9,0.4
		c-0.3-0.1,0.1,0.2,0,0c-0.1-0.2-0.3-0.5-0.5-0.7c-1.2-1.7-2.2-3.5-3.3-5.3c-4.1-6.8-8-13.7-11.9-20.6c-9.8-17.4-19.4-35-27.9-53.1
		c-1.6-3.3-3.1-6.7-4.4-10.1c-1-2.4-4.9-1.4-3.9,1.1c7.1,18.1,16.8,35.3,26.1,52.2c4.6,8.4,9.4,16.8,14.2,25.2
		c2.6,4.5,5.1,9.1,8.1,13.3c1.9,2.7,5.2,1.5,8,0.7c5.9-1.6,11.6-3.6,17.3-5.7c16.4-5.8,32.5-12.1,48.7-18.6c6.7-2.7,13.4-5.4,20-8.2
		c3.2-1.4,7-2.5,9.9-4.4c2.6-1.8,0.1-5.6-0.8-7.7c-2.5-5.6-5.2-11.1-7.9-16.7c-7.7-15.7-15.7-31.3-23.9-46.8
		c-3.3-6.1-6.5-12.2-10.1-18.2c-1.1-1.8-2.2-3.7-3.4-5.4c-0.8-1.1-1.6-2.5-3.1-2.8c-1.3-0.2-2.8,0.5-4,0.9c-2.5,0.8-5,1.7-7.5,2.7
		c-8.1,3-16.1,6.2-24.1,9.3c-18.9,7.4-37.7,15-56.4,22.7c-3.2,1.3-6.5,2.6-9.7,4C283.8,1071.3,284.9,1075.2,287.3,1074.3
		L287.3,1074.3z"/>
	<path class="st1" d="M295.3,1020.9c12.6-7.5,26.3-13.1,40-18.4s27.5-10,41.4-14.6c2.5-0.8,1.4-4.8-1.1-3.9
		c-14.1,4.7-28.3,9.6-42.2,14.9c-13.7,5.3-27.5,11-40.2,18.5C291,1018.7,293,1022.2,295.3,1020.9z"/>
	<path class="st1" d="M309.4,1031.7c3.2-2.2,6.5-4.1,10-5.7c5.3-2.6,10.7-5.1,16.1-7.4c11.5-5,23.3-9.7,35.2-13.8
		c4.3-1.6,8.7-2.9,13.2-3.8c2.6-0.4,1.5-4.4-1.1-3.9c-9.6,1.7-19.1,5.8-28.1,9.3c-11.9,4.6-23.7,9.5-35.2,15.1
		c-4.3,1.9-8.3,4.1-12.2,6.7C305.2,1029.7,307.3,1033.2,309.4,1031.7L309.4,1031.7z"/>
	<path class="st1" d="M419.2,1047.6c34.8-16.1,72.6-28,111-31.1c2.6-0.2,2.6-4.3,0-4.1c-31.1,2.5-61.7,10.8-90.7,22.1
		c-7.5,2.9-15,6.1-22.4,9.5C414.8,1045.2,416.9,1048.7,419.2,1047.6L419.2,1047.6z"/>
	<path class="st1" d="M424.2,1066.9c27.2-12.6,55.7-23.5,85.1-29.9c7.9-1.8,15.9-3.1,23.9-3.8c2.6-0.2,2.6-4.3,0-4.1
		c-30.5,2.7-60.3,13-88.5,24.5c-7.6,3.1-15.1,6.4-22.6,9.8C419.8,1064.5,421.8,1068,424.2,1066.9L424.2,1066.9z"/>
	<path class="st1" d="M436.7,1090c25.6-13.9,53.1-23.9,81.7-29.9c7.7-1.6,15.4-2.7,23.2-3.2c2.6-0.2,2.6-4.2,0-4.1
		c-29.5,1.7-58.7,11.5-85.6,23.3c-7.2,3.2-14.4,6.6-21.3,10.3C432.3,1087.7,434.4,1091.2,436.7,1090L436.7,1090z"/>
	<path class="st1" d="M453.8,1107.7c16-9,33.3-15.5,51.3-19.2c2.6-0.5,1.5-4.4-1.1-3.9c-18.3,3.8-35.9,10.4-52.2,19.6
		C449.5,1105.5,451.5,1109,453.8,1107.7z"/>
	<path class="st1" d="M374,1200.5c46.2-25.6,95.3-45.4,146.4-59c14.4-3.8,28.8-7.1,43.4-9.9c2.6-0.5,1.5-4.4-1.1-3.9
		c-52,10-102.6,26.4-150.7,48.8c-13.6,6.3-27,13.2-40.1,20.4C369.6,1198.3,371.7,1201.8,374,1200.5z"/>
	<path class="st1" d="M386.9,1217.2c24.1-11.2,48.4-22.1,73-32c25.9-10.4,52.3-20,79.4-27c13.5-3.6,27.2-6.2,41.1-7.7
		c2.6-0.3,2.6-4.3,0-4.1c-25.9,2.5-51.3,9.7-75.9,17.9c-27,9.1-53.5,19.8-79.6,31.2c-13.4,5.9-26.7,11.9-40,18.1
		C382.5,1214.8,384.5,1218.3,386.9,1217.2L386.9,1217.2z"/>
	<path class="st1" d="M401.6,1241.4c23.4-15.8,49.4-27.9,75.6-38.4c26.4-10.7,53.5-19.6,81.1-26.6c11.5-3,23.1-5.3,34.9-6.7
		c2.6-0.3,2.6-4.3,0-4.1c-23.7,2.6-47,9.2-69.7,16.4C495,1191,467,1202,440.1,1215c-14,6.7-27.5,14.3-40.5,22.9
		C397.4,1239.4,399.5,1242.9,401.6,1241.4L401.6,1241.4z"/>
	<path class="st1" d="M416.2,1268.3c47.9-24.9,97.7-47.8,149.8-62.2c13.6-3.9,27.5-6.8,41.5-8.9c2.6-0.4,1.5-4.3-1.1-3.9
		c-26.2,3.6-51.7,11.2-76.6,20.1c-26.3,9.4-52,20.4-77.2,32.3c-13,6.1-25.8,12.5-38.6,19.2C411.8,1266,413.9,1269.5,416.2,1268.3z"
		/>
	<path class="st1" d="M573,965.2c23.5-21.6,50.4-39,79.8-51.4c29.8-12.8,61.4-20.7,93.7-23.6c18.2-1.6,36.4-1.6,54.6,0.1
		c2.6,0.2,2.6-3.8,0-4.1c-65.6-6-131.4,9.2-187.8,43.4c-15.4,9.4-29.9,20.4-43.1,32.7C568.2,964.1,571.1,967,573,965.2L573,965.2z"
		/>
	<path class="st1" d="M595.2,993.3c22.2-22.3,48.7-40.1,76.8-54.1c14.2-7.1,28.9-13.4,44.2-17.6c15.7-4.2,31.7-6.9,47.8-8.1
		c17.4-1.5,34.9-1.7,52.4-1.7c2.6,0,2.6-4.1,0-4.1c-32,0-64.4,0.8-95.6,8.5c-15.6,3.8-30.5,9.8-44.9,16.6
		c-14.6,6.9-28.6,14.8-42,23.8c-14.9,9.9-28.9,21.2-41.5,33.9C590.4,992.3,593.3,995.2,595.2,993.3L595.2,993.3z"/>
	<path class="st1" d="M608.7,1019.8c23.6-20.9,51.6-36.6,80.7-48.5c30.1-12.1,61.4-20.7,93.5-25.4c17-2.6,34.1-4.1,51.3-4.4
		c2.6,0,2.6-4.1,0-4.1c-31.7,0.7-63.3,5-94,12.9c-31.7,8.1-62.8,19.7-91.3,36c-15.4,8.7-29.8,18.9-43.1,30.6
		C603.9,1018.7,606.8,1021.5,608.7,1019.8L608.7,1019.8z"/>
	<path class="st1" d="M626.8,1048c24.7-18.8,51.6-34.5,80.1-46.9c28.8-12.3,59-21.3,89.8-26.7c17.5-3.2,35.2-5.4,53-5.4
		c2.6,0,2.6-4.1,0-4.1c-15.7,0.2-31.3,1.6-46.8,4.3c-15.9,2.6-31.6,6-47.1,10.3c-47.4,13.2-91.9,35.2-131.1,65
		C622.7,1046,624.7,1049.5,626.8,1048L626.8,1048z"/>
	<path class="st1" d="M649.2,1078c23.3-20.6,49.2-38,77-51.8c27.8-13.8,57.4-23.9,87.8-30.1c17.3-3.5,34.8-5.7,52.4-6.6
		c2.6-0.1,2.6-4.2,0-4.1c-31.5,1.6-62.7,7.3-92.7,17.1c-30,9.7-58.7,23.4-85.2,40.5c-14.8,9.6-28.9,20.3-42.2,32.1
		C644.4,1076.8,647.3,1079.7,649.2,1078L649.2,1078z"/>
	<path class="st1" d="M664.6,1113.7c22.9-21.8,48.8-40.2,76.9-54.7c28-14.5,57.8-24.9,88.7-31.2c17.4-3.5,35.1-5.6,52.9-6.2
		c2.6-0.1,2.6-4.2,0-4.1c-32,1.2-63.6,6.9-93.9,17c-30.3,10.1-59.1,24.3-85.5,42.4c-14.9,10.2-28.9,21.5-41.9,34
		C659.9,1112.6,662.7,1115.5,664.6,1113.7L664.6,1113.7z"/>
	<path class="st1" d="M683.6,1142c60-50.6,133.4-82.7,211.3-92.5c2.6-0.3,2.6-4.4,0-4.1c-79,9.8-153.4,42.3-214.2,93.7
		C678.7,1140.8,681.6,1143.7,683.6,1142L683.6,1142z"/>
	<path class="st1" d="M696.6,1173.7c45.8-34.6,97.2-61,151.9-78.3c15.4-4.9,31.1-9,47-12.3c2.6-0.5,1.5-4.5-1.1-3.9
		c-56.5,12-110.5,33.5-159.7,63.7c-13.8,8.5-27.2,17.6-40.1,27.4C692.5,1171.7,694.5,1175.2,696.6,1173.7L696.6,1173.7z"/>
	<path class="st0" d="M962.7,118.3c5.7,23,11.4,46,17.1,69c6.6,26.5,13.2,52.9,19.9,79.4c6.2,24.6,12.5,49.2,18.8,73.8
		c4.5,17.5,9,35.1,13.9,52.6c1.2,4.5,2.5,9,3.9,13.5c4.3,13,11.9,25.2,19.4,36.5c3.9,5.9,8.1,11.6,12.8,17c1.2,1.5,2.6,2.8,4.1,3.8
		c2.3,1.4,4.7,0.6,7,0c9-2,18-3.8,27.1-5.6c27.8-5.5,55.6-10.8,83.5-16.1c34.6-6.6,69.1-13.2,103.7-19.9
		c33.7-6.6,67.4-13.2,101-20.3c7.2-1.5,14.3-3,21.5-4.6c3-0.7,4.9-4.9,3-7.5c-5.1-7.1-8.5-15.3-8.2-23.9c0.2-4,1.3-7.9,3.3-11.4
		c2.5-4.1,6-7.5,10.2-9.9c2.5-1.6,2.9-4.4,1.8-7c-0.3-0.6-0.5-1.3-0.8-1.9c-0.1-1.2-0.6-2.3-1.3-3.2c-19-44.4-37.7-89-56.1-133.7
		c-16.9-40.9-33.8-81.9-51.1-122.6c-10.5-24.8-21.2-49.5-32.1-74.1c-0.9-1.6-2.6-2.5-4.4-2.5c-51.5,0-103,3.4-154.1,10.2
		c-23.5,3.1-47,6.7-70.4,10.9c-22.5,4-45.2,8.6-67,15.5c-10.4,3.4-19.8,9.3-27.4,17.2c-5,5.3-11.4,13-9.7,20.9
		C955.6,89.3,959.1,103.8,962.7,118.3z M1078.1,455.4C1078.2,455.4,1078.2,455.4,1078.1,455.4z M961.9,71.6c0,0,0,0.1,0,0.3
		C961.9,71.8,961.9,71.7,961.9,71.6L961.9,71.6z"/>
	<path class="st1" d="M952,74.7c3.5,14.6,7.1,29.1,10.7,43.6c5.7,23,11.4,46,17.1,69c6.6,26.5,13.2,52.9,19.9,79.4
		c6.2,24.6,12.5,49.2,18.8,73.8c4.5,17.5,9,35.1,13.9,52.6c1.2,4.5,2.5,9,3.9,13.5c4.3,13,11.9,25.2,19.4,36.5
		c3.9,5.9,8.1,11.6,12.8,17c1.2,1.5,2.6,2.8,4.1,3.8c2.3,1.4,4.7,0.6,7,0c9-2,18-3.8,27.1-5.6c27.8-5.5,55.6-10.8,83.5-16.1
		c34.6-6.6,69.1-13.2,103.7-19.9c33.7-6.6,67.4-13.2,101-20.3c7.2-1.5,14.3-3,21.5-4.6c3-0.7,4.9-4.9,3-7.5
		c-5.1-7.1-8.5-15.3-8.2-23.9c0.2-4,1.3-7.9,3.3-11.4c2.5-4.1,6-7.5,10.2-9.9c2.5-1.6,2.9-4.4,1.8-7
		c-19.7-46.1-39.1-92.3-58.2-138.7c-16.9-40.9-33.8-81.9-51.1-122.6c-10.5-24.8-21.2-49.5-32.1-74.1c-0.9-1.6-2.6-2.5-4.4-2.5
		c-51.5,0-103,3.4-154.1,10.2c-23.5,3.1-47,6.7-70.4,10.9c-22.5,4-45.2,8.6-67,15.5c-10.4,3.4-19.8,9.3-27.4,17.2
		C956.8,59.1,950.4,66.9,952,74.7c0.6,2.7,3.7,4.2,6.3,3.5c2.7-0.8,4.2-3.6,3.6-6.3c-0.2-0.9-0.2,0.8,0.1,0.4c0.1-0.1-0.1-0.7,0-0.8
		s-0.4,1.4,0,0.4c0.1-0.2,0.1-0.5,0.2-0.7c0.1-0.3,0.8-2.1,0.3-1.1c0.3-0.7,0.7-1.4,1.1-2.1c1.7-2.9,3.8-5.5,6.2-7.9
		c6.2-6.4,13.8-11.1,22.2-13.9c21-6.6,42.7-11.1,64.3-15c46.6-8.6,93.6-14.7,140.8-18.2c27.8-2,55.7-3,83.7-3
		c-1.5-0.8-2.9-1.7-4.4-2.5c18.6,42.1,36.7,84.3,54.2,126.8c17.4,41.8,34.6,83.7,52,125.5c11.6,27.7,23.3,55.4,35.1,83.1l1.8-7
		c-10.4,6.5-17.5,16.4-18.5,28.9c-0.8,10.7,3.3,21.7,9.5,30.3l3-7.5c-32,7-64,13.4-96.1,19.8c-34.8,6.9-69.6,13.6-104.4,20.2
		c-30,5.7-60,11.4-90,17.2c-11,2.1-22,4.3-33,6.5c-4,0.8-8,1.7-12,2.5c-0.8,0.2-1.6,0.3-2.4,0.5c-0.6,0.1-2.2,0.2,0.1,0.3
		c0.7-0.1,1.5,0.1,2.2,0.4c-0.4-0.2-0.4,0,0.1,0.1c0.6,0.1,0.2,0.2-0.3-0.3c-0.3-0.3-0.5-0.5-0.8-0.8c-0.8-0.9-1.6-1.8-2.4-2.7
		c-4.5-5.5-8.6-11.3-12.4-17.3c-5.2-7.9-9.8-16.2-13.7-24.7c-1.8-4.1-3.2-8.3-4.4-12.6c-4.4-15.2-8.3-30.6-12.3-45.9
		c-6-23.3-12-46.6-17.9-69.9c-6.6-26.3-13.3-52.6-19.8-78.9c-6-24.1-12-48.3-18-72.4c-4.2-16.8-8.3-33.6-12.4-50.4
		c-0.6-2.4-1.2-4.9-1.8-7.3C960.3,65.6,950.5,68.3,952,74.7z"/>
	<path class="st1" d="M1049.2,414.7c26.3-5.7,52.7-11.1,79.1-16.3c29.8-5.9,59.7-11.7,89.5-17.4c28.9-5.5,57.8-11,86.7-16.4
		c23.9-4.5,47.8-9,71.6-13.7c14.4-2.8,28.9-5.5,43.2-9c0.9-0.2,1.8-0.4,2.7-0.7c6.3-1.7,3.6-11.5-2.7-9.8
		c-12.8,3.3-25.8,5.7-38.8,8.2c-22.9,4.5-45.9,8.9-68.8,13.2c-28.5,5.4-57,10.8-85.5,16.2c-30,5.7-60,11.5-89.9,17.4
		c-27.1,5.3-54.1,10.8-81.1,16.5c-2.9,0.6-5.8,1.3-8.8,1.9C1040.1,406.3,1042.8,416.1,1049.2,414.7L1049.2,414.7z"/>
	<path class="st1" d="M1069.6,350.1c5.5,15.2,9.1,31,14.4,46.2c1.3,3.7,7.2,2.1,5.9-1.6c-5.4-15.2-9-31-14.4-46.2
		C1074.1,344.8,1068.2,346.4,1069.6,350.1z"/>
	<path class="st1" d="M990.6,46.7c2.9,8.7,4.9,17.8,7.2,26.7c4.8,18.2,9.5,36.4,14.1,54.6c5.8,22.8,11.7,45.5,17.5,68.3
		c5.8,22.5,11.6,45.1,17.5,67.6c4.6,17.6,9.2,35.2,14,52.7c0.4,1.6,0.9,3.1,1.3,4.7c1.1,3.8,6.9,2.2,5.9-1.6
		c-4.6-16.5-8.9-33-13.3-49.6c-5.8-22.1-11.6-44.3-17.2-66.5c-5.9-23-11.8-46-17.7-69c-4.9-19.1-9.8-38.1-14.7-57.2
		c-2.7-10.4-5.2-20.8-8.3-31.1c-0.1-0.4-0.3-0.9-0.4-1.3C995.3,41.3,989.4,42.9,990.6,46.7L990.6,46.7z"/>
	<path class="st1" d="M1052.6,427c45.7-11.2,91.8-21,137.9-30.3c46.4-9.3,93-18,139.6-26.7c25.6-4.8,51.1-9.5,76.7-14.4
		c2.6-0.5,1.5-4.4-1.1-3.9c-45.9,8.7-91.8,17.1-137.7,25.8c-46.6,8.8-93.2,17.9-139.7,28c-25.7,5.5-51.3,11.4-76.8,17.6
		C1049,423.7,1050.1,427.6,1052.6,427L1052.6,427z"/>
	<path class="st1" d="M1052.6,435.6c45.7-11.2,91.8-21,137.9-30.3c46.4-9.3,93-18,139.6-26.7c25.6-4.8,51.1-9.5,76.7-14.4
		c2.6-0.5,1.5-4.4-1.1-3.9c-45.9,8.7-91.8,17.1-137.7,25.8c-46.6,8.8-93.2,17.9-139.7,28c-25.7,5.5-51.3,11.4-76.8,17.6
		C1049,432.3,1050.1,436.2,1052.6,435.6L1052.6,435.6z"/>
	<path class="st1" d="M1062,443.9c45-11,90.3-20.9,135.7-30.2c45.4-9.3,90.9-18,136.5-26.6c25.2-4.8,50.4-9.5,75.5-14.3
		c2.6-0.5,1.5-4.4-1.1-3.9c-45.1,8.6-90.3,17-135.4,25.7c-45.6,8.8-91.2,17.9-136.5,27.8c-25.3,5.5-50.5,11.4-75.7,17.5
		C1058.4,440.6,1059.5,444.5,1062,443.9L1062,443.9z"/>
	<path class="st1" d="M1070.2,452.6c44-10.7,88.2-20.4,132.5-29.4c43.5-8.9,87.2-17.1,130.9-25.3c24.9-4.7,49.8-9.4,74.7-14
		c2.6-0.5,1.5-4.4-1.1-3.9c-44.1,8.4-88.2,16.5-132.3,24.9c-43.7,8.4-87.4,17.1-131,26.6c-25,5.5-50,11.2-74.9,17.3
		C1066.5,449.3,1067.6,453.2,1070.2,452.6L1070.2,452.6z"/>
	<path class="st1" d="M1386.3,314.3l-16.2-38.8c-0.4-1.1-1.5-1.7-2.5-1.4c-14.8,2.5-29.7,5-44.5,7.6c-23.5,4-47.1,8-70.6,12
		c-5.4,0.9-10.8,1.8-16.2,2.8c-1.1,0.3-1.7,1.4-1.4,2.5l16.2,38.8c0.4,1.1,1.5,1.7,2.5,1.4c14.8-2.5,29.7-5,44.5-7.6l70.6-12
		l16.2-2.8c1-0.2,1.7-1.2,1.5-2.2C1386.4,314.5,1386.4,314.4,1386.3,314.3L1386.3,314.3z M1339.3,320.5c-23.5,4-47.1,8-70.6,12
		l-14.4,2.4c-4.9-11.7-9.7-23.3-14.6-35l42.2-7.2l70.6-12c4.8-0.8,9.6-1.6,14.4-2.4c4.9,11.7,9.7,23.3,14.6,35L1339.3,320.5z"/>
	<path class="st0" d="M1570,1864.5c-39-15.4-78.3-30-115.9-48.7c-18.5-9.2-37-19.3-53.3-32.1c-15.8-12.4-28.2-28.4-39.2-45.1
		c-5.3-8.2-11.1-16.2-17.2-23.9c-0.2-0.4-0.5-0.8-0.9-1.2c-0.1-0.1-0.2-0.2-0.3-0.3c-3.9-4.7-8-9.1-12.4-13.2
		c-8.2-7.7-16.5-13.2-27.7-15.2c-12.4-2.1-24,0.6-35.6,4.8c-26.6,9.4-54.2,15.5-82.2,19c-22.2,2.8-44.8,3.7-67.1,1.3
		c-28-3-55.6-11.7-78.6-28.2c-6.4-4.7-12.4-9.8-17.9-15.4c-3-3-6.1-7.1-10-9.1c-5.1-2.6-9.5,1.8-13.1,4.8
		c-6.8,5.5-13.2,11.5-19.6,17.4c-22.6,20.7-44.8,41.9-67,63c-28,26.5-56,52.9-84.2,79.3c-25.5,23.7-51,47.2-77.4,69.8
		c-4.8,4.1-9.7,8.2-14.6,12.2c-3.1,0.9-5.5,5.3-2.7,8.7c8,9.6,16.8,18.4,26.3,26.5c-4.4,3.4-8.4,7.3-12,11.5
		c-3.1,3.6-8,8.6-7.9,13.8c0.1,4.3,5.5,6.9,8.6,9.1c3,2.1,6.1,4.1,9.2,6.1c3,1.9,6.1,3.7,9.2,5.5c0,0,0,0-0.1,0.1
		c-0.3,0.4-0.7,0.7-1,1.1c-1.6,1.8-3.3,3.4-5,5.1c-4.1,4-8.3,7.9-12.3,12c-2.7,2.7-7,6.5-7,10.7c0.1,5.1,7,6.5,10.9,8
		c11.7,4.3,23.7,7.7,35.9,10.4c-2.6,1.9-5,3.9-7.3,5.8c-4.3,3.5-10.4,8-11,14c-0.2,2.2,1.7,4.3,3.7,4.9c15.4,4.5,31.1,7.9,47,10.3
		c22.6,3.6,45.4,5.6,68.3,6c25.4,0.3,51-1.5,75.9-6.6c25-5.1,49.6-13.6,71.4-26.9c20.4-12.4,37.9-29.2,51-49.1
		c8.5,75.7,54.1,142.2,121.6,177.4c24.7,13.1,50,25.1,75,37.6c1.5,0.8,3.3,0.3,4.2-1.1c0.3-0.4,0.5-0.8,0.8-1.2
		c3.3,1.6,7.2,3.9,10.9,4c1.4,0,2.7-0.5,3.8-1.4c2.2-1.6,4.3-3.4,6.4-5.2c5.8-4.9,11.3-10.3,16.4-15.9c1.4-1.6,2.7-3.2,4-4.9
		c0.5,0,0.9-0.1,1.4-0.1c1.8-0.2,3.7-0.5,5.5-0.9h0c0,0,0,0,0,0c1-0.2,2-0.7,2.7-1.5c13.1-13.5,26-27.2,38.4-41.4
		c1.2,0.1,2.5,0.3,3.7,0.3c5.9,0.4,13.4,0.6,17.9-3.9c4.4-4.4,8-10.1,11.6-15.1c7.5-10.3,14.9-20.7,22.2-31.1
		c21.4-30.5,42.4-61.4,63-92.5c21.9-33,43.5-66.3,64-100.3c4.3-7.2,8.6-14.4,12.7-21.7C1574.8,1868.9,1573,1865.7,1570,1864.5z
		 M747.4,1960.7C747.1,1960.4,747,1960.1,747.4,1960.7z M749.4,1964.8C749.5,1965.2,749.4,1965.1,749.4,1964.8z M766.3,1985.2
		L766.3,1985.2C766.3,1985.2,766.3,1985.2,766.3,1985.2c-0.1,0.1-0.1,0.1-0.1,0.2C766.3,1985.3,766.3,1985.3,766.3,1985.2
		L766.3,1985.2z M750.7,2015.8c0.1-0.1,0.1-0.2,0.2-0.3C750.1,2018.2,750.6,2015.9,750.7,2015.8z M1297.1,2198.1
		c-0.1-0.1,0.2-0.3,0.5-0.4C1297.5,2197.8,1297.1,2198.1,1297.1,2198.1L1297.1,2198.1z M1365.4,2135.1c0.1-0.2,0.3-0.4,0.4-0.7
		l0.1,0C1365.8,2134.6,1365.6,2134.8,1365.4,2135.1L1365.4,2135.1z"/>
	<path class="st1" d="M1391.8,2125.9C1391.8,2125.9,1391.9,2125.9,1391.8,2125.9C1392.3,2125.7,1391.6,2125.8,1391.8,2125.9z"/>
	<path class="st1" d="M742.3,1911.5c24.6-20.1,48.1-41.5,71.5-63c28.4-26.1,56.4-52.5,84.4-79c24.4-23.1,48.7-46.2,73.2-69.2
		c8.4-7.8,16.7-15.6,25.3-23.2c2.8-2.5,5.6-5,8.5-7.4c0.5-0.5,1.1-0.9,1.6-1.3c0.7-0.5,1.6-1.2,0.6-0.5c0.7-0.5,1.5-1,2.2-1.5
		c1.2-1-0.3,0.1-1.2,0.1c-0.4,0-2.8-0.7-1.1-0.1c1.1,0.4-0.8-0.7-0.1-0.1c0.3,0.3,0.7,0.6,1,0.9c0.8,0.7,1.5,1.5,2.3,2.2
		c4.8,4.8,9.7,9.7,15,14.1c19.6,16.3,43.1,27,67.9,32.6c44.6,10,90.7,4.5,134.9-4.6c13.8-2.9,27.3-6.8,40.6-11.5
		c11.5-4.1,22.8-7.5,35-4.5c10.3,2.5,17.6,9.4,24.8,16.8c5.5,5.6,10.6,11.6,15.2,18c11.3,16,21.4,32.6,34.8,47.1
		c12.7,13.8,29,24.4,45.1,33.8c37.7,21.9,78.7,38,119.2,53.8c8.1,3.2,16.2,6.3,24.3,9.5c-1-2.5-2-5-3-7.5
		c-18.6,32.5-38.8,64.1-59.2,95.5c-21.3,32.7-43.1,65-65.3,97.1c-14.3,20.6-28.5,41.4-43.7,61.4c-0.2,0.3-0.5,0.6-0.7,1
		c-0.2,0.3,0.6-0.8,0,0c-0.4,0.5-0.8,1-1.2,1.5c-0.5,0.7-1.2,1.3-1.7,2c-0.2,0.2-0.3,0.3-0.5,0.5c1.2-1.2,0.3,0.2-0.2,0
		c-0.2-0.1,0.9-0.2-0.4,0.1c-0.6,0.1-1.3,0.3-1.9,0.4c-1.1,0.2,0.2,0,0,0c-0.3,0-0.7,0.1-1,0.1c-0.9,0-1.8,0.1-2.7,0.1
		c-1.8,0-3.7-0.1-5.5-0.3c-4.6-0.5-9.1-1.2-13.6-2.2c-29.3-6.2-57.7-17.4-84.9-29.7c-33.8-15.3-66.7-33.5-96.5-55.6
		c-14.1-10.3-27.2-21.8-39.1-34.5c-5.4-5.7-10.3-11.8-14.9-18.2c-3-4.2-6-7.1-11-8.7c-1.8-0.6-3.7-0.7-5.4-1.4
		c-1.8-0.7-4.1-2.4-6-3.5c-18.6-9.7-41.8-13.4-62.4-8.9c-4.2,0.9-8.2,2.3-12,4.2c-0.4,0.2-0.8,0.5-1.3,0.7c-0.9,0.4-0.2,0.1-0.3,0.2
		c-1.1,0.4-2.2,0.8-3.3,1.1c-6.7,2.1-13.6,3.6-20.4,5c-19.7,4.1-39.7,7.3-59.6,9.9c-20.7,2.6-41.3,4.3-62.1,1.6
		c-45.6-5.7-89.9-26.9-124.2-57.2c-8.2-7.3-15.9-15.2-23-23.6c-4.2-5-11.4,2.2-7.2,7.2c29.8,35.7,71.4,61.9,115.7,75.6
		c21.9,6.7,44.9,10.4,67.8,9.7c20.6-0.6,41.2-3.9,61.5-7.1c17.4-2.8,35-5.6,52-10.4c5.5-1.6,10.4-4.5,15.9-6
		c9.6-2.7,20-2.7,29.8-1.4c11,1.3,21.6,4.8,31.2,10.3c1.7,1.2,3.6,2.1,5.6,2.8c2.1,0.6,4.3,0.8,6.3,1.7c3.3,1.5,5.4,6,7.5,8.8
		c10.4,13.5,22.3,25.8,35.5,36.7c28.8,24.3,61.5,44,95.2,60.7c29.6,14.7,60.5,27.6,92.3,36.4c10.5,2.9,21.3,5.5,32.2,6.3
		c5.9,0.4,13.4,0.6,17.9-3.9c4.4-4.4,8-10.1,11.6-15.1c7.5-10.3,14.9-20.7,22.2-31.1c21.4-30.5,42.4-61.4,63-92.5
		c21.9-33,43.5-66.3,64-100.3c4.3-7.2,8.6-14.4,12.7-21.7c1.8-3.1,0-6.3-3-7.5c-39-15.4-78.3-30-115.9-48.7
		c-18.5-9.2-37-19.3-53.3-32.1c-15.8-12.4-28.2-28.4-39.2-45.1c-9.2-13.9-18.6-27.1-30.8-38.5c-8.2-7.7-16.5-13.2-27.7-15.2
		c-12.4-2.1-24,0.6-35.6,4.8c-26.6,9.4-54.2,15.5-82.2,19c-22.2,2.8-44.8,3.7-67.1,1.3c-28-3-55.6-11.7-78.6-28.2
		c-6.4-4.7-12.4-9.8-17.9-15.4c-3-3-6.1-7.1-10-9.1c-5.1-2.6-9.5,1.8-13.1,4.8c-6.8,5.5-13.2,11.5-19.6,17.4
		c-22.6,20.7-44.8,41.9-67,63c-28,26.5-56,52.9-84.2,79.3c-25.5,23.7-51,47.2-77.4,69.8c-5,4.3-10,8.5-15.1,12.7
		C730,1908.5,737.2,1915.6,742.3,1911.5L742.3,1911.5z"/>
	<path class="st1" d="M1255.2,1696.2c-29.8,33.4-58.5,67.7-86.8,102.4c-28.5,35-56.5,70.4-84.5,105.8c-15.5,19.6-31,39.2-46.6,58.7
		c-1.7,2.1-2.1,5.1,0,7.2c1.8,1.8,5.5,2.2,7.2,0c27.9-35,55.6-70.2,83.4-105.2c28.1-35.3,56.4-70.5,85.4-105
		c16.1-19.1,32.4-38,49-56.7C1266.7,1698.5,1259.5,1691.3,1255.2,1696.2L1255.2,1696.2z"/>
	<path class="st1" d="M1336.3,1713.5c-26.9,33.4-52.9,67.6-79,101.7c-27.3,35.5-54.8,70.8-83.6,105.2c-16.8,20-34,39.6-51.7,58.8
		c-4.4,4.8,2.7,12,7.2,7.2c31.2-33.7,60.7-68.9,89.2-104.8c27.5-34.6,54.2-69.8,81.2-104.8c14.5-18.8,29.1-37.5,43.9-56
		c1.7-2.1,2.1-5.1,0-7.2C1341.7,1711.8,1338.1,1711.4,1336.3,1713.5L1336.3,1713.5z"/>
	<path class="st1" d="M1097.8,1981c3.6,19.9,13.2,38.6,24.3,55.3c13.3,20,29.3,38.2,46.6,54.9c17.9,17.3,37.3,33.1,57.8,47.2
		c18.2,12.5,37.3,23.6,57.7,32c14.5,6,31.2,11.4,47.1,9.7c1.8-0.2,3.7-0.5,5.5-0.9c6.4-1.4,3.7-11.2-2.7-9.8
		c-0.7,0.2-1.4,0.3-2.1,0.4c-1.1,0.2,0.1,0,0,0c-0.4,0-0.7,0.1-1.1,0.1c-1.6,0.2-3.2,0.2-4.8,0.2c-1.7,0-3.3-0.1-5-0.2
		c-0.9-0.1-1.7-0.2-2.6-0.3c-0.5-0.1-1.4-0.2-0.3,0c-0.5-0.1-1-0.1-1.5-0.2c-8.1-1.4-16.1-3.6-23.8-6.5c-2.2-0.8-4.4-1.7-6.6-2.6
		c-0.2-0.1-1.3-0.6-0.6-0.3c-0.5-0.2-1.1-0.5-1.6-0.7c-1.2-0.5-2.4-1-3.5-1.6c-4.7-2.1-9.3-4.4-13.8-6.8
		c-9.7-5.1-19.2-10.8-28.4-16.9c-20-13.2-38.8-28-56.3-44.3c-17.1-15.9-33.2-33.3-46.6-52.1c-6.2-8.6-11.7-17.6-16.5-27.1
		c-1.1-2.3-2.2-4.6-3.3-6.9c-0.2-0.5-0.4-0.9-0.6-1.4c-0.4-1-0.1-0.2-0.4-0.9c-0.5-1.2-0.9-2.3-1.4-3.5c-1.7-4.3-3.1-8.7-4.2-13.2
		c-0.5-2.1-1-4.2-1.3-6.3c-0.5-2.7-3.8-4.2-6.3-3.6C1098.5,1975.6,1097.3,1978.3,1097.8,1981L1097.8,1981z"/>
	<path class="st1" d="M1071.9,1967.2c-30,17.2-62.2,30.7-96,38.6c-27.6,6.5-56,8.8-84.2,7c-23.5-1.6-46.7-6.1-69-13.5
		c-4.9-1.6-9.8-3.4-14.7-5.3c-2.1-0.8-5-2-6.7-2.7c-1.6-0.7-4.3-1.9-6.4-2.8c-8.1-3.7-16-7.7-23.7-12.2c-6.4-3.7-12.7-7.6-18.7-11.9
		c-1.3-0.9-2.6-1.8-3.9-2.8c-0.3-0.2-0.6-0.5-0.9-0.7c-0.5-0.2-1.4-1.7,0.7,1.1c1.1,1.4,0.6,1.3,1,2.7c0.2,0.8-0.2,0.1,0.2-0.3
		c-0.7,0.9,0,0.1,0.3-0.4c2.7-4.8,7-9.1,11.2-13c2.3-2.2,4.8-4.2,7.4-6c5.4-3.7,0.3-12.5-5.1-8.8c-6,4.1-11.4,9-16.1,14.5
		c-3.1,3.6-8,8.6-7.9,13.8c0.1,4.3,5.5,6.9,8.6,9.1c3,2.1,6.1,4.1,9.2,6.1c16.2,10.1,33.3,18.6,51.2,25.2
		c22.6,8.5,46.2,14.2,70.1,16.8c28.8,3.2,58,2,86.5-3.3c34.6-6.4,67.9-18.8,98.9-35.2c4.4-2.3,8.8-4.7,13.1-7.2
		C1082.7,1972.7,1077.6,1963.9,1071.9,1967.2L1071.9,1967.2z"/>
	<path class="st1" d="M1078.9,1969c-22.8,21.7-50.6,37.5-80.4,47.7c-29.2,10-59.7,14.9-90.4,16.3c-14.8,0.7-29.6,0.6-44.4-0.3
		c-13.3-0.7-27.4-2.2-39.8-4c-21.4-3.1-42.8-7.5-63.3-14.3c-3.5-1.2-7-2.4-10.4-3.8c-0.2-0.1-1.6-0.6-0.7-0.3c1,0.4-0.6-0.3-0.6-0.3
		l0.8,0.8c1,0.7,1.5,1.9,1.5,3.2c0-0.1-0.3,1.6-0.1,1c-1,3.4-0.5,0.9-0.3,0.8c0.1-0.2,0.2-0.3,0.3-0.5c0-0.2,0.4-0.6,0.5-0.8
		c-0.8,1.4-0.1,0.2,0.2-0.2c0.7-0.9,1.5-1.7,2.3-2.5c3.8-4,7.8-7.7,11.7-11.6c3.2-3.1,7-6.2,9.4-10c1.4-2.2,1.8-5.4-0.4-7.3
		c-2-1.9-5.2-1.9-7.2,0c-1.8,1.8-2.1,5.4,0,7.2c-0.4-1.6-0.8-3.1-1.2-4.7c-0.1,0.3,0,0.1,0.2-0.4c0.1,0.2,0.3-0.9,0.1-0.3
		c-0.1,0.2-0.3,0.4-0.4,0.7c0.4-0.7,0.6-0.8,0-0.1c-0.3,0.4-0.7,0.7-1,1.1c-1.6,1.8-3.3,3.4-5,5.1c-4.1,4-8.3,7.9-12.3,12
		c-2.7,2.7-7,6.5-7,10.7c0.1,5.1,7,6.5,10.9,8c19.4,7.2,39.8,11.7,60.1,15c28.2,4.7,56.9,6.9,85.5,6.3c31.5-0.7,63.3-4.7,93.6-13.8
		c31.2-9.3,60.8-24.1,85.8-45.2c3.2-2.7,6.2-5.4,9.2-8.3C1090.8,1971.7,1083.6,1964.5,1078.9,1969L1078.9,1969z"/>
	<path class="st1" d="M1087.2,1970c-11.4,22.8-28.4,42.3-49.5,56.7c-20.8,14.1-43.5,22.9-68,28.6c-24.2,5.7-48.2,7.9-73.3,8
		c-11.9,0.1-23.7-0.4-35.5-1.3c-5.6-0.4-11.2-0.9-16.8-1.6c-2.6-0.3-5.2-0.6-7.8-0.9l-2.1-0.3l-0.9-0.1c0.2,0,1,0.1,0,0
		c-1.3-0.2-2.6-0.4-3.8-0.5c-16.6-2.3-33-5.6-49.1-10c-1.4-0.4-2.9-0.8-4.3-1.2l3.7,4.9c-0.2,1-0.2,1.3-0.1,0.7
		c-0.4,0.8-0.4,1-0.2,0.5c0.3-0.3,0.5-0.7,0.7-1.1c-0.8,1.1,0.3-0.3,0.5-0.5c0.4-0.5,0.8-0.9,1.3-1.3c2.1-2.1,4.3-4,6.7-5.8
		c3.1-2.5,7.2-5.8,11.3-7.7c2.5-1.2,3.1-4.7,1.8-7c-1.5-2.6-4.5-3-7-1.8c-5.1,2.4-9.9,6.5-14.2,10c-4.3,3.5-10.4,8-11,14
		c-0.2,2.2,1.7,4.3,3.7,4.9c15.4,4.5,31.1,7.9,47,10.3c22.6,3.6,45.4,5.6,68.3,6c25.4,0.3,51-1.5,75.9-6.6
		c25-5.1,49.6-13.6,71.4-26.9c22.7-13.7,41.7-32.9,55.2-55.7c1.7-3,3.4-6,4.9-9.1C1098.9,1969.3,1090.1,1964.2,1087.2,1970
		L1087.2,1970z"/>
	<path class="st1" d="M1088.5,1976.6c2,30.4,12.9,59.2,29,84.9c15.9,25.4,36.4,47.7,58.7,67.5c20.4,18,42.3,34.3,65.4,48.7
		c14.9,9.6,30.4,18.2,46.4,25.7c3.3,1.5,7.5,4.1,11.3,4.2c1.4,0,2.7-0.5,3.8-1.4c2.2-1.6,4.3-3.4,6.4-5.2
		c5.8-4.9,11.3-10.3,16.4-15.9c2.2-2.3,4.1-4.9,5.7-7.6c3.2-5.7-5.6-10.9-8.8-5.1c-0.6,1.1-1.3,2.1-2,3c0.5-0.6-0.9,1-1.1,1.3
		c-0.6,0.7-1.2,1.4-1.8,2c-2.6,2.8-5.3,5.5-8,8.2c-2.6,2.5-5.3,4.9-8,7.3c-1,0.9-2,1.7-3,2.6c-0.4,0.3-0.7,0.6-1.1,0.9
		c-0.8,0.7,0.8-0.6,0.2-0.2c-0.1,0.1-0.4,0.4-0.5,0.4c0,0-0.6,0.4-0.6,0.4c-0.2-0.5,2.6-0.7,2.4-0.7c-0.6,0,1.7,0.5,0.9,0.1
		c-0.4-0.2-0.9-0.3-1.4-0.4c-0.7-0.3-1.4-0.5-2.1-0.8c-1.5-0.6,0.9,0.4-0.2-0.1c-0.5-0.2-1.1-0.5-1.6-0.7
		c-14.8-6.6-29-14.7-42.8-23.1c-10.3-6.3-20.3-12.9-30.2-19.9c-11.2-7.9-20.9-15.5-31.4-24.3c-22-18.6-42.5-39.6-58.6-63.1
		c-16.4-23.7-28.4-49.8-32.4-78.5c-0.1-0.7-0.4-3-0.5-4.4c-0.2-1.8-0.3-3.7-0.5-5.5c-0.1-2.8-2.3-5-5.1-5.1
		C1091,1971.6,1088.3,1973.9,1088.5,1976.6L1088.5,1976.6z"/>
	<path class="st1" d="M1339.5,2177.7c13.2-13.5,26.1-27.3,38.5-41.5c1.9-2,1.9-5.2,0-7.2c-1.8-1.8-5.4-2.1-7.2,0
		c-12.4,14.2-25.3,28-38.5,41.5C1327.8,2175.2,1334.9,2182.4,1339.5,2177.7z"/>
	<path class="st1" d="M1108.4,1983.2c11.4,25.9,27.7,49.5,46.6,70.6c18,20.1,38.5,37.8,60.3,53.6c18.5,13.4,38.1,25.5,58.4,35.9
		c14.1,7.3,28.7,14.1,43.8,19.1c3.8,1.3,8.1,2.8,12.2,3c4.9,0.2,9.8-3.4,13.5-6.2c6.2-4.7,11.8-10.1,16.7-16.2
		c2.6-3.3,5-6.7,7.2-10.3c3.3-5.7-5.5-10.8-8.8-5.1c-4,6.6-8.8,12.7-14.5,18c-2.2,2.2-4.6,4.2-7.2,6c-1.1,0.8-2.2,1.5-3.4,2.2
		c-0.5,0.3-0.9,0.5-1.4,0.8c-0.4,0.2-1.7,0.7-0.6,0.3c-0.4,0.1-0.9,0.2-1.3,0.4c-0.7,0.5,1.1-0.4,0.2,0c-0.2,0-0.4,0-0.6,0
		c-0.9-0.1,1.3,0.3,0.8,0.1c-0.7-0.2-1.4-0.3-2.1-0.4c-2-0.4-3.9-1-5.8-1.6c-5.8-1.8-11.6-4.1-17.2-6.4c-0.4-0.2-1.3-0.5-0.3-0.1
		c-0.4-0.2-0.8-0.3-1.2-0.5c-1-0.4-1.9-0.8-2.9-1.2c-1.9-0.8-3.7-1.7-5.6-2.5c-4.1-1.9-8.1-3.8-12.1-5.8
		c-19.5-9.8-38.3-21-56.3-33.6c-21.1-14.6-40.6-31.3-58.3-49.8c-18.6-19.6-34.7-41.5-46.7-65.8c-1.5-3.1-3-6.2-4.4-9.4
		c-1.1-2.5-4.8-3.1-7-1.8C1107.6,1977.8,1107.3,1980.7,1108.4,1983.2L1108.4,1983.2z"/>
	<path class="st1" d="M768.5,1944.3c-5,4.5-9.4,9.7-13.2,15.3c-0.8,1.5-0.3,3.3,1.1,4.2c36.8,21,76.3,39.1,118.6,45.5
		c43.4,6.5,87.5-0.3,129-13.8c23.6-7.6,46.5-17.4,68.9-28c3.5-1.7,0.4-7-3.1-5.3c-38.9,18.6-79.8,34.3-122.6,40.7
		c-21.1,3.3-42.5,3.7-63.7,1.4c-20.6-2.4-40.8-7.8-60.2-15.1c-22.1-8.3-43.3-19-63.8-30.7c0.4,1.4,0.7,2.8,1.1,4.2
		c3.5-5.2,7.6-9.9,12.2-14.1C775.7,1945.9,771.4,1941.6,768.5,1944.3L768.5,1944.3z"/>
	<path class="st1" d="M779.6,1987c-5.4,4.7-9.7,10.5-12.6,17c-0.8,1.5-0.3,3.4,1.2,4.2c0.2,0.1,0.4,0.2,0.6,0.3l35.8,10.3
		c11.7,3.4,23.4,7.1,35.3,9.5c12,2.5,24.2,2.9,36.5,2.9s24.5-0.2,36.8-0.7c38.1-1.7,76.9-6.9,111.9-22.9
		c19.5-9.1,37.4-21.2,53.1-35.9c2.9-2.7-1.4-7-4.3-4.3c-13.7,12.8-29.2,23.6-45.9,32.1c-16,7.9-32.9,13.7-50.4,17.3
		c-18.6,4-37.5,6-56.4,7.2c-12.2,0.8-24.5,0.9-36.7,1.1c-12,0.1-24.2,0.4-36.2-1.4c-13-1.9-25.6-6-38.2-9.6l-39.6-11.4l1.8,4.5
		c2.7-6,6.6-11.4,11.6-15.8C786.9,1988.7,782.6,1984.4,779.6,1987L779.6,1987z"/>
	<path class="st1" d="M805.2,2031l-10.1,13.7c-0.8,1.5-0.3,3.3,1.1,4.2c0.2,0.1,0.5,0.2,0.7,0.3c36,5.4,72.5,8.4,108.9,6.8
		c26.5-1.1,53.1-4.6,78.7-11.9c18.7-5.1,36.7-12.7,53.4-22.5c11.9-7,22.8-15.4,32.6-25.1c6-5.9,11.3-12.4,16-19.4
		c0.3-0.5,0.7-1,1-1.5c2.2-3.3-3.1-6.4-5.3-3.1c-1.6,2.5-3.4,5-5.2,7.4c-0.4,0.6,0.4-0.5-0.1,0.1c-0.1,0.2-0.3,0.4-0.4,0.6
		c-0.3,0.4-0.6,0.8-1,1.2c-0.7,0.8-1.3,1.6-2,2.4c-1.5,1.8-3.1,3.6-4.8,5.3c-8.6,9.1-18.4,17.1-29,23.7c-15.4,9.7-32,17.3-49.3,22.6
		c-23.9,7.6-48.8,11.6-73.8,13.4c-34.4,2.4-69.1,0.5-103.3-3.9c-5-0.6-10-1.3-14.9-2.1c0.6,1.5,1.2,3,1.8,4.5l10.1-13.7
		C812.8,2030.9,807.5,2027.9,805.2,2031L805.2,2031z"/>
	<path class="st1" d="M1132.9,2002.6c24.2,28.4,50.8,54.6,79.5,78.5c14.2,11.8,28.7,23.5,44.5,33.2c16,9.8,33.5,16.1,51.7,20.8
		c5.1,1.3,10.3,2.5,15.4,3.7c4.7,1.1,10.1,3,15,2.4c3.9-0.5,6.9-2.8,9.4-5.6c2.3-2.5,4.4-6.1,7.7-7.4c3.6-1.5,2-7.4-1.6-5.9
		c-3,1.3-5.6,3.3-7.7,5.8c-1.9,2.2-3.7,4.9-6.3,6.3c-3.6,2-8.4,0-12.1-0.8c-4.6-1-9.1-2.1-13.6-3.2c-17.8-4.4-35.2-9.9-51.2-19.2
		c-15.5-9-29.8-20.3-43.6-31.7c-14-11.6-27.6-23.7-40.7-36.4c-14.7-14.3-28.7-29.2-42.1-44.8
		C1134.7,1995.3,1130.4,1999.6,1132.9,2002.6L1132.9,2002.6z"/>
	<path class="st1" d="M1086.1,1981.9c2.7,38.4,15.1,75.5,36.1,107.7c21.5,33.2,51.3,60.3,86.3,78.7c24.7,13.1,50,25.1,75,37.6
		c1.5,0.8,3.3,0.3,4.2-1.1l4.6-6.8c2.2-3.3-3.1-6.3-5.3-3.1c-1.5,2.3-3.1,4.5-4.6,6.8l4.2-1.1c-21.8-10.9-43.7-21.7-65.5-32.7
		c-18.5-9.3-36.1-19.8-51.9-33.3c-28.5-24.7-50.4-56-63.6-91.3c-7.4-19.7-12-40.4-13.4-61.4C1092,1978,1085.8,1978,1086.1,1981.9
		L1086.1,1981.9z"/>
	<path class="st1" d="M1187.1,1814.7c16.8-21.6,35.2-41.8,52.6-62.8c4.4-5.3,8.7-10.6,12.9-16c2.2-3,5.5-5.1,9.2-5.8
		c6.7-1.5,16.3,0.3,19.2,7.5c2.9,7.2-4.8,15.5-9.2,20.3c-3,3.3-6.2,6.5-9.2,9.8c-2.7,3-5.2,6.3-7.5,9.6
		c-12.5,17.6-24.6,36-40.8,50.5c-4.2,3.8-8.8,7.2-13.8,9.9c-2.9,1.6-6.4,1.8-9.5,0.5c-3.4-1.3-6-4-7.2-7.4c-1.7-5,0.1-10.2,2.6-14.6
		c1.9-3.4-3.3-6.5-5.3-3.1c-4.8,8.5-6.2,19.7,1.6,26.9c2.9,2.7,6.6,4.5,10.6,4.9c4.4,0.5,8.2-0.8,12-3.1
		c9.9-5.9,18.3-14.2,25.9-22.8c8-9.2,15.2-19.1,22.2-29c3.2-4.5,6.4-9.1,9.7-13.6c2.6-3.4,5.5-6.5,8.5-9.5
		c6.3-6.6,14.4-14.4,15.8-23.9c1.4-9.4-6.2-16.8-14.9-18.8c-9.4-2.2-19,0.6-24.9,8.2c-20.8,26.7-44.2,51.3-64.9,78.1
		C1180.4,1813.5,1184.7,1817.8,1187.1,1814.7L1187.1,1814.7z"/>
	<path class="st1" d="M1128,1861.7c14.2,0.8,29.6,5.1,41.6,12.9c7.1,4.6,13.9,9.8,20.6,14.9c1.7,1.3,3.3,2.6,4.9,3.9
		c0.5,0.5,1.1,0.9,1.6,1.4c0.1,0.2,0.3,0.3,0.5,0.5c0.3,0.2,0.1,0,0-0.1c-0.2-0.2-0.2-0.3-0.1-0.2c0.7,1.2,1.1-0.1,1.1-3.9
		c-3.3,2-0.3,7.3,3.1,5.3c4.1-2.5-0.5-6.2-2.6-8c-3.9-3.3-8-6.3-12.1-9.4c-3.9-2.9-7.9-5.8-12-8.6c-4.9-3.2-10.2-5.9-15.7-8
		c-9.8-4-20.2-6.3-30.7-6.9C1124.1,1855.3,1124.1,1861.4,1128,1861.7L1128,1861.7z"/>
	<path class="st1" d="M1120.7,1872.2c19.1,3.3,37.1,10.8,53,21.9c5.1,3.6,11.5,7.6,14.3,13.3c1.7,3.5,7,0.4,5.3-3.1
		c-3-6-9.1-10.2-14.4-14c-5.6-4-11.5-7.7-17.6-10.8c-12.3-6.3-25.4-10.7-39-13.2C1118.5,1865.6,1116.9,1871.5,1120.7,1872.2
		L1120.7,1872.2z"/>
	<path class="st1" d="M219.1,966.7c-38.5,10.2-46.8,18.5-57,57c-10.2-38.5-18.5-46.8-57-57c38.5-10.2,46.8-18.5,57-57
		C172.3,948.2,180.6,956.5,219.1,966.7z"/>
	<path class="st1" d="M102.7,1016.3c-17.9,4.7-21.7,8.6-26.4,26.4c-4.7-17.9-8.6-21.7-26.4-26.4c17.9-4.7,21.7-8.6,26.4-26.4
		C81,1007.7,84.9,1011.6,102.7,1016.3z"/>
	<path class="st1" d="M98.2,932.6h-9v-9c0-2.7-4.1-2.7-4.1,0v9h-8.4c-2.7,0-2.7,4.1,0,4.1h8.4v7.8c0,2.7,4.1,2.7,4.1,0v-7.8h9
		C100.9,936.7,100.9,932.6,98.2,932.6z"/>
	<path class="st1" d="M145.9,1080.7h-9v-9c0-2.7-4.1-2.7-4.1,0v9h-8.4c-2.7,0-2.7,4.1,0,4.1h8.4v7.8c0,2.7,4.1,2.7,4.1,0v-7.8h9
		C148.6,1084.9,148.6,1080.7,145.9,1080.7z"/>
	<path class="st1" d="M1443.2,340.6c17.8-5.4,21.5-9.4,25.7-27.5c5.4,17.8,9.4,21.5,27.5,25.7c-17.8,5.4-21.5,9.4-25.7,27.5
		C1465.4,348.5,1461.4,344.8,1443.2,340.6z"/>
	<path class="st1" d="M1484.3,286.2c8.3-2.5,10-4.3,11.9-12.7c2.5,8.3,4.3,10,12.7,11.9c-8.3,2.5-10,4.3-11.9,12.7
		C1494.5,289.9,1492.7,288.1,1484.3,286.2z"/>
	<path class="st1" d="M1495.4,317.7l4.2-0.1l0.1,4.2c0,0.5,0.5,0.9,1,0.9c0.5,0,0.9-0.5,0.9-1l-0.1-4.2l3.9-0.1c0.5,0,0.9-0.5,0.9-1
		c0-0.5-0.5-0.9-1-0.9l-3.9,0.1l-0.1-3.6c0-0.5-0.5-0.9-1-0.9c-0.5,0-0.9,0.5-0.9,1l0.1,3.6l-4.2,0.1c-0.5,0-0.9,0.5-0.9,1
		C1494.5,317.3,1494.9,317.7,1495.4,317.7z"/>
	<path class="st1" d="M1441.3,299.1l4.2-0.1l0.1,4.2c0,0.5,0.5,0.9,1,0.9c0.5,0,0.9-0.5,0.9-1l-0.1-4.2l3.9-0.1c0.5,0,0.9-0.5,0.9-1
		c0-0.5-0.5-0.9-1-0.9l-3.9,0.1l-0.1-3.6c0-0.5-0.5-0.9-1-0.9c-0.5,0-0.9,0.5-0.9,1l0.1,3.6l-4.2,0.1c-0.5,0-0.9,0.5-0.9,1
		C1440.3,298.7,1440.8,299.1,1441.3,299.1z"/>
	<path class="st1" d="M964.3,22.2c-0.7-1.2-2.2-1.6-3.4-0.9c-16,11.4-27,28.7-30.5,48c-1,5.4-1.4,11-1.1,16.5c0.2,3.2,5.2,3.2,5,0
		c-0.8-18.3,5.5-36.2,17.7-49.9c3.4-3.9,7.2-7.3,11.4-10.3C964.5,24.9,964.9,23.4,964.3,22.2z"/>
	<path class="st1" d="M1451.4,391.2c-0.8-3.1-5.6-1.8-4.8,1.3c0.5,1.8,0.5,3.8,0.2,5.7c-0.4,2-1.2,3.9-2.3,5.5
		c-0.5,0.8-1.1,1.5-1.7,2.2c-0.7,0.7-1.4,1.3-2.2,1.9c-1.7,1.2-3.6,1.9-5.7,2.2c-1.3,0.4-2.1,1.7-1.7,3.1c0.4,1.3,1.7,2.1,3.1,1.7
		C1446.8,413.1,1454.1,401.4,1451.4,391.2z"/>
	<path class="st1" d="M1014,1106.1c-0.4-1.3-1.7-2.1-3.1-1.7c-1.3,0.4-2.1,1.7-1.7,3.1c2.3,11.9-0.3,24.2-7.2,34.1
		c-0.7,1.2-0.3,2.7,0.9,3.4c1.2,0.7,2.7,0.3,3.4-0.9C1013.9,1133,1016.7,1119.3,1014,1106.1z"/>
	<path class="st1" d="M387.2,1453c-8,0.8-15.7-2-22.2-6.6c-6.8-4.8-12-11.6-16.4-18.7c-2.6-4.2-5-8.6-7.3-12.9
		c-1.5-2.8-5.8-0.3-4.3,2.5c8.5,15.7,18.1,32.4,35.8,38.8c4.6,1.7,9.5,2.3,14.4,1.9c1.4,0,2.5-1.1,2.5-2.5
		C389.7,1454.1,388.5,1453,387.2,1453z"/>
	<path class="st1" d="M709.2,1882.9c-14.1,16.2-20.8,37.5-18.3,58.9c0.7,6,2.1,11.8,4.2,17.4c0.4,1.3,1.7,2.1,3.1,1.7
		c1.3-0.4,2.1-1.7,1.7-3.1c-7-18.8-5.8-39.7,3.4-57.5c2.6-5,5.7-9.7,9.5-13.9C714.9,1884.1,711.4,1880.5,709.2,1882.9z"/>
	<path class="st1" d="M741.9,1859.6c-0.7-1.2-2.2-1.6-3.4-0.9l-7.5,4.5c-1.2,0.7-1.6,2.2-0.9,3.4c0.7,1.2,2.2,1.6,3.4,0.9l7.5-4.5
		C742.2,1862.3,742.6,1860.8,741.9,1859.6z"/>
	<path class="st1" d="M1591.8,1844.9c-2.1-4.6-4.7-8.9-7.9-12.8c-1-1-2.6-1-3.5,0c-0.9,1-0.9,2.5,0,3.5
		c10.1,12.5,13.9,29.8,10.9,45.4c-0.9,4.5-2.3,8.8-4.2,12.9c-0.7,1.2-0.3,2.7,0.9,3.4c1.2,0.7,2.7,0.3,3.4-0.9
		C1599,1880.2,1599.2,1861.3,1591.8,1844.9z"/>
	<path class="st1" d="M1578.9,1918.8c-1.2-0.7-2.7-0.3-3.4,0.9c-0.6,1.3-1.2,2.5-2,3.7c-0.4,0.6-0.8,1.3-1.2,1.9
		c-0.2,0.3-0.4,0.5-0.6,0.8c-0.1,0.1-0.2,0.3-0.3,0.4l-0.1,0.1c0,0,0,0,0,0c-1.8,2.2-3.8,4.2-6,6c-1,1-1,2.6,0,3.5c0,0,0,0,0,0
		c1,0.9,2.5,0.9,3.5,0c4.7-3.7,8.5-8.5,10.9-14C1580.5,1921,1580.1,1919.5,1578.9,1918.8z"/>
	<path class="st1" d="M993.8,1052c2.8,7.3,4.9,14.8,6.1,22.5c0.4,1.3,1.7,2.1,3.1,1.7c1.3-0.4,2.1-1.7,1.7-3.1
		c-1.3-7.7-3.3-15.2-6.1-22.5c-0.4-1.3-1.7-2.1-3.1-1.7C994.2,1049.3,993.5,1050.7,993.8,1052z"/>
	<path class="st1" d="M930.9,107l1,7.8c0.2,0.6,0.6,1.2,1.1,1.5c1.2,0.7,2.7,0.3,3.4-0.9c0,0,0,0,0,0l0.3-0.6c0.1-0.4,0.1-0.9,0-1.3
		l-1-7.8c-0.2-0.6-0.6-1.2-1.1-1.5c-1.2-0.7-2.7-0.3-3.4,0.9c0,0,0,0,0,0l-0.3,0.6C930.8,106.1,930.8,106.5,930.9,107z"/>
	<path class="st1" d="M935.5,125.9c3.2,0,3.2-5,0-5S932.3,125.9,935.5,125.9z"/>
</g>
</svg>
