<svg id="Layer_1" data-name="Layer 1" xmlns="http://www.w3.org/2000/svg" viewBox="0 0 1597.238 2207.627"><defs><style>.cls-1{fill:#fff;}.cls-2{fill:#400705;}</style></defs><g id="Layer_1-2" data-name="Layer 1"><path class="cls-1" d="M942.885,1050.067c-22.563-38.254-47.634-74.963-73.3-111.186-14.2-20.046-28.606-39.95-42.9-59.93-1.585-2.215-4.42-3.344-6.957-1.824a162.277,162.277,0,0,1-55.716,20.459c-19.34,3.407-39.051,4.185-58.593,5.782-10.39.849-20.783,1.747-31.006,3.861a179.636,179.636,0,0,0-27.843,8.235,220.542,220.542,0,0,0-53.42,29.562,206.993,206.993,0,0,0-46.93,48.289,5.578,5.578,0,0,0-4.962,4.7,344.5,344.5,0,0,0-140.867-18.752c-47.964,3.8-95.15,18.046-136.3,43.176a282.441,282.441,0,0,0-63.312,52.74c-3.587,4.014.659,9.608,4.711,8.707,1.735,2.859,3.453,5.729,5.185,8.59.217.8.444,1.6.644,2.411.762,3.068,1.408,6.164,1.957,9.276.647,3.668.941,5.784,1.288,9.177a108.387,108.387,0,0,1,.348,20.519c-.065.738-.146,1.474-.228,2.21-.012.111-.051.389-.076.568-.034.235-.068.469-.107.7-.259,1.514-.544,3.02-.923,4.509-.32,1.256-.691,2.5-1.134,3.718q-.182.5-.379.986c-.013.026-.019.04-.034.071-.28.591-.563,1.18-.88,1.753-.366.663-.776,1.288-1.19,1.921-.131.2-.189.3-.223.365a4.268,4.268,0,0,0-.325.312c-.45.463-.913.9-1.37,1.36-.032.032-.073.068-.117.1-.214.151-.426.3-.649.443-.356.224-.731.408-1.1.6.046-.064-1.2.454-1.524.537-.265.068-1.075.177-1.291.22-.64.041-1.276.076-1.921.06-4.337-.106-5.781,4.313-4.371,7.36a4.336,4.336,0,0,0-.019,5.133q38.236,58.921,74.428,119.137,37.082,61.579,72.187,124.32,19.584,35.005,38.513,70.372c2.352,4.395,7.99,2.465,9.189-1.253,0,.384-.025.767-.029,1.151-.034,3.71,3.218,5.314,6.053,4.819a4.348,4.348,0,0,0,4.062-.428c35.894-26.636,69.794-55.921,106.823-81.028a363.686,363.686,0,0,1,57.263-32.161,343.236,343.236,0,0,1,68.386-22.223,252.362,252.362,0,0,1,80.259-4.105c2.733.315,5.085-2.562,5.085-5.085,0-.1-.024-.192-.029-.291a4.883,4.883,0,0,0,1.978.4c2.529,0,5.37-2.336,5.085-5.085-.04-.387-.107-.771-.151-1.157,23.8-27.514,54.862-47.947,86.406-65.515,16.256-9.054,32.9-18.229,50.232-25.067,16.872-6.659,34.513-10.8,52.406-13.582,20.914-3.251,42.008-5.17,62.9-8.612a4.226,4.226,0,0,0,2.888-2.137,29.617,29.617,0,0,0,2.626,2.191c2.211,1.633,5.676.367,6.957-1.824,1.512-2.585.391-5.32-1.824-6.957a17.438,17.438,0,0,1-6.432-15.673,27.645,27.645,0,0,1,1.139-4c.117-.27.646-1.3.97-1.854q.345-.6.729-1.168c.073-.11.464-.67.443-.661a17.012,17.012,0,0,1,7.53-5.676c2.524-1.083,3.088-4.8,1.824-6.957a4.669,4.669,0,0,0-3.866-2.391c.026-.08.066-.147.089-.229a4.539,4.539,0,0,0,.145-.908,4.883,4.883,0,0,0,4.6,1.083c2.5-.688,4.476-3.655,3.551-6.255C984.809,1126.827,965.056,1087.655,942.885,1050.067Zm-240.82,249.116a3.919,3.919,0,0,0,1.136,1.391c-1.183-.178-2.364-.365-3.549-.526a4.28,4.28,0,0,0,2.264-1.177C701.965,1298.976,702.016,1299.079,702.065,1299.183Zm-494.2-146.688c-.229.182-.461.33,0,0Z" transform="translate(-52.065 -87.689)"/><path class="cls-2" d="M545.564,999.534a344.832,344.832,0,0,0-145.173-20.265c-47.964,3.8-95.15,18.046-136.3,43.176a282.441,282.441,0,0,0-63.312,52.74c-4.349,4.867,2.819,12.083,7.191,7.191a277.814,277.814,0,0,1,116.879-77.282c44.635-15.329,92.5-19.831,139.332-14.539a340.174,340.174,0,0,1,78.681,18.787c2.579.945,5.57-1.059,6.255-3.551a5.192,5.192,0,0,0-3.551-6.257Z" transform="translate(-52.065 -87.689)"/><path class="cls-2" d="M204.97,1083.033q39.423,64.925,77.464,130.675t74.66,132.3q20.586,37.4,40.722,75.052a5.132,5.132,0,0,0,7.986,1.029c30.292-30.606,62.862-59.316,99.068-82.771,36.022-23.335,76.606-42.174,119.74-46.578a181.529,181.529,0,0,1,72.654,7.146c6.262,1.952,8.941-7.862,2.7-9.806-43.262-13.487-89.248-9.784-131.488,5.583-42.708,15.537-81.126,41.007-116.035,69.759A720.231,720.231,0,0,0,398.61,1414.9l7.986,1.029q-35.827-66.977-73.069-133.182t-75.892-131.594q-21.723-36.754-43.885-73.248c-3.391-5.586-12.189-.481-8.78,5.133Z" transform="translate(-52.065 -87.689)"/><path class="cls-2" d="M541.837,1000.959c20.024,38.487,41.243,76.33,62.521,114.134,21.452,38.113,42.908,76.232,63.205,114.978q17.923,34.217,34.5,69.113c1.174,2.482,4.734,3.124,6.957,1.824,2.541-1.486,3-4.465,1.824-6.957-19.227-40.659-40.139-80.483-61.823-119.879-20.879-37.933-42.42-75.5-63.4-113.373-11.92-21.521-23.65-43.148-35-64.973-3.022-5.808-11.8-.672-8.781,5.133Z" transform="translate(-52.065 -87.689)"/><path class="cls-2" d="M554.648,998.944c21.867-32.179,55.009-57.625,90.947-72.221a184.232,184.232,0,0,1,27.8-8.872,202.436,202.436,0,0,1,28.56-4.023c20.113-1.719,40.336-2.582,60.3-5.7a172.787,172.787,0,0,0,62.6-22.223l-6.957-1.824c25.415,35.519,51.159,70.815,75.55,107.053,24.618,36.575,47.959,74.132,67.752,113.564a582.944,582.944,0,0,1,28.446,65.992,5.214,5.214,0,0,0,6.255,3.551c2.5-.688,4.476-3.655,3.551-6.255-14.648-41.164-34.4-80.336-56.572-117.923-22.563-38.254-47.634-74.963-73.3-111.186-14.2-20.046-28.606-39.95-42.9-59.93-1.585-2.215-4.42-3.344-6.957-1.824a162.279,162.279,0,0,1-55.715,20.459c-19.34,3.407-39.051,4.185-58.593,5.782-10.39.849-20.783,1.747-31.006,3.861a179.636,179.636,0,0,0-27.843,8.235,220.518,220.518,0,0,0-53.419,29.562c-18.226,13.682-34.451,29.9-47.283,48.785-3.688,5.427,5.12,10.521,8.781,5.133Z" transform="translate(-52.065 -87.689)"/><path class="cls-2" d="M716.74,1296.962c29.122-26.925,61.01-50.546,94.7-71.438,16.862-10.456,34-20.688,52.087-28.908a247.269,247.269,0,0,1,55.939-17.962c21.512-4.092,43.83-4.791,65.443-1.034,2.7.47,5.478-.724,6.255-3.551.673-2.45-.831-5.782-3.551-6.255-40.535-7.045-82.037.222-119.742,15.911-19.086,7.942-37,18.083-54.651,28.781-17.2,10.42-34,21.49-50.235,33.359a602.115,602.115,0,0,0-53.434,43.906c-4.816,4.453,2.389,11.631,7.191,7.191Z" transform="translate(-52.065 -87.689)"/><path class="cls-2" d="M206.732,1081.242c.232.461.449.927.669,1.393.093.2.176.4.267.6.472,1.035-.323-.815-.047-.107.457,1.171.905,2.343,1.311,3.534.921,2.7,1.7,5.458,2.387,8.231.762,3.068,1.408,6.164,1.957,9.276.647,3.668.94,5.784,1.288,9.177a108.387,108.387,0,0,1,.348,20.519c-.065.738-.146,1.474-.228,2.21-.027.242-.181,1.3-.039.328-.046.314-.091.63-.144.943-.259,1.514-.544,3.02-.923,4.509-.32,1.256-.691,2.5-1.134,3.718q-.211.583-.445,1.158c.066-.163.434-.947.032-.1-.28.591-.563,1.18-.88,1.753-.366.663-.776,1.288-1.19,1.921-.726,1.107.391-.289-.548.677-.45.463-.913.9-1.37,1.36-.234.233-.93.682.087-.035-.282.2-.56.4-.853.582a16.8,16.8,0,0,1-1.516.822c1.294-.64-.7.206-1.111.313s-2.213.319-.837.206a22.136,22.136,0,0,1-2.375.074c-6.547-.16-6.544,10.009,0,10.169,14.184.348,21.032-12.555,22.943-24.892,2.28-14.724.658-30.109-2.589-44.569a81.841,81.841,0,0,0-6.278-18.9c-2.943-5.848-11.719-.7-8.782,5.132Z" transform="translate(-52.065 -87.689)"/><path class="cls-2" d="M197.046,1166.8q38.237,58.921,74.428,119.137,37.082,61.579,72.187,124.32,19.584,35.005,38.513,70.372c3.089,5.773,11.871.642,8.781-5.133q-33.685-62.959-69.453-124.776-35.807-61.954-73.572-122.751-20.733-33.351-42.1-66.3c-3.55-5.47-12.357-.378-8.781,5.133Z" transform="translate(-52.065 -87.689)"/><path class="cls-2" d="M395.831,1417.973c-1.238,20.846-4.307,41.647-4.5,62.548-.059,6.545,10.11,6.551,10.169,0,.189-20.9,3.257-41.7,4.5-62.548.389-6.537-9.782-6.515-10.169,0Z" transform="translate(-52.065 -87.689)"/><path class="cls-2" d="M401.45,1484.911c35.894-26.636,69.794-55.921,106.823-81.028a363.686,363.686,0,0,1,57.263-32.161,343.236,343.236,0,0,1,68.386-22.223,252.362,252.362,0,0,1,80.259-4.105c2.732.315,5.085-2.562,5.085-5.085,0-3.01-2.344-4.769-5.085-5.085-48.734-5.61-98.126,4.692-143.164,23.2a359.475,359.475,0,0,0-59.657,31.218c-19.388,12.61-37.87,26.556-56.132,40.728-19.643,15.244-38.941,30.943-58.911,45.762-2.2,1.634-3.318,4.4-1.824,6.957,1.27,2.17,4.739,3.469,6.957,1.823Z" transform="translate(-52.065 -87.689)"/><path class="cls-2" d="M705.474,1299.166a23.189,23.189,0,0,1,1.323,2.312c.258.507.5,1.022.74,1.539.132.286.822,1.875.443.97,1.247,2.971,2.313,6.022,3.281,9.094a114.145,114.145,0,0,1,4.869,22.256c.284,2.731,2.134,5.085,5.085,5.085,2.529,0,5.37-2.336,5.085-5.085a126.556,126.556,0,0,0-5.232-24.959c-1.732-5.494-3.6-11.5-6.812-16.344a5.2,5.2,0,0,0-6.957-1.824,5.135,5.135,0,0,0-1.825,6.956Z" transform="translate(-52.065 -87.689)"/><path class="cls-2" d="M724.811,1335.7c23.96-28.3,55.614-49.144,87.744-67.04,16.256-9.054,32.9-18.229,50.232-25.067,16.872-6.659,34.513-10.8,52.406-13.582,20.914-3.251,42.007-5.17,62.9-8.612,2.712-.447,4.224-3.807,3.552-6.255-.791-2.879-3.535-4-6.255-3.551-36.8,6.064-74.663,7.343-110.026,20.194-18.044,6.557-35.173,15.685-52.015,24.835a475.423,475.423,0,0,0-48.628,29.911c-17.167,12.2-33.455,25.866-47.1,41.976a5.221,5.221,0,0,0,0,7.191c1.819,1.82,5.407,2.106,7.19,0Z" transform="translate(-52.065 -87.689)"/><path class="cls-2" d="M987.983,1174.865c-8.742,3.749-14.695,12.4-15.8,21.733-1.154,9.741,3.693,19.15,11.421,24.857,2.21,1.633,5.675.367,6.957-1.824,1.512-2.585.392-5.32-1.824-6.957A17.436,17.436,0,0,1,982.305,1197a27.773,27.773,0,0,1,1.139-4c.117-.27.646-1.3.97-1.854q.346-.6.729-1.168c.092-.138.7-1,.338-.531a17,17,0,0,1,7.635-5.806c2.524-1.083,3.088-4.8,1.824-6.957-1.527-2.611-4.423-2.912-6.957-1.825Z" transform="translate(-52.065 -87.689)"/><path class="cls-2" d="M212.549,1154.073q37.61,59.877,72.9,121.17,35.151,61.071,67.927,123.468,18.482,35.184,36.195,70.765c1.167,2.343,4.677.285,3.512-2.053q-31.519-63.294-65.459-125.345-33.82-61.818-70.01-122.3-20.406-34.1-41.551-67.759c-1.388-2.212-4.909-.173-3.511,2.053Z" transform="translate(-52.065 -87.689)"/><path class="cls-2" d="M220.271,1145.714c24.154,38.58,47.177,77.858,69.577,117.479,22.73,40.2,44.814,80.768,66.657,121.458q18.017,33.561,35.881,67.2c1.231,2.312,4.743.259,3.512-2.053-21.4-40.192-42.809-80.376-64.628-120.341-22.127-40.527-44.659-80.839-68.043-120.657q-19.282-32.835-39.444-65.142c-1.385-2.214-4.906-.175-3.512,2.053Z" transform="translate(-52.065 -87.689)"/><path class="cls-2" d="M220.7,1128.467c23.483,39.265,47.613,78.136,71.3,117.279,23.335,38.563,46.186,77.433,67.491,117.162q18.755,34.973,35.8,70.823c1.12,2.364,4.629.3,3.512-2.053-19.8-41.768-41.586-82.548-64.609-122.62-22.4-38.985-45.9-77.322-69.353-115.676-13.623-22.274-27.226-44.56-40.627-66.968-1.341-2.245-4.859-.2-3.511,2.053Z" transform="translate(-52.065 -87.689)"/><path class="cls-2" d="M403.658,1433.384c34.177-30.219,68.163-61.11,106.921-85.46,38.695-24.31,81.869-40.522,127.506-44.964a260.343,260.343,0,0,1,76.272,3.642c2.556.512,3.65-3.408,1.081-3.922-45.02-9.016-92.075-5.675-135.768,8.182-44.235,14.028-83.3,39.364-119.226,68.257-20.458,16.455-40,34-59.662,51.389-1.966,1.737.92,4.605,2.876,2.876Z" transform="translate(-52.065 -87.689)"/><path class="cls-2" d="M400.369,1449.6c32.171-31.678,67.208-60.682,105.716-84.368a415.879,415.879,0,0,1,59.664-30.655c21.6-8.876,43.92-16.084,67.292-18.117,27.286-2.373,54.675.5,82,.359,2.617-.013,2.622-4.081,0-4.068-24.718.126-49.44-2.19-74.152-.9a189.092,189.092,0,0,0-36.3,5.2A282.982,282.982,0,0,0,571.82,1327.8c-42.107,16.273-80.894,40.15-116.407,67.849a670.382,670.382,0,0,0-57.919,51.072c-1.87,1.839,1.007,4.715,2.875,2.876Z" transform="translate(-52.065 -87.689)"/><path class="cls-2" d="M401.9,1464.944c27.273-35.544,65.737-61.453,103.522-84.631,40-24.534,82.925-43.907,129.3-52.44,26.718-4.916,54.392-5.567,80.758,1.656,2.528.693,3.607-3.231,1.081-3.922-23.506-6.439-48.04-6.769-72.069-3.415a317.652,317.652,0,0,0-70.863,18.911c-21.942,8.542-42.926,19.365-63.144,31.4a654.047,654.047,0,0,0-57.759,38.378c-20.148,15.1-38.97,31.983-54.34,52.014-1.592,2.075,1.94,4.1,3.513,2.052Z" transform="translate(-52.065 -87.689)"/><path class="cls-2" d="M720.048,1308.156c11.106-15.95,26.166-28.888,41.692-40.378s31.87-21.9,48.25-32.091c33.969-21.139,71.885-37.335,111.155-45.378,19.456-3.985,39.632-5.906,59.4-3.3,2.587.341,2.562-3.73,0-4.068-17.781-2.343-35.888-.98-53.492,2.113a305.937,305.937,0,0,0-57.65,16.49,372.142,372.142,0,0,0-55.843,27.2c-16.768,10-33.306,20.727-49.175,32.1-17.849,12.788-35.215,27.108-47.855,45.261-1.5,2.153,2.026,4.188,3.513,2.053Z" transform="translate(-52.065 -87.689)"/><path class="cls-2" d="M720.784,1320.6c25.611-27.61,53.75-53.071,85.222-73.866,32.4-21.406,68.275-37.669,106.365-45.7a243.077,243.077,0,0,1,65.944-4.881l-1.026-3.79-4.666,2.661c-2.274,1.3-.227,4.813,2.053,3.512l4.666-2.661c1.84-1.05.909-3.664-1.026-3.79-39.8-2.6-79.784,5.292-116.577,20.368-35.514,14.552-67.934,35.678-97.179,60.4a535.229,535.229,0,0,0-46.651,44.862c-1.78,1.919,1.09,4.8,2.875,2.878Z" transform="translate(-52.065 -87.689)"/><path class="cls-2" d="M723.55,1326.6c25.867-25.772,53.763-49.667,84.564-69.378,31.469-20.138,65.938-35.754,102.471-43.976a249.515,249.515,0,0,1,63.25-6.114c2.618.089,2.615-3.979,0-4.068-38.253-1.3-76.373,6.807-111.683,21.29-34.339,14.085-65.889,34.086-94.774,57.276a587.3,587.3,0,0,0-46.705,42.094c-1.856,1.85,1.02,4.726,2.877,2.876Z" transform="translate(-52.065 -87.689)"/><path class="cls-2" d="M289.492,1120.673q24.99-10.185,50.035-20.234c15.31-6.125,30.594-12.5,46.181-17.894.907-.314,1.817-.628,2.736-.9.307-.093,1.358-.19,1.57-.413-.223.236-.814-.178-1.112-.182-.526-.008-.149-.376.036.1.1.254.434.525.231.264.236.3.453.621.67.937,2.9,4.2,5.326,8.764,7.79,13.227,8.057,14.588,15.655,29.437,23.132,44.329,3.392,6.756,6.75,13.529,10.018,20.345,1.853,3.865,4.1,8.284,5.409,11.843a5.2,5.2,0,0,0,.227.631c.221.416-.049.312.1.235.087-.045.249-1.873.836-1.753-.077-.016-.3.2-.384.222a34.905,34.905,0,0,0-3.706,1.726c-5.13,2.264-10.322,4.389-15.512,6.509q-23.137,9.45-46.554,18.206c-6.912,2.572-13.844,5.1-20.849,7.409-2.442.8-4.894,1.589-7.373,2.274-.93.257-1.864.505-2.807.709-.341.074-.682.143-1.026.2-.7.125.052-.029-.484.066-.11.019-.532-.05-.6.013.21-.183.412.268.914.443-.337-.118.058.152-.03-.019a8,8,0,0,0-.487-.707c-1.155-1.744-2.232-3.54-3.309-5.333-4.086-6.8-8.017-13.7-11.907-20.621-9.792-17.411-19.447-34.987-27.9-53.1-1.558-3.337-3.069-6.7-4.422-10.123-.95-2.407-4.886-1.358-3.922,1.081,7.132,18.06,16.773,35.252,26.1,52.244q6.952,12.67,14.192,25.181c2.591,4.462,5.06,9.142,8.083,13.336,1.94,2.691,5.238,1.465,7.978.736,5.871-1.561,11.622-3.62,17.342-5.652,16.363-5.813,32.55-12.135,48.666-18.6,6.684-2.68,13.355-5.391,19.99-8.19,3.207-1.352,7.04-2.477,9.949-4.44,2.65-1.788.12-5.559-.834-7.695-2.51-5.618-5.223-11.149-7.932-16.673q-11.569-23.582-23.9-46.786c-3.261-6.119-6.549-12.234-10.07-18.209-1.082-1.836-2.17-3.685-3.4-5.427-.765-1.082-1.638-2.521-3.054-2.757-1.26-.21-2.8.485-3.966.87-2.506.826-4.982,1.745-7.454,2.665-8.068,3-16.081,6.155-24.087,9.318q-28.283,11.172-56.429,22.687-4.875,1.982-9.748,3.968c-2.39.978-1.344,4.915,1.083,3.925Z" transform="translate(-52.065 -87.689)"/><path class="cls-2" d="M297.449,1067.31c12.633-7.49,26.345-13.132,40.025-18.388s27.535-9.981,41.42-14.633c2.47-.827,1.411-4.757-1.081-3.922-14.146,4.74-28.271,9.559-42.193,14.931-13.739,5.3-27.53,10.974-40.223,18.5-2.251,1.334-.207,4.851,2.052,3.512Z" transform="translate(-52.065 -87.689)"/><path class="cls-2" d="M311.555,1078.11a69.116,69.116,0,0,1,10.021-5.675c5.3-2.637,10.7-5.07,16.126-7.427,11.541-5.012,23.254-9.719,35.157-13.806a87.606,87.606,0,0,1,13.174-3.825c2.574-.45,1.483-4.371-1.081-3.922-9.6,1.678-19.052,5.81-28.082,9.317-11.881,4.614-23.69,9.526-35.165,15.081a78.585,78.585,0,0,0-12.2,6.745c-2.1,1.526-.067,5.058,2.053,3.512Z" transform="translate(-52.065 -87.689)"/><path class="cls-2" d="M421.4,1094.01c34.828-16.088,72.623-28,111-31.08,2.592-.208,2.614-4.277,0-4.068-31.123,2.5-61.682,10.769-90.695,22.107q-11.32,4.423-22.359,9.528c-2.374,1.1-.31,4.605,2.053,3.513Z" transform="translate(-52.065 -87.689)"/><path class="cls-2" d="M426.377,1113.317c27.224-12.622,55.746-23.464,85.106-29.911a192.156,192.156,0,0,1,23.936-3.828c2.586-.233,2.611-4.3,0-4.068-30.483,2.749-60.338,12.965-88.517,24.465q-11.4,4.653-22.579,9.83c-2.372,1.1-.308,4.607,2.054,3.512Z" transform="translate(-52.065 -87.689)"/><path class="cls-2" d="M438.874,1136.415a300.1,300.1,0,0,1,81.651-29.882,164.145,164.145,0,0,1,23.223-3.157c2.6-.151,2.62-4.22,0-4.068-29.474,1.709-58.718,11.507-85.59,23.253-7.245,3.167-14.375,6.594-21.338,10.342-2.305,1.241-.253,4.754,2.054,3.512Z" transform="translate(-52.065 -87.689)"/><path class="cls-2" d="M455.983,1154.142a176.2,176.2,0,0,1,51.263-19.158c2.563-.525,1.478-4.447-1.081-3.922a179.791,179.791,0,0,0-52.234,19.568c-2.281,1.286-.233,4.8,2.052,3.512Z" transform="translate(-52.065 -87.689)"/><path class="cls-2" d="M376.168,1246.916a641.3,641.3,0,0,1,146.354-58.953q21.532-5.714,43.424-9.916c2.568-.5,1.481-4.416-1.081-3.922a645.68,645.68,0,0,0-150.657,48.832q-20.4,9.514-40.092,20.447c-2.291,1.269-.241,4.783,2.052,3.512Z" transform="translate(-52.065 -87.689)"/><path class="cls-2" d="M389.072,1263.6c24.11-11.187,48.379-22.052,73.038-31.98,25.912-10.432,52.287-20.027,79.354-27.026a268.041,268.041,0,0,1,41.1-7.7c2.582-.251,2.608-4.321,0-4.068-25.911,2.515-51.279,9.691-75.888,17.927-27.046,9.052-53.5,19.82-79.625,31.237-13.418,5.864-26.747,11.93-40.031,18.094-2.372,1.1-.309,4.608,2.053,3.512Z" transform="translate(-52.065 -87.689)"/><path class="cls-2" d="M403.814,1287.843c23.432-15.823,49.427-27.892,75.6-38.414a616.479,616.479,0,0,1,81.1-26.569,262.056,262.056,0,0,1,34.9-6.69c2.575-.278,2.6-4.349,0-4.068-23.678,2.557-47.044,9.248-69.679,16.411a615.441,615.441,0,0,0-83.5,32.917,329.575,329.575,0,0,0-40.471,22.9c-2.158,1.457-.124,4.983,2.053,3.513Z" transform="translate(-52.065 -87.689)"/><path class="cls-2" d="M418.4,1314.737c47.866-24.879,97.691-47.757,149.784-62.245a316.932,316.932,0,0,1,41.528-8.869c2.582-.356,1.483-4.276-1.081-3.922-26.172,3.611-51.725,11.2-76.56,20.056-26.277,9.365-51.959,20.394-77.17,32.318q-19.459,9.2-38.554,19.15c-2.324,1.207-.269,4.719,2.053,3.512Z" transform="translate(-52.065 -87.689)"/><path class="cls-2" d="M575.2,1011.59a279.327,279.327,0,0,1,79.763-51.423,306.233,306.233,0,0,1,93.67-23.609,299.5,299.5,0,0,1,54.609.136c2.605.246,2.588-3.824,0-4.068a308.376,308.376,0,0,0-187.772,43.4,273.774,273.774,0,0,0-43.145,32.684c-1.923,1.785.958,4.656,2.875,2.876Z" transform="translate(-52.065 -87.689)"/><path class="cls-2" d="M597.35,1039.723c22.15-22.33,48.722-40.149,76.82-54.118,14.2-7.061,28.913-13.371,44.226-17.594a262.948,262.948,0,0,1,47.839-8.087c17.419-1.469,34.908-1.712,52.379-1.715,2.617,0,2.622-4.068,0-4.068-32,.006-64.41.8-95.639,8.473-15.572,3.826-30.466,9.765-44.94,16.608a327.945,327.945,0,0,0-42.021,23.755,268.264,268.264,0,0,0-41.542,33.869c-1.844,1.861,1.031,4.739,2.878,2.877Z" transform="translate(-52.065 -87.689)"/><path class="cls-2" d="M610.926,1066.224c23.576-20.945,51.577-36.636,80.695-48.481a412.146,412.146,0,0,1,93.51-25.419,386.913,386.913,0,0,1,51.333-4.368c2.615-.044,2.623-4.112,0-4.068a409.8,409.8,0,0,0-94.007,12.943c-31.727,8.083-62.8,19.746-91.3,35.952a253.071,253.071,0,0,0-43.1,30.564c-1.962,1.742.924,4.611,2.876,2.877Z" transform="translate(-52.065 -87.689)"/><path class="cls-2" d="M628.961,1094.373a389.126,389.126,0,0,1,80.131-46.89,407.478,407.478,0,0,1,89.823-26.713c17.482-3.166,35.227-5.407,53.016-5.447,2.617-.006,2.622-4.074,0-4.068a294.757,294.757,0,0,0-46.806,4.335,442.773,442.773,0,0,0-47.1,10.283,389.385,389.385,0,0,0-131.122,64.988c-2.059,1.562-.035,5.1,2.053,3.512Z" transform="translate(-52.065 -87.689)"/><path class="cls-2" d="M651.4,1124.4a353.232,353.232,0,0,1,77.047-51.75,358.845,358.845,0,0,1,87.8-30.125,348.45,348.45,0,0,1,52.36-6.559c2.606-.128,2.621-4.2,0-4.068a357.285,357.285,0,0,0-92.742,17.053,362.777,362.777,0,0,0-85.158,40.506,356.025,356.025,0,0,0-42.187,32.066c-1.965,1.738.921,4.606,2.876,2.877Z" transform="translate(-52.065 -87.689)"/><path class="cls-2" d="M666.815,1160.113a332.56,332.56,0,0,1,76.876-54.743,338.824,338.824,0,0,1,88.666-31.169,327.588,327.588,0,0,1,52.9-6.217c2.61-.094,2.622-4.162,0-4.068a336.559,336.559,0,0,0-93.917,16.981,342.682,342.682,0,0,0-85.528,42.379,334.024,334.024,0,0,0-41.876,33.961c-1.9,1.811.983,4.684,2.877,2.876Z" transform="translate(-52.065 -87.689)"/><path class="cls-2" d="M685.773,1188.447a406.553,406.553,0,0,1,211.343-92.464c2.564-.318,2.6-4.39,0-4.068A409.866,409.866,0,0,0,682.9,1185.57c-2,1.691.888,4.556,2.878,2.877Z" transform="translate(-52.065 -87.689)"/><path class="cls-2" d="M698.832,1220.065A504.247,504.247,0,0,1,850.7,1141.74q23.17-7.3,46.969-12.334c2.559-.543,1.476-4.465-1.081-3.922a507.52,507.52,0,0,0-159.7,63.705q-20.709,12.7-40.117,27.364c-2.064,1.557-.039,5.091,2.053,3.512Z" transform="translate(-52.065 -87.689)"/><path class="cls-1" d="M1014.8,206.029q8.515,34.525,17.107,69.032,9.88,39.695,19.865,79.363,9.3,36.926,18.774,73.808c4.525,17.55,9.047,35.1,13.885,52.572,1.246,4.5,2.465,9.017,3.931,13.45,4.285,12.971,11.857,25.229,19.427,36.508a164.809,164.809,0,0,0,12.756,17.041,18.556,18.556,0,0,0,4.118,3.815c2.257,1.357,4.677.555,7.04.037,9-1.969,18.037-3.775,27.073-5.567,27.794-5.511,55.64-10.763,83.477-16.057q51.851-9.86,103.674-19.865c33.693-6.556,67.367-13.222,100.951-20.315q10.74-2.268,21.465-4.611c3-.657,4.909-4.864,3.039-7.469-5.133-7.149-8.52-15.338-8.2-23.942a24.393,24.393,0,0,1,3.316-11.354,29.717,29.717,0,0,1,10.174-9.919c2.545-1.585,2.936-4.363,1.824-6.957-.268-.625-.531-1.252-.8-1.877a5.768,5.768,0,0,0-1.344-3.158q-28.5-66.633-56.051-133.66c-16.907-40.917-33.762-81.856-51.074-122.6q-15.788-37.158-32.1-74.092a4.989,4.989,0,0,0-4.391-2.518A1163.362,1163.362,0,0,0,1178.6,97.874q-35.279,4.653-70.353,10.888c-22.525,4.044-45.179,8.589-67.015,15.531a65.714,65.714,0,0,0-27.385,17.217c-5.013,5.258-11.372,13.049-9.744,20.886Q1009.39,184.229,1014.8,206.029Zm115.388,337.015c.069.024.066.027,0,0Zm-116.2-383.711c.04-.017.009.127-.036.29C1013.941,159.481,1013.938,159.354,1013.989,159.333Z" transform="translate(-52.065 -87.689)"/><path class="cls-2" d="M1004.1,162.4q5.293,21.829,10.7,43.633,8.515,34.525,17.107,69.032,9.88,39.695,19.865,79.362,9.3,36.925,18.774,73.808c4.525,17.55,9.047,35.106,13.885,52.572,1.246,4.5,2.465,9.018,3.931,13.451,4.285,12.971,11.857,25.229,19.427,36.508a164.809,164.809,0,0,0,12.756,17.041,18.539,18.539,0,0,0,4.119,3.815c2.257,1.357,4.677.555,7.04.037,9-1.969,18.036-3.775,27.073-5.567,27.794-5.511,55.64-10.763,83.477-16.057q51.851-9.859,103.674-19.865c33.693-6.555,67.367-13.221,100.951-20.315q10.74-2.268,21.465-4.611c3-.657,4.909-4.865,3.039-7.469-5.133-7.149-8.52-15.338-8.2-23.942a24.393,24.393,0,0,1,3.316-11.354,29.717,29.717,0,0,1,10.174-9.919c2.545-1.585,2.936-4.363,1.824-6.957q-29.622-69.127-58.195-138.695c-16.906-40.917-33.762-81.856-51.074-122.6q-15.788-37.158-32.1-74.092a4.989,4.989,0,0,0-4.391-2.518A1163.362,1163.362,0,0,0,1178.6,97.876q-35.279,4.653-70.354,10.887c-22.525,4.044-45.179,8.589-67.015,15.531a65.71,65.71,0,0,0-27.384,17.217c-5.013,5.258-11.373,13.05-9.744,20.887.559,2.69,3.729,4.246,6.255,3.551a5.183,5.183,0,0,0,3.551-6.256c-.178-.855-.207.844.061.395.064-.107-.1-.706.024-.757s-.4,1.366-.031.368c.079-.214.11-.477.172-.7.075-.27.8-2.087.334-1.062.322-.707.682-1.4,1.068-2.069a36.167,36.167,0,0,1,6.184-7.87,54.845,54.845,0,0,1,22.214-13.9c20.984-6.645,42.7-11.1,64.329-15.046a1314.888,1314.888,0,0,1,140.8-18.219q41.773-3.022,83.689-2.975-2.2-1.257-4.391-2.518,27.867,63.078,54.231,126.8c17.393,41.814,34.552,83.725,52,125.515q17.379,41.616,35.13,83.075l1.824-6.956c-10.42,6.489-17.525,16.442-18.459,28.853-.808,10.737,3.329,21.657,9.517,30.276l3.039-7.469c-31.955,6.99-64.026,13.447-96.118,19.776q-52.176,10.29-104.435,20.157c-30.017,5.715-60.044,11.379-90.041,17.2-11.011,2.136-22.019,4.289-33.007,6.538q-6.018,1.232-12.024,2.524-1.2.261-2.408.528c-.649.144-2.168.213.09.264a3.791,3.791,0,0,1,2.15.445c-.382-.208-.424,0,.1.112.62.136.19.176-.267-.292-.26-.266-.527-.526-.785-.8-.819-.86-1.593-1.765-2.354-2.677a177.188,177.188,0,0,1-12.394-17.266,190.736,190.736,0,0,1-13.7-24.732,92.209,92.209,0,0,1-4.374-12.607c-4.381-15.22-8.324-30.57-12.306-45.9q-9.071-34.907-17.868-69.883-9.975-39.454-19.815-78.943-9.033-36.207-17.988-72.435-6.233-25.217-12.411-50.448-.893-3.652-1.779-7.307C1012.363,153.337,1002.554,156.029,1004.1,162.4Z" transform="translate(-52.065 -87.689)"/><path class="cls-2" d="M1101.265,502.365c26.293-5.716,52.667-11.06,79.059-16.3q44.736-8.878,89.546-17.372,43.353-8.274,86.725-16.445c23.884-4.521,47.769-9.039,71.624-13.709,14.416-2.822,28.9-5.513,43.181-8.965q1.363-.33,2.722-.683c6.325-1.658,3.643-11.469-2.7-9.805-12.763,3.346-25.829,5.687-38.765,8.244-22.914,4.529-45.865,8.877-68.814,13.228q-42.759,8.106-85.521,16.2-44.992,8.563-89.94,17.37c-27.055,5.332-54.093,10.764-81.058,16.536q-4.381.938-8.76,1.89c-6.392,1.389-3.687,11.2,2.7,9.805Z" transform="translate(-52.065 -87.689)"/><path class="cls-2" d="M1121.64,437.808c5.452,15.2,9.067,31,14.448,46.233,1.3,3.677,7.2,2.094,5.884-1.622-5.381-15.23-9-31.027-14.448-46.233-1.315-3.67-7.213-2.089-5.884,1.622Z" transform="translate(-52.065 -87.689)"/><path class="cls-2" d="M1042.7,134.369c2.889,8.718,4.912,17.791,7.234,26.669q7.139,27.3,14.122,54.646,8.774,34.139,17.542,68.279,8.7,33.8,17.493,67.568c4.594,17.581,9.2,35.162,14.022,52.683q.647,2.351,1.3,4.7c1.053,3.776,6.942,2.172,5.884-1.622-4.6-16.477-8.942-33.026-13.28-49.571q-8.706-33.2-17.239-66.45-8.885-34.488-17.729-68.984-7.345-28.594-14.749-57.175c-2.7-10.367-5.235-20.814-8.318-31.076-.129-.43-.26-.86-.4-1.286-1.229-3.711-7.123-2.121-5.883,1.621Z" transform="translate(-52.065 -87.689)"/><path class="cls-2" d="M1104.68,514.647c45.736-11.167,91.781-21.031,137.937-30.3,46.447-9.323,93.015-18.029,139.587-26.7q38.337-7.14,76.66-14.357c2.569-.488,1.481-4.409-1.081-3.922-45.883,8.71-91.824,17.109-137.711,25.8-46.645,8.832-93.243,17.946-139.65,27.961q-38.522,8.313-76.823,17.6c-2.542.619-1.465,4.544,1.081,3.922Z" transform="translate(-52.065 -87.689)"/><path class="cls-2" d="M1104.68,523.316c45.736-11.167,91.781-21.031,137.937-30.3,46.447-9.323,93.015-18.029,139.587-26.7q38.337-7.14,76.66-14.357c2.569-.488,1.481-4.409-1.081-3.922-45.883,8.71-91.824,17.109-137.711,25.8-46.645,8.831-93.243,17.945-139.65,27.96q-38.522,8.313-76.823,17.6c-2.542.62-1.465,4.542,1.081,3.922Z" transform="translate(-52.065 -87.689)"/><path class="cls-2" d="M1114.105,531.6c45-10.988,90.268-20.868,135.65-30.151,45.4-9.287,90.922-17.979,136.459-26.571q37.769-7.127,75.539-14.252c2.569-.488,1.481-4.409-1.081-3.922-45.138,8.569-90.311,16.955-135.424,25.655-45.6,8.8-91.152,17.9-136.523,27.839q-37.947,8.308-75.7,17.481c-2.541.619-1.465,4.542,1.082,3.921Z" transform="translate(-52.065 -87.689)"/><path class="cls-2" d="M1122.232,540.272c43.953-10.732,88.156-20.405,132.488-29.433,43.548-8.869,87.217-17.132,130.9-25.325q37.353-7.008,74.7-14.05c2.569-.487,1.481-4.409-1.081-3.922-44.077,8.368-88.2,16.5-132.261,24.936-43.749,8.377-87.442,17.07-130.96,26.584q-37.531,8.205-74.863,17.289c-2.542.62-1.466,4.543,1.081,3.921Z" transform="translate(-52.065 -87.689)"/><path class="cls-2" d="M1438.4,401.964l-16.182-38.812a2.129,2.129,0,0,0-2.532-1.391q-22.265,3.786-44.529,7.568-35.323,6-70.647,12.006-8.111,1.379-16.219,2.757a2.044,2.044,0,0,0-1.39,2.532l16.182,38.812a2.128,2.128,0,0,0,2.532,1.39q22.264-3.782,44.529-7.567l70.648-12.006,16.219-2.755a1.859,1.859,0,0,0,1.389-2.534Zm-47.062,6.177q-35.323,6-70.647,12.006l-14.4,2.446q-7.288-17.484-14.579-34.967l42.245-7.179,70.648-12.006q7.2-1.223,14.4-2.447,7.29,17.484,14.579,34.967Z" transform="translate(-52.065 -87.689)"/><path class="cls-1" d="M1622.038,1952.234c-38.982-15.408-78.338-29.988-115.892-48.729-18.507-9.235-36.99-19.338-53.316-32.131-15.776-12.362-28.2-28.439-39.175-45.088a284.492,284.492,0,0,0-17.206-23.851,4.905,4.905,0,0,0-.863-1.2c-.1-.1-.224-.177-.334-.267a149.154,149.154,0,0,0-12.413-13.221c-8.2-7.689-16.472-13.222-27.746-15.152-12.424-2.129-23.951.641-35.63,4.8-26.569,9.448-54.167,15.464-82.152,18.982-22.232,2.8-44.817,3.665-67.131,1.294-27.987-2.974-55.575-11.708-78.586-28.2a152.252,152.252,0,0,1-17.938-15.426c-3.027-3.006-6.111-7.068-9.968-9.063-5.065-2.624-9.464,1.818-13.126,4.823-6.755,5.541-13.184,11.5-19.618,17.4-22.6,20.744-44.775,41.943-67.036,63.046q-41.965,39.78-84.189,79.289c-25.452,23.664-51.028,47.24-77.443,69.832q-7.234,6.188-14.6,12.219c-3.117.947-5.471,5.324-2.656,8.7a225.2,225.2,0,0,0,26.307,26.533,87.865,87.865,0,0,0-12.05,11.5c-3.142,3.6-7.981,8.639-7.914,13.817.055,4.279,5.482,6.946,8.629,9.14q4.526,3.156,9.2,6.094c3.026,1.907,6.1,3.73,9.206,5.512-.025.029-.03.038-.059.071-.331.365-.654.737-.989,1.1-1.623,1.752-3.337,3.422-5.045,5.089-4.093,3.992-8.273,7.9-12.259,12-2.671,2.747-7.039,6.463-6.97,10.661.084,5.145,7,6.544,10.921,8a273.059,273.059,0,0,0,35.924,10.375c-2.553,1.865-5,3.912-7.332,5.808-4.341,3.526-10.377,7.991-10.978,13.986-.224,2.23,1.744,4.3,3.733,4.9a353.778,353.778,0,0,0,46.967,10.289,479.16,479.16,0,0,0,68.33,6.005c25.424.348,50.985-1.52,75.929-6.578,24.968-5.062,49.551-13.576,71.366-26.885a161.26,161.26,0,0,0,51.043-49.1,229.07,229.07,0,0,0,121.556,177.429c24.707,13.087,50.015,25.12,75.035,37.6a3.14,3.14,0,0,0,4.174-1.094q.395-.586.79-1.174c3.271,1.552,7.225,3.9,10.9,3.952a6.116,6.116,0,0,0,3.82-1.408c2.218-1.623,4.312-3.432,6.382-5.237a174,174,0,0,0,16.352-15.913,61.2,61.2,0,0,0,3.994-4.933c.454-.038.91-.062,1.363-.112a52.877,52.877,0,0,0,5.476-.858h.017c.007,0,.012,0,.019-.006a4.8,4.8,0,0,0,2.718-1.476c13.122-13.5,25.969-27.213,38.356-41.39,1.237.133,2.474.252,3.712.341,5.874.422,13.388.556,17.9-3.892,4.448-4.38,7.966-10.127,11.635-15.145,7.509-10.27,14.855-20.661,22.158-31.077q32.129-45.814,63.032-92.479c21.929-33.047,43.529-66.345,63.965-100.343q6.477-10.776,12.74-21.679C1626.849,1956.607,1625.06,1953.428,1622.038,1952.234Zm-822.572,96.148c-.269-.278-.447-.565,0,0Zm2,4.077c.115.47-.031.306,0,0Zm16.938,20.42h0c0,.019-.011.037-.016.055a1.148,1.148,0,0,0-.094.123C818.338,2072.978,818.367,2072.941,818.405,2072.879ZM802.78,2103.52a3.3,3.3,0,0,0,.191-.318C802.158,2105.846,802.641,2103.608,802.78,2103.52Zm546.337,182.3c-.052-.142.194-.257.534-.353C1349.572,2285.514,1349.117,2285.816,1349.117,2285.818Zm68.334-63.08c.141-.223.288-.443.428-.667l.14.027Q1417.737,2222.418,1417.451,2222.738Z" transform="translate(-52.065 -87.689)"/><path class="cls-2" d="M1443.855,2213.549a.25.25,0,0,0,.091,0C1444.354,2213.42,1443.668,2213.468,1443.855,2213.549Z" transform="translate(-52.065 -87.689)"/><path class="cls-2" d="M794.345,1999.214c24.6-20.068,48.088-41.5,71.457-62.973,28.37-26.062,56.4-52.495,84.373-78.979,24.375-23.075,48.66-46.248,73.184-69.166,8.354-7.807,16.724-15.6,25.26-23.209,2.808-2.5,5.63-4.991,8.525-7.393.544-.452,1.092-.9,1.642-1.343.666-.539,1.568-1.2.594-.478.707-.521,1.473-.989,2.164-1.526,1.245-.968-.339.088-1.183.1-.407,0-2.751-.749-1.093-.073,1.1.448-.807-.745-.083-.07.333.31.687.6,1.022.908.786.719,1.536,1.479,2.291,2.232,4.847,4.844,9.681,9.665,14.959,14.05,19.614,16.3,43.087,27.005,67.92,32.554,44.592,9.964,90.719,4.54,134.939-4.642a301.839,301.839,0,0,0,40.576-11.546c11.507-4.121,22.792-7.466,35.032-4.527,10.3,2.473,17.571,9.382,24.8,16.8a147.714,147.714,0,0,1,15.188,17.955c11.285,16.039,21.407,32.574,34.788,47.085,12.735,13.811,28.973,24.438,45.117,33.812,37.715,21.9,78.662,37.985,119.206,53.773,8.108,3.157,16.224,6.292,24.316,9.49q-1.519-3.735-3.04-7.469c-18.616,32.5-38.794,64.123-59.25,95.494q-31.953,49.005-65.254,97.117c-14.264,20.646-28.483,41.4-43.656,61.4q-.37.486-.74.968c-.218.284.633-.809.013-.017-.4.508-.794,1.018-1.2,1.52-.542.673-1.161,1.307-1.678,2a5.252,5.252,0,0,1-.5.5c1.174-1.191.262.19-.179,0-.234-.1.931-.156-.444.136-.629.134-1.253.3-1.887.432-1.145.234.175-.011-.029.008-.33.031-.659.076-.991.089-.907.037-1.81.092-2.719.094-1.835,0-3.67-.107-5.5-.271a115.305,115.305,0,0,1-13.56-2.2c-29.269-6.209-57.719-17.4-84.9-29.712-33.821-15.321-66.671-33.484-96.542-55.61a282.562,282.562,0,0,1-39.118-34.482,169.857,169.857,0,0,1-14.862-18.209c-2.952-4.228-6-7.137-11.021-8.72-1.761-.555-3.72-.687-5.426-1.383-1.823-.744-4.051-2.442-6.022-3.465-18.6-9.654-41.793-13.362-62.377-8.937a50.938,50.938,0,0,0-12,4.193c-.429.213-.842.457-1.273.666-.88.427-.195.1-.345.155-1.069.421-2.163.778-3.259,1.121-6.682,2.095-13.576,3.563-20.424,4.99-19.717,4.109-39.659,7.328-59.639,9.854-20.723,2.621-41.306,4.265-62.131,1.639-45.557-5.743-89.87-26.94-124.182-57.239a217.6,217.6,0,0,1-22.992-23.61c-4.2-5.028-11.361,2.2-7.191,7.191,29.836,35.718,71.384,61.9,115.73,75.555,21.853,6.728,44.906,10.4,67.8,9.686,20.558-.64,41.209-3.9,61.488-7.137,17.375-2.774,35.016-5.594,51.958-10.443,5.485-1.57,10.388-4.465,15.851-6,9.6-2.7,20.019-2.717,29.847-1.42a83.692,83.692,0,0,1,31.2,10.274,26.986,26.986,0,0,0,5.6,2.842c2.076.646,4.329.8,6.318,1.723,3.347,1.549,5.352,5.966,7.522,8.822a232.809,232.809,0,0,0,35.478,36.661c28.827,24.331,61.512,44.019,95.239,60.748,29.581,14.673,60.473,27.625,92.34,36.443,10.517,2.91,21.328,5.5,32.243,6.284,5.873.422,13.388.556,17.906-3.892,4.448-4.38,7.966-10.127,11.634-15.144,7.509-10.27,14.855-20.661,22.159-31.077q32.129-45.816,63.032-92.479c21.929-33.047,43.529-66.346,63.964-100.343q6.478-10.776,12.74-21.679c1.773-3.1-.017-6.275-3.039-7.469-38.982-15.408-78.337-29.988-115.892-48.729-18.506-9.235-36.991-19.338-53.316-32.131-15.775-12.362-28.2-28.439-39.175-45.088-9.171-13.918-18.587-27.073-30.816-38.536-8.2-7.689-16.472-13.222-27.746-15.153-12.424-2.128-23.951.642-35.63,4.8-26.569,9.449-54.167,15.464-82.152,18.982-22.232,2.8-44.817,3.665-67.13,1.294-27.987-2.974-55.575-11.707-78.586-28.2a152.164,152.164,0,0,1-17.937-15.426c-3.027-3.006-6.112-7.068-9.968-9.064-5.065-2.623-9.464,1.819-13.126,4.823-6.755,5.542-13.184,11.5-19.618,17.4-22.6,20.744-44.776,41.944-67.036,63.046q-41.965,39.78-84.189,79.288c-25.452,23.664-51.028,47.241-77.443,69.832q-7.494,6.41-15.123,12.657c-5.074,4.137,2.158,11.294,7.19,7.189Z" transform="translate(-52.065 -87.689)"/><path class="cls-2" d="M1307.236,1783.849c-29.766,33.411-58.509,67.719-86.755,102.419-28.489,35-56.473,70.4-84.467,105.8q-23.259,29.406-46.62,58.732c-1.713,2.143-2.094,5.1,0,7.191,1.775,1.775,5.467,2.157,7.191,0,27.944-34.968,55.587-70.176,83.444-105.214,28.079-35.315,56.371-70.467,85.4-105.01q24.111-28.693,49-56.723c4.342-4.873-2.826-12.09-7.19-7.191Z" transform="translate(-52.065 -87.689)"/><path class="cls-2" d="M1388.4,1801.238c-26.924,33.43-52.882,67.623-79.035,101.656-27.286,35.508-54.814,70.842-83.6,105.156q-25.149,29.984-51.685,58.766c-4.442,4.8,2.732,12.005,7.191,7.191,31.19-33.676,60.659-68.891,89.223-104.809,27.5-34.584,54.186-69.808,81.158-104.806,14.477-18.785,29.058-37.491,43.934-55.963,1.721-2.137,2.089-5.1,0-7.191-1.78-1.782-5.459-2.15-7.19,0Z" transform="translate(-52.065 -87.689)"/><path class="cls-2" d="M1149.83,2068.712c3.551,19.913,13.194,38.571,24.278,55.285,13.282,20.03,29.319,38.235,46.574,54.919a446.614,446.614,0,0,0,57.8,47.174c18.159,12.452,37.331,23.595,57.732,31.957,14.523,5.953,31.2,11.42,47.126,9.662a53.038,53.038,0,0,0,5.494-.86c6.392-1.391,3.687-11.2-2.7-9.806-.7.152-1.4.272-2.109.4-1.077.2.08.006-.048.019-.371.038-.741.088-1.113.125-1.6.159-3.212.228-4.822.229-1.657,0-3.313-.074-4.964-.208-.865-.07-1.728-.161-2.59-.258-.485-.055-1.4-.187-.349-.037-.511-.073-1.024-.148-1.535-.229a124.842,124.842,0,0,1-23.752-6.527q-3.336-1.237-6.624-2.6c-.193-.08-1.324-.557-.644-.268q-.821-.348-1.637-.7-1.774-.773-3.537-1.577c-4.662-2.125-9.256-4.4-13.787-6.793-9.734-5.14-19.183-10.814-28.381-16.858a427.347,427.347,0,0,1-56.294-44.274c-17.094-15.889-33.25-33.311-46.61-52.14a211.524,211.524,0,0,1-16.5-27.066q-1.715-3.4-3.269-6.881c-.21-.471-.416-.944-.622-1.417-.419-.958-.093-.2-.386-.907q-.725-1.751-1.4-3.521a114.314,114.314,0,0,1-4.174-13.193q-.782-3.15-1.347-6.347c-.482-2.7-3.782-4.231-6.255-3.551-2.855.782-4.039,3.54-3.555,6.254Z" transform="translate(-52.065 -87.689)"/><path class="cls-2" d="M1123.927,2054.9c-30.047,17.2-62.175,30.7-95.951,38.551a288.73,288.73,0,0,1-84.216,7,279.163,279.163,0,0,1-69.015-13.522q-7.418-2.443-14.7-5.287c-2.145-.838-5-2-6.684-2.708-1.62-.685-4.338-1.879-6.372-2.8q-12.147-5.519-23.736-12.171c-6.4-3.682-12.65-7.625-18.693-11.866q-1.953-1.371-3.876-2.785a5.3,5.3,0,0,0-.884-.654c-.454-.2-1.406-1.749.668,1.052,1.059,1.431.619,1.321.982,2.69.2.771-.2.145.167-.334-.693.908-.015.111.29-.429,2.715-4.811,6.99-9.064,11.231-13.018a61.209,61.209,0,0,1,7.376-6c5.389-3.65.306-12.464-5.133-8.781a84.326,84.326,0,0,0-16.106,14.474c-3.142,3.6-7.981,8.639-7.914,13.817.055,4.279,5.482,6.946,8.629,9.14q4.525,3.156,9.2,6.094a284.485,284.485,0,0,0,51.156,25.24,290.923,290.923,0,0,0,70.142,16.832,294.187,294.187,0,0,0,86.5-3.321c34.574-6.395,67.877-18.834,98.937-35.2q6.633-3.5,13.136-7.231c5.679-3.255.562-12.045-5.132-8.784Z" transform="translate(-52.065 -87.689)"/><path class="cls-2" d="M1130.966,2056.7c-22.812,21.744-50.643,37.5-80.389,47.651-29.214,9.969-59.717,14.871-90.423,16.291a435.807,435.807,0,0,1-44.432-.266c-13.312-.746-27.413-2.155-39.838-3.96-21.365-3.1-42.751-7.479-63.251-14.341-3.5-1.17-6.964-2.423-10.376-3.819-.176-.072-1.559-.65-.672-.275,1.037.439-.61-.283-.621-.271l.819.834a3.586,3.586,0,0,1,1.455,3.153c0-.131-.291,1.584-.12,1.019-1.017,3.394-.485.895-.339.8a4.719,4.719,0,0,0,.282-.489c-.01-.2.428-.6.529-.762-.831,1.352-.116.164.193-.2.737-.874,1.515-1.714,2.3-2.544,3.774-3.988,7.788-7.748,11.732-11.566,3.179-3.078,7.049-6.216,9.433-10,1.386-2.2,1.825-5.433-.4-7.344a5.215,5.215,0,0,0-7.191,0c-1.831,1.832-2.091,5.392,0,7.191q-.612-2.328-1.226-4.655-.112.4.19-.416c.082.224.274-.907.115-.325-.066.241-.327.436-.445.652.408-.747.631-.76.044-.111-.33.365-.654.737-.989,1.1-1.623,1.752-3.337,3.422-5.046,5.089-4.092,3.992-8.272,7.9-12.259,12-2.671,2.747-7.039,6.463-6.97,10.661.084,5.145,7,6.544,10.922,8,19.354,7.192,39.809,11.656,60.138,15.024a464.872,464.872,0,0,0,85.485,6.347c31.544-.652,63.277-4.726,93.554-13.773,31.228-9.33,60.805-24.135,85.774-45.219q4.733-4,9.21-8.278c4.747-4.527-2.452-11.711-7.191-7.194Z" transform="translate(-52.065 -87.689)"/><path class="cls-2" d="M1139.248,2057.733a149.551,149.551,0,0,1-49.483,56.7c-20.8,14.134-43.51,22.9-67.967,28.614-24.189,5.655-48.213,7.857-73.336,7.979-11.858.057-23.718-.39-35.542-1.279q-8.421-.633-16.813-1.563-3.913-.434-7.817-.929l-2.089-.27-.922-.122c.2.027.981.134-.024,0q-1.926-.264-3.849-.541a387.881,387.881,0,0,1-49.08-10.012q-2.147-.6-4.281-1.245l3.734,4.9q-.273,1.523-.054.733-.558,1.236-.187.5a6.885,6.885,0,0,0,.713-1.089c-.793,1.119.307-.311.488-.51.416-.46.85-.9,1.29-1.342a80.023,80.023,0,0,1,6.66-5.817c3.112-2.479,7.226-5.821,11.261-7.7,2.49-1.157,3.117-4.745,1.824-6.957-1.494-2.554-4.457-2.986-6.957-1.824-5.142,2.39-9.871,6.477-14.23,10.018-4.341,3.526-10.378,7.991-10.978,13.986-.224,2.231,1.744,4.3,3.733,4.9a353.62,353.62,0,0,0,46.967,10.289,479.015,479.015,0,0,0,68.33,6.005c25.424.348,50.986-1.52,75.929-6.577,24.968-5.062,49.551-13.576,71.366-26.885a160.369,160.369,0,0,0,55.159-55.706q2.617-4.481,4.935-9.127c2.929-5.834-5.841-10.989-8.78-5.133Z" transform="translate(-52.065 -87.689)"/><path class="cls-2" d="M1140.571,2064.334c1.973,30.358,12.9,59.239,29,84.871,15.922,25.352,36.395,47.717,58.728,67.545a495.306,495.306,0,0,0,65.361,48.7,408.4,408.4,0,0,0,46.438,25.706c3.349,1.539,7.5,4.1,11.337,4.161a6.112,6.112,0,0,0,3.819-1.407c2.219-1.624,4.313-3.432,6.382-5.238a173.626,173.626,0,0,0,16.353-15.912,44.128,44.128,0,0,0,5.7-7.59c3.164-5.734-5.615-10.87-8.781-5.134a25.61,25.61,0,0,1-2,3.033c.478-.632-.859,1.046-1.058,1.281-.584.694-1.185,1.375-1.792,2.049-2.554,2.83-5.259,5.525-8.017,8.156q-3.9,3.718-7.971,7.254c-.995.863-2,1.718-3.015,2.554-.357.294-.725.575-1.078.874-.815.688.78-.563.246-.185-.139.1-.375.378-.541.4-.009,0-.563.37-.563.372-.167-.458,2.636-.671,2.428-.67-.635.005,1.726.491.9.114-.416-.189-.928-.27-1.363-.421-.725-.253-1.435-.545-2.147-.829-1.542-.613.906.4-.207-.083-.537-.235-1.076-.466-1.611-.7-14.81-6.585-29.011-14.7-42.823-23.148q-15.422-9.432-30.176-19.9c-11.15-7.918-20.944-15.471-31.392-24.334-21.953-18.626-42.484-39.637-58.642-63.065-16.378-23.747-28.431-49.775-32.386-78.533-.1-.732-.368-3-.508-4.4q-.276-2.751-.452-5.511a5.2,5.2,0,0,0-5.085-5.085c-2.612,0-5.262,2.326-5.083,5.081Z" transform="translate(-52.065 -87.689)"/><path class="cls-2" d="M1391.574,2265.367c13.17-13.546,26.064-27.312,38.492-41.544a5.212,5.212,0,0,0,0-7.191c-1.844-1.843-5.377-2.077-7.192,0-12.428,14.233-25.322,28-38.491,41.544-4.565,4.7,2.619,11.893,7.191,7.191Z" transform="translate(-52.065 -87.689)"/><path class="cls-2" d="M1160.428,2070.935c11.429,25.938,27.659,49.524,46.552,70.582,18,20.061,38.49,37.79,60.287,53.6a453.468,453.468,0,0,0,58.44,35.948c14.113,7.275,28.685,14.091,43.776,19.1,3.828,1.27,8.067,2.809,12.15,2.955,4.892.174,9.771-3.359,13.485-6.151a91.56,91.56,0,0,0,16.651-16.214,89.928,89.928,0,0,0,7.18-10.336c3.32-5.656-5.466-10.78-8.781-5.133a81.868,81.868,0,0,1-14.484,17.97,67.231,67.231,0,0,1-7.156,6c-1.1.78-2.225,1.526-3.391,2.2-.47.274-.946.539-1.431.787-.413.21-1.7.7-.624.32a6.989,6.989,0,0,0-1.271.408c-.735.491,1.139-.374.161-.013a1.419,1.419,0,0,1-.559-.035c-.884-.138,1.316.251.756.1-.7-.185-1.442-.255-2.148-.413-1.968-.441-3.908-1.008-5.832-1.611-5.849-1.834-11.571-4.067-17.227-6.422-.432-.18-1.263-.534-.323-.134-.406-.173-.812-.345-1.217-.519q-1.429-.614-2.852-1.24-2.811-1.238-5.6-2.523-6.091-2.807-12.085-5.821a453.228,453.228,0,0,1-56.253-33.569,381.242,381.242,0,0,1-58.33-49.8c-18.58-19.581-34.723-41.519-46.705-65.759q-2.3-4.654-4.389-9.409c-1.107-2.513-4.779-3.1-6.957-1.824-2.591,1.516-2.935,4.434-1.824,6.957Z" transform="translate(-52.065 -87.689)"/><path class="cls-2" d="M820.572,2031.948a80.274,80.274,0,0,0-13.177,15.326,3.084,3.084,0,0,0,1.094,4.174c36.827,21.015,76.345,39.129,118.6,45.471,43.445,6.521,87.474-.327,128.974-13.763,23.624-7.649,46.542-17.36,68.939-28.048,3.542-1.69.449-6.953-3.08-5.269-38.906,18.566-79.789,34.28-122.616,40.694a243.609,243.609,0,0,1-63.747,1.407c-20.617-2.366-40.827-7.832-60.237-15.085-22.127-8.269-43.259-18.981-63.754-30.676q.548,2.086,1.094,4.174a73.925,73.925,0,0,1,12.223-14.091c2.927-2.631-1.4-6.935-4.313-4.314Z" transform="translate(-52.065 -87.689)"/><path class="cls-2" d="M831.669,2074.689a48.825,48.825,0,0,0-12.594,16.986,3.1,3.1,0,0,0,1.823,4.482l35.762,10.3c11.694,3.369,23.364,7.087,35.3,9.531,12.042,2.466,24.247,2.943,36.5,2.879s24.511-.173,36.75-.71c38.082-1.671,76.926-6.858,111.85-22.921a205.422,205.422,0,0,0,53.066-35.9c2.895-2.666-1.428-6.972-4.313-4.314a201.467,201.467,0,0,1-45.853,32.068,211.2,211.2,0,0,1-50.366,17.323c-18.56,4.012-37.484,6.025-56.416,7.216-12.214.768-24.453.935-36.687,1.062-12.048.125-24.222.406-36.176-1.382-12.985-1.943-25.586-6-38.17-9.623l-39.629-11.417,1.823,4.482a44.72,44.72,0,0,1,11.64-15.75c2.971-2.582-1.36-6.882-4.313-4.316Z" transform="translate(-52.065 -87.689)"/><path class="cls-2" d="M857.307,2118.665l-10.131,13.728a3.063,3.063,0,0,0,1.823,4.482c36,5.376,72.489,8.355,108.9,6.809,26.536-1.126,53.14-4.63,78.729-11.885a224.623,224.623,0,0,0,53.414-22.456,165.506,165.506,0,0,0,32.625-25.053,131.456,131.456,0,0,0,16.049-19.376q.521-.77,1.028-1.548c2.157-3.3-3.124-6.356-5.269-3.08q-2.471,3.775-5.211,7.36c-.437.574.4-.511-.051.067-.146.187-.29.374-.437.558-.322.407-.644.813-.97,1.218q-.978,1.212-1.987,2.4-2.322,2.734-4.791,5.34a150.87,150.87,0,0,1-29.014,23.738,208.59,208.59,0,0,1-49.34,22.649c-23.9,7.578-48.817,11.637-73.8,13.358-34.441,2.372-69.1.455-103.312-3.9q-7.485-.954-14.947-2.079.912,2.241,1.823,4.482l10.131-13.728c2.335-3.163-2.958-6.209-5.267-3.08Z" transform="translate(-52.065 -87.689)"/><path class="cls-2" d="M1184.98,2090.3a662.166,662.166,0,0,0,79.509,78.543c14.181,11.81,28.732,23.542,44.506,33.176,16.029,9.789,33.524,16.121,51.657,20.768,5.124,1.313,10.276,2.516,15.435,3.682,4.746,1.073,10.075,3,14.981,2.367,3.852-.495,6.873-2.838,9.4-5.647,2.286-2.538,4.441-6.087,7.722-7.443,3.578-1.479,2.01-7.385-1.622-5.884a20.456,20.456,0,0,0-7.678,5.821c-1.907,2.186-3.716,4.923-6.313,6.347-3.606,1.977-8.419,0-12.14-.831-4.554-1.02-9.1-2.058-13.638-3.165-17.822-4.353-35.241-9.94-51.185-19.176-15.549-9.007-29.756-20.289-43.607-31.677q-21.072-17.325-40.663-36.354-22.059-21.426-42.052-44.841c-2.556-2.99-6.855,1.343-4.315,4.314Z" transform="translate(-52.065 -87.689)"/><path class="cls-2" d="M1138.17,2069.617a227.392,227.392,0,0,0,36.071,107.746,230.419,230.419,0,0,0,86.294,78.667c24.708,13.087,50.015,25.12,75.035,37.6a3.138,3.138,0,0,0,4.173-1.1l4.578-6.8c2.2-3.267-3.085-6.324-5.27-3.08q-2.289,3.4-4.577,6.8l4.174-1.094c-21.825-10.884-43.7-21.672-65.471-32.666-18.489-9.338-36.125-19.779-51.857-33.339a225.911,225.911,0,0,1-63.645-91.309,216.087,216.087,0,0,1-13.4-61.427c-.258-3.9-6.362-3.927-6.1,0Z" transform="translate(-52.065 -87.689)"/><path class="cls-2" d="M1239.2,1902.4c16.763-21.592,35.2-41.786,52.641-62.814q6.577-7.929,12.92-16.046a15.4,15.4,0,0,1,9.165-5.814c6.736-1.542,16.322.318,19.216,7.458,2.929,7.225-4.808,15.474-9.164,20.313-2.992,3.324-6.174,6.47-9.2,9.758a97.05,97.05,0,0,0-7.513,9.613c-12.531,17.56-24.576,36.032-40.779,50.507a73.467,73.467,0,0,1-13.772,9.945,11.07,11.07,0,0,1-9.476.54,12.226,12.226,0,0,1-7.16-7.4c-1.665-5,.088-10.2,2.565-14.6,1.929-3.426-3.34-6.5-5.269-3.08-4.8,8.519-6.177,19.66,1.617,26.938a18.787,18.787,0,0,0,10.618,4.934c4.439.521,8.192-.844,11.961-3.076,9.929-5.881,18.328-14.187,25.851-22.845,7.99-9.2,15.155-19.08,22.192-29.012,3.222-4.547,6.408-9.122,9.693-13.625a96.193,96.193,0,0,1,8.547-9.53c6.322-6.6,14.408-14.438,15.774-23.938,1.355-9.421-6.207-16.785-14.89-18.785-9.364-2.156-18.952.552-24.9,8.17-20.841,26.695-44.179,51.321-64.949,78.075-2.378,3.064,1.91,7.413,4.316,4.314Z" transform="translate(-52.065 -87.689)"/><path class="cls-2" d="M1180.111,1949.356c14.227.834,29.558,5.073,41.592,12.91,7.083,4.614,13.882,9.77,20.559,14.947,1.659,1.286,3.311,2.584,4.911,3.942.549.465,1.084.944,1.613,1.432a4.638,4.638,0,0,0,.451.457c.3.2.1-.023-.025-.056-.171-.235-.219-.3-.146-.181q1.1,1.8,1.113-3.922c-3.343,2.047-.281,7.328,3.08,5.269,4.1-2.512-.465-6.241-2.559-7.971-3.933-3.251-8.03-6.313-12.127-9.353-3.947-2.929-7.919-5.832-11.975-8.61a82.184,82.184,0,0,0-15.745-8.03,96.849,96.849,0,0,0-30.743-6.933c-3.922-.233-3.909,5.87,0,6.1Z" transform="translate(-52.065 -87.689)"/><path class="cls-2" d="M1172.807,1959.847a132.764,132.764,0,0,1,53.012,21.858c5.133,3.575,11.479,7.585,14.334,13.339,1.745,3.518,7.01.43,5.269-3.08-2.992-6.03-9.1-10.178-14.416-14.031a134.566,134.566,0,0,0-17.608-10.8,139.506,139.506,0,0,0-38.969-13.17c-3.84-.688-5.487,5.192-1.622,5.885Z" transform="translate(-52.065 -87.689)"/><path class="cls-2" d="M221.286,1013.138c-38.509,10.217-46.791,18.5-57.008,57.008-10.217-38.509-18.5-46.791-57.008-57.008,38.509-10.217,46.791-18.5,57.008-57.008C174.5,994.638,182.777,1002.921,221.286,1013.138Z" transform="translate(-52.065 -87.689)"/><path class="cls-2" d="M104.92,1062.731c-17.852,4.736-21.691,8.576-26.427,26.428-4.736-17.852-8.576-21.691-26.428-26.428,17.852-4.736,21.691-8.576,26.428-26.428C83.229,1054.155,87.068,1057.995,104.92,1062.731Z" transform="translate(-52.065 -87.689)"/><path class="cls-2" d="M100.405,979.019h-9v-9c0-2.662-4.136-2.666-4.136,0v9H78.892c-2.662,0-2.666,4.136,0,4.136h8.381v7.767c0,2.662,4.136,2.666,4.136,0v-7.767h9C103.067,983.156,103.071,979.019,100.405,979.019Z" transform="translate(-52.065 -87.689)"/><path class="cls-2" d="M148.114,1127.128h-9v-9c0-2.662-4.136-2.666-4.136,0v9H126.6c-2.662,0-2.666,4.136,0,4.136h8.381v7.767c0,2.662,4.136,2.666,4.136,0v-7.767h9C150.775,1131.265,150.78,1127.128,148.114,1127.128Z" transform="translate(-52.065 -87.689)"/><path class="cls-2" d="M1495.3,428.326c17.812-5.37,21.548-9.365,25.715-27.5,5.371,17.812,9.365,21.547,27.5,25.715-17.813,5.37-21.549,9.365-25.716,27.5C1517.423,436.227,1513.429,432.492,1495.3,428.326Z" transform="translate(-52.065 -87.689)"/><path class="cls-2" d="M1536.331,373.9c8.257-2.489,9.989-4.341,11.921-12.747,2.489,8.257,4.341,9.989,12.747,11.921-8.257,2.489-9.989,4.341-11.921,12.747C1546.588,377.561,1544.736,375.831,1536.331,373.9Z" transform="translate(-52.065 -87.689)"/><path class="cls-2" d="M1547.466,405.394l4.2-.141.141,4.2a.966.966,0,0,0,1.93-.065l-.141-4.2,3.912-.13a.966.966,0,0,0-.065-1.93l-3.912.13-.121-3.625a.966.966,0,0,0-1.93.066l.121,3.625-4.2.14A.966.966,0,0,0,1547.466,405.394Z" transform="translate(-52.065 -87.689)"/><path class="cls-2" d="M1493.336,386.779l4.2-.141.14,4.2a.966.966,0,0,0,1.93-.065l-.14-4.2,3.911-.131a.966.966,0,0,0-.064-1.93l-3.912.131-.121-3.625a.967.967,0,0,0-1.931.065l.122,3.625-4.2.141A.966.966,0,0,0,1493.336,386.779Z" transform="translate(-52.065 -87.689)"/><path class="cls-2" d="M1016.325,109.936a2.522,2.522,0,0,0-3.42-.9A75.643,75.643,0,0,0,982.4,157.07a72.709,72.709,0,0,0-1.1,16.466c.16,3.2,5.161,3.221,5,0a70.609,70.609,0,0,1,17.688-49.895,67.182,67.182,0,0,1,11.443-10.285A2.568,2.568,0,0,0,1016.325,109.936Z" transform="translate(-52.065 -87.689)"/><path class="cls-2" d="M1503.487,478.842c-.823-3.107-5.647-1.789-4.821,1.329a12.965,12.965,0,0,1,.179,5.658,14.535,14.535,0,0,1-2.312,5.532,12.569,12.569,0,0,1-1.744,2.158,13.667,13.667,0,0,1-2.2,1.88,12.563,12.563,0,0,1-5.667,2.195,2.516,2.516,0,0,0-1.746,3.075,2.564,2.564,0,0,0,3.075,1.746C1498.837,500.839,1506.192,489.057,1503.487,478.842Z" transform="translate(-52.065 -87.689)"/><path class="cls-2" d="M1016.213,1152.555a2.524,2.524,0,0,0-3.075-1.746,2.55,2.55,0,0,0-1.746,3.075,44.817,44.817,0,0,1-7.209,34.072,2.522,2.522,0,0,0,.9,3.42,2.55,2.55,0,0,0,3.42-.9A49.818,49.818,0,0,0,1016.213,1152.555Z" transform="translate(-52.065 -87.689)"/><path class="cls-2" d="M389.349,1499.362c-8.036.789-15.716-2.02-22.228-6.606-6.832-4.811-12-11.625-16.353-18.662-2.6-4.208-4.958-8.563-7.307-12.917-1.528-2.833-5.847-.311-4.317,2.524,8.454,15.671,18.113,32.406,35.823,38.77a33.2,33.2,0,0,0,14.381,1.891,2.57,2.57,0,0,0,2.5-2.5A2.516,2.516,0,0,0,389.349,1499.362Z" transform="translate(-52.065 -87.689)"/><path class="cls-2" d="M761.314,1970.631A76.356,76.356,0,0,0,743,2029.485a72.372,72.372,0,0,0,4.2,17.44,2.569,2.569,0,0,0,3.074,1.746,2.518,2.518,0,0,0,1.746-3.075,71.478,71.478,0,0,1,3.358-57.522,67.331,67.331,0,0,1,9.464-13.908C766.978,1971.767,763.454,1968.218,761.314,1970.631Z" transform="translate(-52.065 -87.689)"/><path class="cls-2" d="M794.01,1947.327a2.543,2.543,0,0,0-3.421-.9l-7.508,4.5a2.5,2.5,0,0,0,2.523,4.318l7.508-4.5A2.534,2.534,0,0,0,794.01,1947.327Z" transform="translate(-52.065 -87.689)"/><path class="cls-2" d="M1643.9,1932.578a58.032,58.032,0,0,0-7.894-12.809,2.514,2.514,0,0,0-3.534,0,2.559,2.559,0,0,0,0,3.536c10.056,12.5,13.945,29.759,10.876,45.442a53.222,53.222,0,0,1-4.238,12.9,2.569,2.569,0,0,0,.9,3.421,2.522,2.522,0,0,0,3.42-.9A61.816,61.816,0,0,0,1643.9,1932.578Z" transform="translate(-52.065 -87.689)"/><path class="cls-2" d="M1631,2006.506a2.531,2.531,0,0,0-3.421.9,36.6,36.6,0,0,1-1.957,3.726q-.572.95-1.2,1.862-.284.411-.577.813c-.109.149-.22.3-.33.445l-.054.074c-.008.009-.014.016-.028.034a39.025,39.025,0,0,1-6.02,6.019,2.5,2.5,0,0,0,0,3.536,2.574,2.574,0,0,0,3.535,0,38.109,38.109,0,0,0,10.95-13.985A2.563,2.563,0,0,0,1631,2006.506Z" transform="translate(-52.065 -87.689)"/><path class="cls-2" d="M996,1098.44a114.72,114.72,0,0,1,6.134,22.5,2.519,2.519,0,0,0,3.075,1.746,2.559,2.559,0,0,0,1.746-3.075,114.739,114.739,0,0,0-6.134-22.5,2.573,2.573,0,0,0-3.075-1.746A2.519,2.519,0,0,0,996,1098.44Z" transform="translate(-52.065 -87.689)"/><path class="cls-2" d="M982.96,194.649l1.05,7.77a2.489,2.489,0,0,0,1.149,1.494,2.5,2.5,0,0,0,3.42-.9l.252-.6a2.518,2.518,0,0,0,0-1.329l-1.05-7.77a2.492,2.492,0,0,0-1.149-1.494,2.5,2.5,0,0,0-3.42.9l-.252.6a2.518,2.518,0,0,0,0,1.329Z" transform="translate(-52.065 -87.689)"/><path class="cls-2" d="M987.586,213.564c3.217,0,3.223-5,0-5s-3.223,5,0,5Z" transform="translate(-52.065 -87.689)"/></g></svg>