<svg id="Layer_1" data-name="Layer 1" xmlns="http://www.w3.org/2000/svg" viewBox="0 0 494.16 549.74"><defs><style>.cls-1{fill:#e9cf96;}</style></defs><path class="cls-1" d="M522.14,49.94c-20.65,19.35-51.51,18.11-77.26,23.82a123,123,0,0,0-39.72,16c-7,4.39-15.91,10.1-22.22,17.19a135.43,135.43,0,0,1,9.91-17.5c3.83-5.86-3.45-11.79-8.79-9a284.56,284.56,0,0,0-49.92,32.84c-1.88,1.54-3.91,3.16-5.86,4.85l-7.21-14.56c-9-18.19-30.86-25.52-48.58-16.27L60.16,198.24c-17.72,9.25-24.85,31.68-15.84,49.87l145.73,294c9,18.19,30.86,25.51,48.58,16.26L451,447.44c17.72-9.25,24.85-31.68,15.84-49.87L395,252.51c1.35-1.16,2.63-2.39,3.91-3.55,17.72-16.19,27.4-41.39,51.13-49.49,6.08-2.08,6.45-11.17,0-13a78.67,78.67,0,0,0-19.37-3,84,84,0,0,0-15.77,1l-1.65.24c1.95-1.24,4-2.47,5.93-3.7,4.73-3,9.46-6.09,14-9.41a475.83,475.83,0,0,0,42.64-33.84c21-18.88,39.42-40.85,52-66.36.38-.77.75-1.54,1.13-2.24,1.87-3.93,3.6-8,5.18-12.1,2.85-7.25-7.14-11.64-11.94-7.09ZM157.92,410.06a3.72,3.72,0,0,1-4,.15,3.27,3.27,0,0,1-1.8-3.46,2.46,2.46,0,0,1,0-1.08c.07-.16.15-.39.22-.54v-.08l.08-.15v-.08a5.64,5.64,0,0,1,1.05-1.7,3.15,3.15,0,0,1,3.3-.92.87.87,0,0,1-.22,1.69c-.3,0-.45.23-.6.47h.15c.15,0,1.42.3.3.07a6,6,0,0,1,1.2.31.94.94,0,0,0-.08-.46c-.22-.7.75-1,1.13-.46a3.2,3.2,0,0,1,.38,1.61,2.41,2.41,0,0,1,.07.7,3.25,3.25,0,0,1-1.2,3.93ZM143.13,259.91c-5.78.46-10.14,4.7-10.29,9.79-.75,28.44-3.68,49.71-7.13,49.71s-6.46-21.27-7.13-49.71c-.15-5-4.51-9.25-10.29-9.79-12.31-1.08-20.72-3.24-20.72-5.71s8.48-4.62,20.8-5.7c5.78-.46,10.13-4.7,10.28-9.71.9-26.52,3.68-45.94,7.06-45.94s6.16,19.42,7.06,45.94c.15,5,4.58,9.17,10.28,9.71,12.32,1.08,20.8,3.24,20.8,5.7s-8.41,4.7-20.72,5.71Zm67.05-94.35a7.35,7.35,0,0,1,5.1-2.16c4.06,0,7,3.39,7.21,7.4a7.62,7.62,0,0,1-2.1,5.24,7.39,7.39,0,0,1-5.11,2.16c-4.05,0-7-3.39-7.21-7.4A7.59,7.59,0,0,1,210.18,165.56Zm86.26,307.86c-3.52,6-13.13,6.71-16.51,0a12,12,0,0,1-1.05-8.56,9.59,9.59,0,0,1,10.66-7.09c4.95.7,8,4.78,8.41,9.79a10,10,0,0,1-1.51,5.86Zm86.72-47.64a5.6,5.6,0,0,0-5.4,5.09c-.38,14.88-1.88,26-3.76,26s-3.37-11.1-3.75-26a5.61,5.61,0,0,0-5.41-5.09c-6.45-.54-10.81-1.69-10.81-3s4.43-2.39,10.89-3a5.58,5.58,0,0,0,5.4-5.09c.46-13.87,2-24,3.68-24s3.23,10.17,3.68,24a5.6,5.6,0,0,0,5.41,5.09c6.46.54,10.89,1.7,10.89,3S389.62,425.24,383.16,425.78Zm12-107.14a9.75,9.75,0,0,1,1.27,1.77c.45.62,1,1,1.43,1.62,1.65,2.32.15,5.78-1.43,8.1a5.12,5.12,0,0,1-3.53,4c-5.93,1.39-14.41-3.31-12.68-10.56.6-2.54,1.5-5.16,3.52-6.93,1.81-1.54,4.73-2.7,6.84-1.08a1.86,1.86,0,0,1,.67,1.08.34.34,0,0,1,.45-.16,6.69,6.69,0,0,1,3.46,2.16ZM464.1,129c-13.06,11.64-27,22.12-40.92,32.6-6.68,5.09-13.21,10.41-19.44,16-2.56,2.24-5.11,4.47-7.59,6.79l-1.57,1.38a17,17,0,0,0-1.58,1.7,102.41,102.41,0,0,0-6.53,8.71c-6.16,4.78-11.41,9.71-13.37,12.33a4.06,4.06,0,0,0-.6.93c-.07.08,0,.15.08.15a3.56,3.56,0,0,0,.9-.31c4.13-1.23,7.58-3.93,11.26-6l1.8-.92a.34.34,0,0,0,.38.07c5.48-2.23,10.36-.23,15.84-.84,4.58-.54,9-2.32,13.51-3.16a70.78,70.78,0,0,1,7.06-.85c1.65-.08,3.31-.16,5-.16a66.51,66.51,0,0,0-9.69,9.87l-.22.23c-7.59,9.64-13.52,20.5-21.33,30q-2.93,3.59-6.08,6.93a136,136,0,0,1-20.42,18.19C362.14,268.77,352.61,273,345,280c-.53.15-.68.38-1.43,1.31-7.66,4.08-15.69,8.32-23.88,13.26,21.55-4.4,36.79-7.48,54.44-11.1-17.65,50.79-58.19,72-102.79,95.58,8.94,1.85,13.82,2.93,29.06,6.16-39,12.8-59.69,37.39-74.48,65.52-3.38,7.63-6.61,15.34-9.54,23.28-4.88,13.18-7.51,27.29-12.76,40.24-1.58,3.85-6.61,2.39-6.08-1.7,1.8-13.49,6.75-27,10.58-40.16C224,394,254.25,322.73,296.82,257.44c2.18-4,4.35-8,6.61-12,7.43-13.26,15.09-26.44,23-39.39,4-6.48,8-12.95,12.17-19.27,1.12-1.78,2.25-3.47,3.45-5.24-.3-.24-.6-.39-.9-.62C316,215.43,288.34,248.34,266.56,285c-22,37.15-38.06,77.93-57.14,118-16.51-40.85-1.57-113.39,35.67-173.74,1.65,6.86,3.08,12.64,6.38,26.28a11.09,11.09,0,0,0,.15-1.62v-4.16a1.18,1.18,0,0,0,1.5-.85c7.36-29.21,19.22-57,37.77-80.62,9.31-11.87,20.2-22,31.83-31.45,3.53-2.93,7.21-5.71,10.74-8.56,3-2.39,5.93-4.78,8.78-7.24a52.65,52.65,0,0,0,4.28-4.17c8.41-5.62,17-10.86,25.76-15.72-3.46,8.63-5.18,17.27.52,18.73a3.88,3.88,0,0,0,3.46-.69.82.82,0,0,0,.82.23c6.46-2.55,11.41-7.63,17.05-11.64A112,112,0,0,1,414,96.19c13.59-6,27.93-9,42.57-11,18.17-2.46,36.94-4.08,53.69-11-11.94,21-28.38,39-46.18,54.81Z" transform="translate(-40.42 -12.63)"/><path class="cls-1" d="M391.27,317.1a2.21,2.21,0,0,1-.3.62c-1,1.08-2.1,1.92-2.7,3.31a4.7,4.7,0,0,0-.45,1.39c0,.08.07.15.15.23.6.77-.83-1,.37.54.53.69.15.38.76.69a.22.22,0,0,0,.15.08.24.24,0,0,1,.15.08,1.76,1.76,0,0,0,.6.07,12,12,0,0,1,2.32,0,4.54,4.54,0,0,1,1.43.47,1.18,1.18,0,0,0,.23-.31,14.11,14.11,0,0,0,.75-2.31c.07-.31.3-.39.37-.7a3.65,3.65,0,0,0-.67-1.92,4.91,4.91,0,0,0-2.78-2c-.3-.08-.38-.15-.38-.23Z" transform="translate(-40.42 -12.63)"/><path class="cls-1" d="M507.5,485.06a36,36,0,0,0-15.69.15c-12.47,2.47-24.86,4.24-37.17,7.79-13.66,3.93-26.88,8.55-40.24,13.49-12.92,4.78-25.76,8.09-38.89,12-.91.23-1.51-1.15-.68-1.54,6.53-3.08,12.54-7,19.15-9.94a39.7,39.7,0,0,0-5.11,1.69c-.6.08-1.13.23-1.73.31,12.32-4.7,24.4-9.63,36.64-14.72q12.84-5.32,25.68-10.56a21.89,21.89,0,0,1,2.4-.85c3.61-1.77,7.21-3.7,10.66-5.7,5.19-3,10-5.78,14.87-8.1,8.34-6.24,14.72-15.1,14-26.28a10.55,10.55,0,0,0-2.33-5.71c-3.15,5.17-9.31,9.1-15.39,12.49a15.71,15.71,0,0,1-2.48,3.62,59.36,59.36,0,0,1-9.54,6.79c-1.8,1.08-3.68,2.16-5.55,3.24-4.73,1.54-9.54,4.31-13.14,5.7-2.7,1.08-5.41,2.23-8.19,3.39a1.85,1.85,0,0,0-.37.23q-30.08,17.7-60.67,34.23-31.41,17-63.07,33.22-14.75,7.63-29.58,15c-1.87.92-3.83,1.69-5.7,2.39-.08,0-.08.08-.15.08a49,49,0,0,1-11.27,3c-.15,0-.3.08-.45.08s-.07.15,0,.15c3-.23,6-.46,9-.85a11.6,11.6,0,0,1-1.57,1.31c-.23.16,0,.54.22.47,2.25-.85,4.51-1.62,6.68-2.47a79.12,79.12,0,0,0,12.54-2.93c9.46-3.08,18.32-7.71,27.48-11.56,18.55-7.86,37.84-12,57.29-16.57,39.57-9.41,80.11-11.8,120.36-5.94,10,1.47,19.44.39,23.8-10.33,3.3-8,1.12-15.88-2.71-23a40.13,40.13,0,0,0-9.08-3.85Z" transform="translate(-40.42 -12.63)"/><path class="cls-1" d="M474.69,306c1.8,0,3.38-11.1,3.75-26a5.59,5.59,0,0,1,5.41-5.08c6.46-.54,10.81-1.7,10.81-3s-4.43-2.39-10.89-3a5.58,5.58,0,0,1-5.4-5.08c-.45-13.88-1.95-24-3.68-24s-3.23,10.17-3.68,24a5.59,5.59,0,0,1-5.41,5.08c-6.45.54-10.88,1.7-10.88,3s4.43,2.39,10.81,3a5.58,5.58,0,0,1,5.4,5.08C471.31,294.9,472.81,306,474.69,306Z" transform="translate(-40.42 -12.63)"/><path class="cls-1" d="M200.72,47.78a5.59,5.59,0,0,1,5.4,5.09c.38,14.87,1.88,26,3.76,26s3.37-11.1,3.75-26A5.59,5.59,0,0,1,219,47.78c6.45-.54,10.81-1.7,10.81-3s-4.43-2.39-10.89-3a5.61,5.61,0,0,1-5.41-5.09c-.45-13.87-2-24-3.67-24s-3.23,10.18-3.68,24a5.61,5.61,0,0,1-5.41,5.09c-6.46.54-10.89,1.69-10.89,3S194.26,47.24,200.72,47.78Z" transform="translate(-40.42 -12.63)"/><path class="cls-1" d="M103.11,134.5A9.47,9.47,0,0,0,115.57,137a12.08,12.08,0,0,0,2.48-1.93,11.75,11.75,0,0,0,2.7-4.7c1.2-3.24-.22-7.4-2.47-9.71a9.28,9.28,0,0,0-9.46-2.55,9.73,9.73,0,0,0-4.43,2.7,13,13,0,0,0-1.21,1.54c-.15.24-.37.47-.52.7-.08.08-.08.15-.15.23l.15-.16a10.11,10.11,0,0,0,.45,11.34Z" transform="translate(-40.42 -12.63)"/><path class="cls-1" d="M344.57,45.47a4.17,4.17,0,1,0-4.05-4.16A4.2,4.2,0,0,0,344.57,45.47Z" transform="translate(-40.42 -12.63)"/><path class="cls-1" d="M527.77,377a6.17,6.17,0,1,0,6,6.17A6.16,6.16,0,0,0,527.77,377Z" transform="translate(-40.42 -12.63)"/></svg>