<svg id="Layer_1" data-name="Layer 1" xmlns="http://www.w3.org/2000/svg" viewBox="0 0 575 575"><defs><style>.cls-1{fill:#e9cf96;}</style></defs><path class="cls-1" d="M457.22,26.74c-14.94,13.87-37.26,13-55.89,17.08a89.44,89.44,0,0,0-28.72,11.49c-5.06,3.15-11.52,7.24-16.08,12.32a96.65,96.65,0,0,1,7.17-12.54c2.77-4.2-2.5-8.45-6.35-6.46a205.3,205.3,0,0,0-36.12,23.54c-1.36,1.1-2.82,2.26-4.23,3.48L311.78,65.2a26,26,0,0,0-35.13-11.66L123.07,133.06a26.88,26.88,0,0,0-11.46,35.75L217,379.56a26,26,0,0,0,35.13,11.66L405.79,311.7A26.9,26.9,0,0,0,417.25,276l-52-104c1-.83,1.9-1.71,2.82-2.54,12.82-11.61,19.83-29.68,37-35.48,4.4-1.49,4.67-8,0-9.34a57.49,57.49,0,0,0-14-2.15,60.45,60.45,0,0,0-11.41.72l-1.19.16,4.29-2.65c3.42-2.15,6.84-4.36,10.15-6.74a345.11,345.11,0,0,0,30.85-24.26c15.2-13.54,28.51-29.28,37.58-47.57.27-.56.54-1.11.81-1.61,1.36-2.81,2.61-5.74,3.75-8.67,2.06-5.2-5.16-8.35-8.63-5.09ZM193.77,284.9a2.66,2.66,0,0,1-2.87.11,2.33,2.33,0,0,1-1.31-2.48,2,2,0,0,1,0-.78c.06-.11.11-.27.17-.38v-.06l.05-.11v-.05a3.94,3.94,0,0,1,.76-1.22,2.3,2.3,0,0,1,2.39-.66.62.62,0,0,1-.16,1.21c-.22,0-.33.17-.44.34h.11c.11,0,1,.22.22.05a4.43,4.43,0,0,1,.87.22.65.65,0,0,0-.06-.33c-.16-.5.55-.72.82-.33a2.35,2.35,0,0,1,.27,1.16,1.67,1.67,0,0,1,0,.5,2.3,2.3,0,0,1-.87,2.81ZM183.08,177.26c-4.19.34-7.34,3.37-7.44,7-.55,20.39-2.67,35.64-5.16,35.64s-4.67-15.25-5.16-35.64c-.11-3.59-3.26-6.63-7.44-7-8.91-.77-15-2.32-15-4.09s6.14-3.31,15-4.08c4.18-.34,7.33-3.37,7.44-7,.65-19,2.66-32.93,5.11-32.93s4.45,13.93,5.1,32.93c.11,3.6,3.31,6.58,7.44,7,8.91.77,15,2.32,15,4.08s-6.08,3.38-15,4.09Zm48.49-67.63a5.21,5.21,0,0,1,8.91,3.76,5.22,5.22,0,1,1-8.91-3.76ZM294,330.33c-2.55,4.31-9.5,4.8-12,0a8.56,8.56,0,0,1-.76-6.14,6.93,6.93,0,0,1,7.71-5.08c3.59.5,5.81,3.42,6.09,7a7.26,7.26,0,0,1-1.09,4.2Zm62.72-34.15a4,4,0,0,0-3.91,3.64c-.27,10.67-1.35,18.62-2.71,18.62s-2.45-7.95-2.72-18.62a4,4,0,0,0-3.91-3.64c-4.67-.39-7.82-1.22-7.82-2.16s3.21-1.71,7.88-2.15a4,4,0,0,0,3.91-3.65c.32-10,1.41-17.24,2.66-17.24s2.33,7.29,2.66,17.24a4,4,0,0,0,3.91,3.65c4.67.38,7.87,1.21,7.87,2.15S361.36,295.79,356.69,296.18Zm8.69-76.81a7.51,7.51,0,0,1,.93,1.27c.32.44.7.72,1,1.16,1.19,1.66.11,4.14-1,5.8a3.73,3.73,0,0,1-2.56,2.88c-4.29,1-10.42-2.38-9.17-7.57a9.06,9.06,0,0,1,2.55-5c1.3-1.1,3.42-1.93,4.94-.77a1.39,1.39,0,0,1,.49.77.24.24,0,0,1,.32-.11,4.8,4.8,0,0,1,2.5,1.55Zm49.86-136c-9.45,8.35-19.55,15.86-29.6,23.38-4.83,3.64-9.56,7.46-14.07,11.49-1.84,1.6-3.69,3.2-5.48,4.86l-1.14,1a10.88,10.88,0,0,0-1.14,1.21,75.89,75.89,0,0,0-4.73,6.25c-4.45,3.42-8.25,7-9.66,8.84a2.64,2.64,0,0,0-.44.66c-.05.06,0,.11.06.11a2.93,2.93,0,0,0,.65-.22c3-.88,5.48-2.82,8.14-4.31l1.31-.66a.23.23,0,0,0,.27,0c4-1.6,7.49-.16,11.46-.61,3.31-.38,6.51-1.65,9.77-2.26,1.69-.28,3.42-.5,5.11-.61,1.19-.05,2.39-.11,3.58-.11a47.74,47.74,0,0,0-7,7.07l-.17.17c-5.48,6.91-9.77,14.7-15.42,21.49-1.41,1.72-2.88,3.37-4.4,5a99.32,99.32,0,0,1-14.77,13c-6.08,4.42-13,7.46-18.52,12.43-.38.11-.49.28-1,.94-5.54,2.93-11.35,6-17.27,9.5,15.59-3.15,26.61-5.36,39.37-7.95-12.76,36.41-42.09,51.61-74.34,68.52,6.46,1.32,10,2.1,21,4.42-28.24,9.17-43.17,26.8-53.87,47-2.44,5.47-4.78,11-6.9,16.69-3.53,9.45-5.43,19.56-9.23,28.85a2.28,2.28,0,0,1-4.4-1.22c1.31-9.67,4.89-19.34,7.66-28.79,11.51-56.14,33.4-107.25,64.19-154,1.58-2.88,3.15-5.75,4.78-8.62,5.38-9.51,10.92-19,16.62-28.24,2.88-4.64,5.75-9.28,8.8-13.81.81-1.28,1.62-2.49,2.49-3.76-.21-.17-.43-.28-.65-.44-18.14,24.75-38.18,48.35-53.92,74.59-15.92,26.64-27.54,55.87-41.33,84.6-11.95-29.29-1.14-81.28,25.79-124.55,1.2,4.92,2.23,9.06,4.62,18.84a8.93,8.93,0,0,0,.11-1.16v-3a.86.86,0,0,0,1.08-.61c5.33-20.94,13.91-40.83,27.32-57.8,6.73-8.51,14.61-15.74,23-22.54,2.55-2.1,5.21-4.09,7.76-6.13,2.17-1.72,4.29-3.43,6.36-5.2a41.37,41.37,0,0,0,3.09-3q9.12-6.06,18.63-11.28c-2.5,6.19-3.75,12.38.38,13.43a2.8,2.8,0,0,0,2.5-.5.58.58,0,0,0,.59.17c4.68-1.82,8.26-5.47,12.33-8.34A81.14,81.14,0,0,1,379,59.9c9.83-4.31,20.21-6.47,30.8-7.9,13.14-1.77,26.71-2.93,38.82-7.91-8.63,15-20.52,28-33.39,39.29Z"/><path class="cls-1" d="M362.56,218.26a1.87,1.87,0,0,1-.22.45,9.08,9.08,0,0,0-1.95,2.37,3.26,3.26,0,0,0-.33,1,.26.26,0,0,0,.11.16c.43.56-.6-.72.27.39.38.5.11.28.54.5a.19.19,0,0,0,.11.05.16.16,0,0,1,.11.06,1.32,1.32,0,0,0,.44,0,8.57,8.57,0,0,1,1.68,0,3.45,3.45,0,0,1,1,.33.57.57,0,0,0,.16-.22,9.68,9.68,0,0,0,.55-1.65c.05-.23.21-.28.27-.5a2.65,2.65,0,0,0-.49-1.38,3.55,3.55,0,0,0-2-1.44c-.22-.06-.27-.11-.27-.17Z"/><path class="cls-1" d="M446.63,338.67a26.18,26.18,0,0,0-11.35.11c-9,1.77-18,3-26.89,5.58-9.88,2.82-19.44,6.13-29.1,9.67-9.35,3.43-18.63,5.8-28.14,8.62-.65.17-1.08-.83-.48-1.1,4.72-2.22,9.06-5,13.84-7.13a30,30,0,0,0-3.69,1.21c-.43.06-.81.17-1.25.22,8.91-3.37,17.65-6.9,26.5-10.55,6.19-2.54,12.39-5.08,18.58-7.57a17.6,17.6,0,0,1,1.73-.61c2.61-1.27,5.22-2.65,7.72-4.09,3.74-2.15,7.22-4.14,10.75-5.8,6-4.48,10.64-10.83,10.1-18.84a7.57,7.57,0,0,0-1.68-4.09c-2.28,3.7-6.74,6.52-11.14,8.95a11.52,11.52,0,0,1-1.79,2.6,43.29,43.29,0,0,1-6.9,4.86c-1.3.77-2.66,1.55-4,2.32-3.43,1.11-6.9,3.1-9.51,4.09-1.95.77-3.91,1.6-5.92,2.43a1.05,1.05,0,0,0-.27.17Q372,342.4,349.85,354.25q-22.73,12.18-45.62,23.82c-7.11,3.64-14.22,7.24-21.39,10.77a42.54,42.54,0,0,1-4.13,1.72c-.06,0-.06.05-.11.05a35.7,35.7,0,0,1-8.15,2.16c-.1,0-.21.05-.32.05s-.06.11,0,.11c2.17-.16,4.34-.33,6.52-.61a9.33,9.33,0,0,1-1.14.94c-.17.11,0,.39.16.33,1.63-.6,3.26-1.16,4.83-1.76a59.22,59.22,0,0,0,9.07-2.1c6.84-2.21,13.25-5.53,19.88-8.29,13.41-5.64,27.37-8.57,41.43-11.88a233.32,233.32,0,0,1,87.06-4.26c7.22,1.05,14.06.28,17.21-7.4,2.39-5.75.82-11.38-1.95-16.47a29.24,29.24,0,0,0-6.57-2.76Z"/><path class="cls-1" d="M422.89,210.31c1.31,0,2.45-8,2.72-18.62a4,4,0,0,1,3.91-3.65c4.67-.39,7.82-1.22,7.82-2.16s-3.21-1.71-7.88-2.15a4,4,0,0,1-3.91-3.65c-.32-9.94-1.41-17.24-2.66-17.24s-2.33,7.3-2.66,17.24a4,4,0,0,1-3.91,3.65c-4.67.39-7.87,1.21-7.87,2.15s3.2,1.72,7.82,2.16a4,4,0,0,1,3.91,3.65C420.45,202.35,421.54,210.31,422.89,210.31Z"/><path class="cls-1" d="M224.73,25.2a4,4,0,0,1,3.91,3.64c.27,10.67,1.36,18.63,2.71,18.63s2.45-8,2.72-18.63A4,4,0,0,1,238,25.2c4.67-.39,7.82-1.22,7.82-2.16s-3.2-1.71-7.87-2.15A4,4,0,0,1,234,17.24C233.69,7.29,232.6,0,231.35,0S229,7.29,228.69,17.24a4,4,0,0,1-3.91,3.65c-4.67.38-7.87,1.21-7.87,2.15S220.06,24.81,224.73,25.2Z"/><path class="cls-1" d="M154.13,87.36a6.88,6.88,0,0,0,9,1.82,8.21,8.21,0,0,0,1.8-1.38,8.43,8.43,0,0,0,1.95-3.37c.87-2.32-.16-5.3-1.79-7a6.73,6.73,0,0,0-6.84-1.82,7,7,0,0,0-3.21,1.93,9.69,9.69,0,0,0-.87,1.11c-.1.16-.27.33-.38.49s-.05.11-.1.17l.1-.11a7.17,7.17,0,0,0,.33,8.12Z"/><path class="cls-1" d="M328.78,23.54a3,3,0,1,0-2.93-3A3.05,3.05,0,0,0,328.78,23.54Z"/><path class="cls-1" d="M461.29,261.2a4.42,4.42,0,1,0,4.34,4.42A4.44,4.44,0,0,0,461.29,261.2Z"/><path class="cls-1" d="M102.82,542.25l-.91,1.81a1.48,1.48,0,0,1-.36.43.8.8,0,0,1-.5.17,1.33,1.33,0,0,1-.78-.35c-.28-.22-.65-.46-1.09-.74a9.78,9.78,0,0,0-1.61-.72,6.58,6.58,0,0,0-2.27-.34,6.66,6.66,0,0,0-2.23.34,4.92,4.92,0,0,0-1.62.93,4.06,4.06,0,0,0-1,1.39,4.48,4.48,0,0,0-.32,1.73,3.15,3.15,0,0,0,.57,1.94,4.88,4.88,0,0,0,1.5,1.34,13.52,13.52,0,0,0,2.13,1l2.44.83c.83.3,1.64.62,2.43,1a8.41,8.41,0,0,1,2.13,1.36,6,6,0,0,1,1.5,2,6.68,6.68,0,0,1,.57,2.93,9.67,9.67,0,0,1-.61,3.47,7.92,7.92,0,0,1-1.82,2.82,8.31,8.31,0,0,1-2.91,1.9,10.72,10.72,0,0,1-3.93.67,12.09,12.09,0,0,1-4.91-1,11.54,11.54,0,0,1-3.77-2.68l1.09-1.83a1.5,1.5,0,0,1,.36-.35.83.83,0,0,1,.5-.16,1.56,1.56,0,0,1,.93.44,11.26,11.26,0,0,0,1.3,1,10.93,10.93,0,0,0,1.91,1,7.41,7.41,0,0,0,2.7.44,6.8,6.8,0,0,0,2.39-.4,4.69,4.69,0,0,0,1.75-1,4.38,4.38,0,0,0,1.11-1.62,5.46,5.46,0,0,0,.39-2.1,3.67,3.67,0,0,0-.57-2.11,4.81,4.81,0,0,0-1.5-1.36,11.16,11.16,0,0,0-2.11-.93l-2.43-.78a20.45,20.45,0,0,1-2.44-.93,7.65,7.65,0,0,1-2.11-1.39,6.07,6.07,0,0,1-1.5-2.1,8.27,8.27,0,0,1,0-6,7.42,7.42,0,0,1,1.66-2.47A7.83,7.83,0,0,1,91.57,540a9.82,9.82,0,0,1,3.68-.64,11.29,11.29,0,0,1,4.23.76A9.73,9.73,0,0,1,102.82,542.25Zm18.5,25.88a4.76,4.76,0,0,1-3.57-1.29,5.34,5.34,0,0,1-1.25-3.8V550.83h-2.34a.75.75,0,0,1-.52-.18.72.72,0,0,1-.23-.58v-1.39l3.23-.42.77-6.15a.8.8,0,0,1,.25-.48.82.82,0,0,1,.55-.19H120v6.87h5.59v2.52H120v12a2.54,2.54,0,0,0,.59,1.87,2.06,2.06,0,0,0,1.54.6,2.62,2.62,0,0,0,.94-.14,2.87,2.87,0,0,0,.68-.32l.5-.32a.61.61,0,0,1,.36-.14.59.59,0,0,1,.48.32l1,1.67a6.38,6.38,0,0,1-2.14,1.34A7.32,7.32,0,0,1,121.32,568.13Zm19.66-.3h-3.45V547.92h2a1.09,1.09,0,0,1,.77.21,1.56,1.56,0,0,1,.29.74l.23,3.12a9.05,9.05,0,0,1,2.48-3.26,5.47,5.47,0,0,1,3.48-1.16,5.09,5.09,0,0,1,1.45.19,5.56,5.56,0,0,1,1.23.5l-.46,2.62a.57.57,0,0,1-.59.48,3.16,3.16,0,0,1-.84-.18A5.08,5.08,0,0,0,146,551a4.42,4.42,0,0,0-3,1.07,7.89,7.89,0,0,0-2,3.1Zm33.48-12.74v12.74h-1.52a1.6,1.6,0,0,1-.79-.16.84.84,0,0,1-.41-.67l-.39-1.85a18.26,18.26,0,0,1-1.52,1.27,8.83,8.83,0,0,1-1.55,1,7.18,7.18,0,0,1-1.73.58,10.39,10.39,0,0,1-2,.18,7.1,7.1,0,0,1-2.14-.32,4.84,4.84,0,0,1-1.72-1,4.58,4.58,0,0,1-1.19-1.65,5.94,5.94,0,0,1-.43-2.33,4.49,4.49,0,0,1,.64-2.27,5.66,5.66,0,0,1,2.07-1.94,12.86,12.86,0,0,1,3.7-1.39,29.26,29.26,0,0,1,5.64-.62v-1.55a5.49,5.49,0,0,0-1-3.52,3.54,3.54,0,0,0-2.88-1.18,5.86,5.86,0,0,0-2.12.33,8.74,8.74,0,0,0-1.5.71c-.42.28-.78.53-1.07.74a1.52,1.52,0,0,1-.91.33,1,1,0,0,1-.61-.19,1.51,1.51,0,0,1-.41-.46l-.61-1.13a11,11,0,0,1,3.5-2.36,10.41,10.41,0,0,1,4.13-.79,7.67,7.67,0,0,1,2.94.53,5.87,5.87,0,0,1,2.13,1.55A6.47,6.47,0,0,1,174,552,10.24,10.24,0,0,1,174.46,555.09Zm-8.91,10.59a6.58,6.58,0,0,0,1.66-.19,6.12,6.12,0,0,0,1.41-.53,7.19,7.19,0,0,0,1.28-.83,11.11,11.11,0,0,0,1.2-1.11v-4.16a29.59,29.59,0,0,0-4,.39,11.08,11.08,0,0,0-2.7.79,4,4,0,0,0-1.52,1.15,2.54,2.54,0,0,0-.48,1.51,3.34,3.34,0,0,0,.25,1.36,3.11,3.11,0,0,0,.68.93,2.75,2.75,0,0,0,1,.53A4.7,4.7,0,0,0,165.55,565.68Zm22.26-17.76h3.43v19.91h-3.43Zm4.2-6.25a2.31,2.31,0,0,1-.2,1,2.88,2.88,0,0,1-.55.79,2.08,2.08,0,0,1-.77.53,2.24,2.24,0,0,1-1,.21,2.11,2.11,0,0,1-.93-.21,2.36,2.36,0,0,1-.77-.53,2.41,2.41,0,0,1-.52-.79,2.17,2.17,0,0,1-.21-1,2.38,2.38,0,0,1,.21-1,2.14,2.14,0,0,1,.52-.79,2.78,2.78,0,0,1,.77-.55,2.24,2.24,0,0,1,.93-.19,2.28,2.28,0,0,1,1.73.74,2.49,2.49,0,0,1,.55.79A2.54,2.54,0,0,1,192,541.67Zm19.62,5.9a9.07,9.07,0,0,1,2.38.3,7.34,7.34,0,0,1,2,.83h5.32V550c0,.43-.28.71-.82.83l-2.23.3A6.11,6.11,0,0,1,219,554a6.3,6.3,0,0,1-.55,2.66,6.48,6.48,0,0,1-1.52,2,7,7,0,0,1-2.32,1.3,9.51,9.51,0,0,1-3,.44,9.88,9.88,0,0,1-2.59-.33,3.29,3.29,0,0,0-.94.86,1.48,1.48,0,0,0-.31.88,1.21,1.21,0,0,0,.54,1.06,3.83,3.83,0,0,0,1.5.53,17.75,17.75,0,0,0,2.12.19c.77,0,1.56.08,2.38.14a16,16,0,0,1,2.41.3,7.54,7.54,0,0,1,2.12.69,4,4,0,0,1,1.47,1.37,4,4,0,0,1,.57,2.24,5.14,5.14,0,0,1-.64,2.47,6.21,6.21,0,0,1-1.79,2.13,9.07,9.07,0,0,1-2.89,1.5,12.31,12.31,0,0,1-3.84.56,14.51,14.51,0,0,1-3.75-.44,8.18,8.18,0,0,1-2.68-1.16,4.81,4.81,0,0,1-1.59-1.66,4,4,0,0,1-.55-2,3.62,3.62,0,0,1,.93-2.5,6.15,6.15,0,0,1,2.53-1.64,3.48,3.48,0,0,1-1.32-1,2.93,2.93,0,0,1-.5-1.78,2.57,2.57,0,0,1,.16-.88,3.7,3.7,0,0,1,.47-.93,5.57,5.57,0,0,1,.78-.85,4.44,4.44,0,0,1,1.09-.74,6,6,0,0,1-2.27-2.18,6.08,6.08,0,0,1-.82-3.21,6.36,6.36,0,0,1,.54-2.64,5.73,5.73,0,0,1,1.53-2,6.84,6.84,0,0,1,2.36-1.3A9.17,9.17,0,0,1,211.63,547.57Zm6.11,21.35a1.69,1.69,0,0,0-.41-1.21,2.57,2.57,0,0,0-1.11-.69,7.44,7.44,0,0,0-1.59-.37c-.61-.08-1.24-.13-1.91-.16l-2.07-.12c-.68,0-1.34-.11-2-.2a5.46,5.46,0,0,0-1.79,1.29,2.64,2.64,0,0,0-.69,1.83,2.43,2.43,0,0,0,.35,1.25,2.86,2.86,0,0,0,1,1,6.33,6.33,0,0,0,1.75.67,10.79,10.79,0,0,0,2.5.26,11,11,0,0,0,2.48-.26,5.65,5.65,0,0,0,1.86-.74,3.42,3.42,0,0,0,1.18-1.11A2.56,2.56,0,0,0,217.74,568.92Zm-6.11-10.83a5.22,5.22,0,0,0,1.84-.3,3.42,3.42,0,0,0,2.16-2.08,4.67,4.67,0,0,0,.27-1.62,3.9,3.9,0,0,0-1.09-2.91,5.15,5.15,0,0,0-6.34,0,3.9,3.9,0,0,0-1.09,2.91,4.67,4.67,0,0,0,.27,1.62,3.81,3.81,0,0,0,.82,1.27,3.42,3.42,0,0,0,1.34.81A5.15,5.15,0,0,0,211.63,558.09ZM236,567.83h-3.43v-29H236v11.71a10.23,10.23,0,0,1,2.79-2.15,7.16,7.16,0,0,1,3.5-.84,6.87,6.87,0,0,1,2.85.56,5.26,5.26,0,0,1,2,1.53,6.83,6.83,0,0,1,1.25,2.38,11.18,11.18,0,0,1,.41,3.1v12.67h-3.43V555.16a5.43,5.43,0,0,0-1-3.52,3.75,3.75,0,0,0-3.1-1.25,5.76,5.76,0,0,0-2.84.74,9.54,9.54,0,0,0-2.45,2Zm31.71.3a4.73,4.73,0,0,1-3.57-1.29,5.29,5.29,0,0,1-1.25-3.8V550.83H260.5a.77.77,0,0,1-.53-.18.72.72,0,0,1-.22-.58v-1.39l3.2-.42.8-6.15a.75.75,0,0,1,.25-.48.79.79,0,0,1,.54-.19h1.75v6.87h5.59v2.52h-5.59v12a2.59,2.59,0,0,0,.59,1.87,2.09,2.09,0,0,0,1.55.6,2.6,2.6,0,0,0,.93-.14,2.87,2.87,0,0,0,.68-.32l.5-.32a.64.64,0,0,1,.37-.14.57.57,0,0,1,.47.32l1,1.67a6.44,6.44,0,0,1-2.13,1.34A7.41,7.41,0,0,1,267.66,568.13ZM283,557.52v-3h9.54v3Zm22.57-17.86H322.6v3.1H309.32v9.85h11.34v3.1H309.32v12.12h-3.77Zm35.62,7.93a9.83,9.83,0,0,1,3.88.74,8.07,8.07,0,0,1,2.93,2.06,9.21,9.21,0,0,1,1.85,3.24,14.19,14.19,0,0,1,0,8.49,9.08,9.08,0,0,1-1.85,3.21,8,8,0,0,1-2.93,2.06,10.79,10.79,0,0,1-7.75,0,8.11,8.11,0,0,1-2.95-2.06,9.27,9.27,0,0,1-1.87-3.21,14,14,0,0,1,0-8.49,9.41,9.41,0,0,1,1.87-3.24,8.23,8.23,0,0,1,2.95-2.06A9.78,9.78,0,0,1,341.17,547.59Zm0,17.79a5,5,0,0,0,4.34-2,9.25,9.25,0,0,0,1.43-5.5,9.43,9.43,0,0,0-1.43-5.56,5,5,0,0,0-4.34-2,6.14,6.14,0,0,0-2.55.5,4.64,4.64,0,0,0-1.8,1.48,7,7,0,0,0-1.09,2.39,12.63,12.63,0,0,0-.36,3.17,12.77,12.77,0,0,0,.36,3.16,6.67,6.67,0,0,0,1.09,2.34,4.82,4.82,0,0,0,1.8,1.48A6,6,0,0,0,341.17,565.38Zm24.73,2.45h-3.44V547.92h2a1.13,1.13,0,0,1,.77.21,1.38,1.38,0,0,1,.28.74l.25,3.12a9,9,0,0,1,2.47-3.26,5.47,5.47,0,0,1,3.46-1.16,5.39,5.39,0,0,1,2.7.69l-.45,2.62a.58.58,0,0,1-.59.48,3.16,3.16,0,0,1-.84-.18,5.35,5.35,0,0,0-1.57-.19,4.36,4.36,0,0,0-3,1.07,8,8,0,0,0-2,3.1Zm23.66,0-6.34-19.91h2.7a1,1,0,0,1,.68.21,1.39,1.39,0,0,1,.39.5l3.73,12.84c.1.46.2.92.29,1.36s.17.88.23,1.32q.17-.66.36-1.32c.12-.44.26-.9.41-1.36l4.12-12.9a1,1,0,0,1,.34-.49.9.9,0,0,1,.61-.21h1.5a1,1,0,0,1,.64.21.91.91,0,0,1,.34.49l4,12.9c.14.45.26.89.37,1.34s.21.89.32,1.32c.06-.43.14-.89.25-1.36s.22-.9.34-1.3l3.82-12.84a.94.94,0,0,1,.36-.5,1,1,0,0,1,.64-.21h2.59L406,567.83h-2.73c-.34,0-.56-.22-.68-.67l-4.35-13.51c-.09-.31-.17-.61-.25-.9l-.18-.92c-.06.3-.13.61-.2.92a8,8,0,0,1-.25.93l-4.39,13.48a.78.78,0,0,1-.77.67Zm47.91-12.74v12.74h-1.54a1.65,1.65,0,0,1-.8-.16.87.87,0,0,1-.41-.67l-.38-1.85c-.52.48-1,.9-1.5,1.27a10.08,10.08,0,0,1-1.55,1,7.82,7.82,0,0,1-1.73.58,10.75,10.75,0,0,1-2,.18,7.1,7.1,0,0,1-2.14-.32,4.88,4.88,0,0,1-1.73-1,4.94,4.94,0,0,1-1.18-1.65,5.77,5.77,0,0,1-.43-2.33,4.39,4.39,0,0,1,.64-2.27,5.71,5.71,0,0,1,2.06-1.94,13,13,0,0,1,3.73-1.39,29.13,29.13,0,0,1,5.62-.62v-1.55a5.49,5.49,0,0,0-1-3.52,3.56,3.56,0,0,0-2.89-1.18,5.92,5.92,0,0,0-2.11.33,8.07,8.07,0,0,0-1.5.71l-1.07.74a1.54,1.54,0,0,1-.91.33,1,1,0,0,1-.61-.19,1.39,1.39,0,0,1-.41-.46l-.62-1.13a11.21,11.21,0,0,1,3.5-2.36,10.53,10.53,0,0,1,4.16-.79,7.59,7.59,0,0,1,2.91.53,6,6,0,0,1,2.14,1.55A6.2,6.2,0,0,1,437,552a9.92,9.92,0,0,1,.45,3.06Zm-8.93,10.59a6.58,6.58,0,0,0,1.66-.19,6.12,6.12,0,0,0,1.41-.53,8.08,8.08,0,0,0,1.29-.83,12.07,12.07,0,0,0,1.19-1.11v-4.16a29.43,29.43,0,0,0-4,.39,11,11,0,0,0-2.71.79,4.12,4.12,0,0,0-1.52,1.15,2.65,2.65,0,0,0-.45,1.51,3.34,3.34,0,0,0,.25,1.36,2.62,2.62,0,0,0,.66.93,2.68,2.68,0,0,0,1,.53A4.45,4.45,0,0,0,428.54,565.68Zm25.3,2.15h-3.43V547.92h2a1.16,1.16,0,0,1,.78.21,1.56,1.56,0,0,1,.29.74l.23,3.12a9.05,9.05,0,0,1,2.48-3.26,5.46,5.46,0,0,1,3.47-1.16,5.16,5.16,0,0,1,1.46.19,5.56,5.56,0,0,1,1.23.5l-.46,2.62a.58.58,0,0,1-.59.48,3.16,3.16,0,0,1-.84-.18,5.21,5.21,0,0,0-1.57-.19,4.36,4.36,0,0,0-3,1.07,8,8,0,0,0-2,3.1Zm35.68,0h-2a.89.89,0,0,1-.93-.74l-.3-2.4a10.27,10.27,0,0,1-2.86,2.47,7.21,7.21,0,0,1-3.71,1,6.89,6.89,0,0,1-3-.67,6.13,6.13,0,0,1-2.35-1.92,9.53,9.53,0,0,1-1.5-3.19,17.19,17.19,0,0,1-.52-4.4,13.8,13.8,0,0,1,.59-4.09,9.8,9.8,0,0,1,1.66-3.29,7.69,7.69,0,0,1,2.66-2.19,7.81,7.81,0,0,1,3.57-.79,7.15,7.15,0,0,1,3.07.6,7.33,7.33,0,0,1,2.27,1.76V538.87h3.43Zm-8.7-2.57a5.53,5.53,0,0,0,2.95-.78,8.79,8.79,0,0,0,2.32-2.22v-9.62a5.49,5.49,0,0,0-2.07-1.83,6,6,0,0,0-2.5-.51,4.92,4.92,0,0,0-4.22,2,9.36,9.36,0,0,0-1.46,5.64,15.15,15.15,0,0,0,.32,3.33,6.62,6.62,0,0,0,1,2.29,3.8,3.8,0,0,0,1.56,1.32,5.38,5.38,0,0,0,2.12.39Z"/><path class="cls-1" d="M35.07,488.11h-5.7q0-3.71-1.12-5.37a4.7,4.7,0,0,0-3.07-2.05,17.63,17.63,0,0,0-4.27-.31l-2.25.07v14.44c0,1.57,0,3.06-.09,4.46s-.14,2.5-.25,3.26H29.89a11.19,11.19,0,0,0,5-1.18,9.34,9.34,0,0,0,4-3.95A15.52,15.52,0,0,0,40.41,490H46l-.43,19.33H0v-5.8A12.81,12.81,0,0,0,3.32,503a3.57,3.57,0,0,0,2.07-2,12.86,12.86,0,0,0,.75-5.12V462.18c0-1.58,0-3.11.13-4.58s.15-2.57.21-3.33c-.93.07-2.08.11-3.46.14s-2.38.07-3,.12v-6.76H43.19l.52,17.05H38q0-4.83-1.63-7.29a7.91,7.91,0,0,0-4.07-3.3,12.84,12.84,0,0,0-4.75-.74l-3.12.09a8.71,8.71,0,0,0-3.09.49,3.52,3.52,0,0,0-2,2.1,13.94,13.94,0,0,0-.68,5v13.18H28.75l-.34-7.63h6.66Zm45.35-40.34v5.81a12.85,12.85,0,0,0-3.3.51,3.54,3.54,0,0,0-2.11,2,12.84,12.84,0,0,0-.73,5.13v33.68c0,1.57,0,3.09-.09,4.55s-.14,2.58-.25,3.36a32.94,32.94,0,0,1,3.5-.24c1.41,0,2.4,0,3,0v6.77H55.62v-5.8A12.83,12.83,0,0,0,59,503,3.62,3.62,0,0,0,61,501a13.31,13.31,0,0,0,.73-5.12V462.18c0-1.58,0-3.11.13-4.58s.15-2.57.21-3.33c-.93.07-2.08.11-3.46.14s-2.38.07-3,.12v-6.76Zm37.48,62.94A29,29,0,0,1,102,506.52a27.06,27.06,0,0,1-10-11.29,35.68,35.68,0,0,1-3.46-15.82,38.81,38.81,0,0,1,1.87-11.86A33.37,33.37,0,0,1,96,456.86a27,27,0,0,1,9.36-7.63,28.82,28.82,0,0,1,13.18-2.87,32.86,32.86,0,0,1,5.25.49,39.56,39.56,0,0,1,5.94,1.46,24.25,24.25,0,0,1,5.29,2.36l-.34-3.68h6.66v20.47H135.7a19.47,19.47,0,0,0-3-8.17,14.68,14.68,0,0,0-5.61-4.92,16.51,16.51,0,0,0-7.43-1.67,14.23,14.23,0,0,0-7.82,2.11,17.14,17.14,0,0,0-5.48,5.62,27.69,27.69,0,0,0-3.25,8,39.77,39.77,0,0,0-1.07,9.23,40.26,40.26,0,0,0,2.07,13.43,20.78,20.78,0,0,0,6.09,9.28,14.86,14.86,0,0,0,9.89,3.37,35.13,35.13,0,0,0,3.89-.25,37.22,37.22,0,0,0,4.5-.79,17,17,0,0,0,3.79-1.32V493.2c0-1.58,0-3.09.12-4.56s.16-2.58.22-3.35c-.92.06-2.07.11-3.45.14s-2.39.07-3,.14v-6.78h23v5.8a16,16,0,0,0-2.55.35,3.9,3.9,0,0,0-1.82,1,4.74,4.74,0,0,0-1.09,2.24,18.76,18.76,0,0,0-.34,4.05v14.06h-2.07a18.72,18.72,0,0,0-5,.69c-1.68.47-3.47,1-5.36,1.58s-3.75,1-5.87,1.45a34.41,34.41,0,0,1-7.09.68Zm63.49-1.42h-24.8v-5.8a12.9,12.9,0,0,0,3.34-.53,3.57,3.57,0,0,0,2.07-2,13.35,13.35,0,0,0,.72-5.12V462.18c0-1.58.05-3.11.14-4.58l.2-3.33c-.9.07-2.06.11-3.45.14s-2.39.07-3,.12v-6.76h24.8v5.81a12.48,12.48,0,0,0-3.28.51,3.54,3.54,0,0,0-2.13,2,12.84,12.84,0,0,0-.73,5.13v13.72H199V462.18c0-1.58,0-3.11.09-4.58s.15-2.57.25-3.33c-.91.07-2.06.11-3.45.14s-2.39.07-3,.12v-6.76h24.8v5.81a12.47,12.47,0,0,0-3.27.51,3.53,3.53,0,0,0-2.14,2,13.07,13.07,0,0,0-.72,5.13v33.68c0,1.57,0,3.09-.1,4.55a26.26,26.26,0,0,1-.25,3.36,33.34,33.34,0,0,1,3.5-.24c1.41,0,2.41,0,3,0v6.77h-24.8v-5.8a12.91,12.91,0,0,0,3.35-.53,3.53,3.53,0,0,0,2.06-2,13.12,13.12,0,0,0,.73-5.12V481.61l-23.75.25v13c0,1.57,0,3.09-.09,4.55a30.57,30.57,0,0,1-.25,3.36,32.94,32.94,0,0,1,3.5-.24c1.41,0,2.4,0,3,0Zm97-41.65h-5.68a20.59,20.59,0,0,0-1.29-7.86,9.92,9.92,0,0,0-3.69-4.67,9.75,9.75,0,0,0-5.66-1.46h-4.13v41.24c0,1.57,0,3.09-.09,4.55s-.15,2.58-.25,3.36a37,37,0,0,1,3.75-.24c1.53,0,2.58,0,3.16,0v6.77H239.26v-5.8a12.73,12.73,0,0,0,3.31-.53,3.51,3.51,0,0,0,2.07-2,12.86,12.86,0,0,0,.75-5.12V453.74h-4a10,10,0,0,0-7.77,3.42q-2.83,3.36-2.84,10.48h-5.71l.44-19.87h52.34l.5,19.87ZM321,488.11h-5.71q0-3.71-1.11-5.37a4.72,4.72,0,0,0-3.07-2.05,17.67,17.67,0,0,0-4.27-.31l-2.25.07v14.44c0,1.57,0,3.06-.09,4.46s-.15,2.5-.25,3.26h11.57a11.23,11.23,0,0,0,5-1.18,9.34,9.34,0,0,0,4-3.95,15.52,15.52,0,0,0,1.54-7.52h5.62l-.44,19.33H285.9v-5.8a12.81,12.81,0,0,0,3.32-.53,3.63,3.63,0,0,0,2.09-2,13.35,13.35,0,0,0,.72-5.12V462.18c0-1.58.05-3.11.14-4.58s.14-2.57.21-3.33c-.93.07-2.08.11-3.46.14s-2.39.07-3,.12v-6.76h43.18l.53,17.05H323.9q0-4.83-1.63-7.29a8,8,0,0,0-4.07-3.3,12.84,12.84,0,0,0-4.75-.74l-3.12.09a8.67,8.67,0,0,0-3.09.49,3.52,3.52,0,0,0-2,2.1,13.94,13.94,0,0,0-.68,5v13.18h10.09l-.34-7.63H321v21.35Zm55.62,0h-5.71q0-3.71-1.11-5.37a4.72,4.72,0,0,0-3.07-2.05,17.67,17.67,0,0,0-4.27-.31l-2.25.07v14.44c0,1.57,0,3.06-.09,4.46s-.15,2.5-.25,3.26h11.57a11.19,11.19,0,0,0,5-1.18,9.34,9.34,0,0,0,4-3.95A15.39,15.39,0,0,0,382,490h5.62l-.43,19.33H341.52v-5.8a12.59,12.59,0,0,0,3.32-.53,3.63,3.63,0,0,0,2.09-2,13.35,13.35,0,0,0,.72-5.12V462.18c0-1.58.05-3.11.14-4.58s.15-2.57.21-3.33c-.93.07-2.08.11-3.46.14s-2.39.07-3,.12v-6.76H384.7l.53,17.05h-5.71q0-4.83-1.63-7.29a8,8,0,0,0-4.07-3.3,12.84,12.84,0,0,0-4.75-.74l-3.09.09a8.73,8.73,0,0,0-3.12.49,3.52,3.52,0,0,0-2,2.1,13.94,13.94,0,0,0-.68,5v13.18h10.11l-.36-7.63h6.66v21.35Zm73.85,22.06H443.1l-27.64-35.94-2.34-3.17c-.81-1.11-1.61-2.25-2.41-3.42h-.09l.18,27.25c0,1.57,0,3.09-.09,4.55s-.15,2.58-.25,3.36a32.32,32.32,0,0,1,3.48-.24c1.42,0,2.42,0,3,0v6.77H397.23v-5.8a12.59,12.59,0,0,0,3.32-.53,3.63,3.63,0,0,0,2.09-2,13.31,13.31,0,0,0,.73-5.12l-.19-33.65c0-1.58,0-3.11.1-4.58a31.22,31.22,0,0,1,.27-3.33c-.93.07-2.09.11-3.5.14s-2.43.07-3.07.12v-6.76h13.55L437,481.7q2.16,2.81,3.59,4.84t2.46,3.51h.09V462.18c0-1.58,0-3.11.09-4.58s.11-2.57.16-3.33c-.91.07-2.06.11-3.46.14s-2.38.07-3,.12v-6.76h19.71v5.81a12.78,12.78,0,0,0-3.3.51,3.54,3.54,0,0,0-2.11,2,12.84,12.84,0,0,0-.73,5.13v49Zm50.28-22.06H495q0-3.71-1.13-5.37a4.68,4.68,0,0,0-3.07-2.05,17.6,17.6,0,0,0-4.28-.31l-2.22.07v14.44c0,1.57,0,3.06-.09,4.46a30,30,0,0,1-.28,3.26h11.6a11.23,11.23,0,0,0,5-1.18,9.49,9.49,0,0,0,4-3.95,15.51,15.51,0,0,0,1.55-7.52h5.61l-.43,19.33H465.65v-5.8A12.73,12.73,0,0,0,469,503a3.51,3.51,0,0,0,2.07-2,12.86,12.86,0,0,0,.75-5.12V462.18c0-1.58,0-3.11.12-4.58s.16-2.57.22-3.33c-.92.07-2.07.11-3.45.14s-2.39.07-3,.12v-6.76h43.18l.53,17.05h-5.71c0-3.22-.54-5.65-1.64-7.29a8,8,0,0,0-4.06-3.3,12.86,12.86,0,0,0-4.76-.74l-3.11.09a8.71,8.71,0,0,0-3.11.49,3.42,3.42,0,0,0-2,2.1,13.72,13.72,0,0,0-.68,5v13.18H494.4l-.34-7.63h6.66v21.35Zm46.21,21.18H521.27v-5.8a12.73,12.73,0,0,0,3.31-.53,3.51,3.51,0,0,0,2.07-2,12.86,12.86,0,0,0,.75-5.12V462.18c0-1.58,0-3.11.12-4.58s.16-2.57.22-3.33c-.92.07-2.07.11-3.45.14s-2.39.07-3,.12v-6.76q6.13-.09,12.27-.09t12.25-.09A40.63,40.63,0,0,1,559,449.35a16.86,16.86,0,0,1,8.64,6q3,4.11,2.84,11.15a16.33,16.33,0,0,1-1.77,7,17.06,17.06,0,0,1-5,5.89,25.81,25.81,0,0,1-8.44,4,10.63,10.63,0,0,1,3.25,2.27,19.52,19.52,0,0,1,2.71,3.35l4.07,6.15a48.5,48.5,0,0,0,3.36,4.74,11.12,11.12,0,0,0,2.93,2.59,7.5,7.5,0,0,0,3.39.93v5.8H560.75a13.94,13.94,0,0,1-3.07-3.3q-1.53-2.16-3.25-4.95L548,490.49c-.74-1.17-1.39-2.17-1.95-3a15.75,15.75,0,0,0-1.68-2.1h-4.48v9.41q0,2.46-.09,4.65c-.06,1.47-.15,2.58-.25,3.36.62-.07,1.42-.11,2.41-.14l2.88-.1c1,0,1.64,0,2,0Zm-2.87-30.22a17.63,17.63,0,0,0,7.78-1.46,8.93,8.93,0,0,0,4.27-4.39,17.86,17.86,0,0,0,1.34-7.43,14.21,14.21,0,0,0-1.29-6.64,9.07,9.07,0,0,0-3.23-3.6,10.61,10.61,0,0,0-3.93-1.48,21.18,21.18,0,0,0-3.3-.33,9.71,9.71,0,0,0-3.09.44,3.45,3.45,0,0,0-2,1.94,11.42,11.42,0,0,0-.68,4.56v18c.63.06,1.29.14,2,.23a16.64,16.64,0,0,0,2.15.14Z"/></svg>