<svg id="Layer_1" data-name="Layer 1" xmlns="http://www.w3.org/2000/svg" viewBox="0 0 771 231.23"><defs><style>.cls-1{fill:#b18e68;}</style></defs><path class="cls-1" d="M-16.51,206.46c-8.29,8.14-20.69,7.62-31,10a48.42,48.42,0,0,0-16,6.74c-2.8,1.85-6.39,4.25-8.92,7.23a56.37,56.37,0,0,1,4-7.35c1.54-2.47-1.39-5-3.53-3.8A114.64,114.64,0,0,0-92,233.11c-.75.65-1.56,1.33-2.35,2L-97.27,229c-3.62-7.65-12.4-10.73-19.51-6.84l-85.29,46.65c-7.12,3.89-10,13.33-6.36,21l58.53,123.65c3.62,7.66,12.4,10.74,19.51,6.85l85.32-46.66c7.12-3.89,10-13.32,6.36-21l-28.89-61c.54-.49,1.06-1,1.57-1.49,7.12-6.81,11-17.42,20.54-20.82,2.44-.87,2.59-4.7,0-5.48a30,30,0,0,0-7.78-1.26,31.3,31.3,0,0,0-6.34.42l-.66.1,2.38-1.56c1.9-1.27,3.8-2.56,5.64-4a194,194,0,0,0,17.13-14.23,92.8,92.8,0,0,0,20.87-27.91c.15-.33.3-.65.45-.94.76-1.66,1.45-3.38,2.08-5.09,1.15-3-2.86-4.9-4.79-3ZM-162.8,357.94a1.44,1.44,0,0,1-1.6.06,1.39,1.39,0,0,1-.73-1.46,1.14,1.14,0,0,1,0-.45l.09-.23v0l0-.07v0a2.5,2.5,0,0,1,.43-.71,1.21,1.21,0,0,1,1.32-.39.37.37,0,0,1-.09.71c-.12,0-.18.1-.24.2h.06c.06,0,.57.13.12,0a1.78,1.78,0,0,1,.48.13.46.46,0,0,0,0-.2c-.09-.29.31-.42.46-.19a1.4,1.4,0,0,1,.15.68,1,1,0,0,1,0,.29A1.42,1.42,0,0,1-162.8,357.94Zm-5.95-63.16a4.37,4.37,0,0,0-4.13,4.12c-.3,12-1.47,20.91-2.86,20.91s-2.6-8.95-2.87-20.91a4.42,4.42,0,0,0-4.13-4.12c-4.94-.45-8.32-1.36-8.32-2.4s3.41-1.95,8.35-2.4a4.36,4.36,0,0,0,4.13-4.08c.36-11.16,1.48-19.33,2.84-19.33s2.47,8.17,2.83,19.33a4.42,4.42,0,0,0,4.13,4.08c4.95.45,8.36,1.36,8.36,2.4s-3.38,2-8.33,2.4Zm26.93-39.68a2.89,2.89,0,0,1,2.06-.91,3.07,3.07,0,0,1,2.89,3.11,3.26,3.26,0,0,1-.84,2.2,2.88,2.88,0,0,1-2,.91,3.07,3.07,0,0,1-2.9-3.11A3.26,3.26,0,0,1-141.82,255.1Zm34.66,129.49c-1.42,2.53-5.28,2.82-6.64,0a5.29,5.29,0,0,1-.42-3.6,3.86,3.86,0,0,1,4.28-3,4.17,4.17,0,0,1,3.38,4.12,4.43,4.43,0,0,1-.6,2.47Zm34.83-20a2.3,2.3,0,0,0-2.17,2.14c-.15,6.26-.76,10.93-1.51,10.93s-1.36-4.67-1.51-10.93a2.3,2.3,0,0,0-2.17-2.14c-2.59-.23-4.34-.71-4.34-1.26s1.78-1,4.37-1.27a2.3,2.3,0,0,0,2.17-2.14c.18-5.83.78-10.11,1.48-10.11s1.29,4.28,1.48,10.11A2.3,2.3,0,0,0-72.36,362c2.59.23,4.37.71,4.37,1.27S-69.74,364.32-72.33,364.55Zm4.82-45.07a4.78,4.78,0,0,1,.52.75c.18.26.39.42.57.68.66,1,.06,2.43-.57,3.4A2.16,2.16,0,0,1-68.41,326c-2.38.58-5.79-1.39-5.1-4.44a5.44,5.44,0,0,1,1.42-2.92c.72-.65,1.9-1.13,2.74-.45a.8.8,0,0,1,.27.45.13.13,0,0,1,.19-.06,2.65,2.65,0,0,1,1.38.9Zm27.69-79.79c-5.25,4.9-10.86,9.31-16.44,13.72-2.68,2.14-5.31,4.38-7.81,6.74-1,.94-2.05,1.88-3.05,2.86l-.63.58a7.1,7.1,0,0,0-.63.71A43.65,43.65,0,0,0-71,268a34.49,34.49,0,0,0-5.36,5.18,2,2,0,0,0-.24.39s0,.07,0,.07a1.74,1.74,0,0,0,.36-.13A22.81,22.81,0,0,0-71.7,271l.72-.39a.14.14,0,0,0,.16,0c2.2-.94,4.16-.09,6.36-.35,1.84-.23,3.62-1,5.43-1.33a24.88,24.88,0,0,1,2.83-.36c.66,0,1.33-.06,2-.06a26.89,26.89,0,0,0-3.89,4.15l-.09.09c-3,4.06-5.43,8.63-8.56,12.61-.79,1-1.6,2-2.45,2.92a55.53,55.53,0,0,1-8.2,7.65c-3.38,2.6-7.21,4.38-10.28,7.3-.21.06-.27.16-.58.55-3.07,1.72-6.3,3.5-9.59,5.58L-76,304.67C-83.07,326-99.35,335-117.27,344.87c3.59.78,5.55,1.23,11.67,2.59-15.68,5.39-24,15.73-29.91,27.56-1.36,3.21-2.66,6.45-3.83,9.79-2,5.55-3,11.48-5.13,16.93-.63,1.62-2.65,1-2.44-.72.72-5.67,2.71-11.34,4.25-16.89A265.06,265.06,0,0,1-107,293.74q1.31-2.52,2.65-5.06c3-5.57,6.06-11.12,9.23-16.56,1.6-2.73,3.2-5.45,4.88-8.11.46-.74.91-1.46,1.39-2.2-.12-.1-.24-.17-.36-.26-10.07,14.52-21.2,28.37-29.95,43.77-8.83,15.62-15.29,32.77-23,49.63-6.63-17.18-.63-47.69,14.33-73.07.66,2.88,1.23,5.31,2.56,11.05a5.2,5.2,0,0,0,.06-.68V290.5a.47.47,0,0,0,.6-.36c3-12.29,7.73-24,15.17-33.91A83,83,0,0,1-96.61,243c1.42-1.23,2.9-2.4,4.31-3.6q1.81-1.5,3.53-3A23.81,23.81,0,0,0-87,234.6Q-82,231.06-76.71,228c-1.38,3.63-2.08,7.26.22,7.88a1.49,1.49,0,0,0,1.38-.29.32.32,0,0,0,.33.09c2.6-1.07,4.59-3.21,6.85-4.89a44.3,44.3,0,0,1,8-4.86,60.43,60.43,0,0,1,17.1-4.64c7.3-1,14.84-1.72,21.56-4.64-4.79,8.82-11.4,16.41-18.54,23.05Z" transform="translate(210 -190.77)"/><path class="cls-1" d="M-69.08,318.84a1.19,1.19,0,0,1-.12.26,5.25,5.25,0,0,0-1.08,1.39,2.16,2.16,0,0,0-.18.58.15.15,0,0,0,.06.1c.24.32-.33-.42.15.23.21.29.06.16.3.29a.09.09,0,0,0,.06,0,.09.09,0,0,1,.06,0,.51.51,0,0,0,.24,0,4.22,4.22,0,0,1,.94,0,1.6,1.6,0,0,1,.57.19.36.36,0,0,0,.09-.13,6,6,0,0,0,.3-1c0-.13.12-.16.15-.29a1.6,1.6,0,0,0-.27-.81,1.94,1.94,0,0,0-1.11-.85c-.13,0-.16-.06-.16-.09Z" transform="translate(210 -190.77)"/><path class="cls-1" d="M-22.39,389.48a13.73,13.73,0,0,0-6.31.07c-5,1-10,1.78-14.92,3.27-5.49,1.66-10.8,3.6-16.17,5.68-5.18,2-10.34,3.4-15.62,5.05-.36.1-.6-.48-.27-.65,2.62-1.29,5-2.95,7.69-4.18a15.11,15.11,0,0,0-2.05.72c-.24,0-.45.09-.69.13,4.94-2,9.8-4.06,14.71-6.2,3.44-1.49,6.88-3,10.32-4.44a9.08,9.08,0,0,1,1-.36c1.45-.74,2.9-1.55,4.28-2.39,2.08-1.27,4-2.44,6-3.41,3.35-2.63,5.92-6.35,5.61-11a4.53,4.53,0,0,0-.93-2.4c-1.27,2.17-3.74,3.82-6.18,5.25a7,7,0,0,1-1,1.52A23.71,23.71,0,0,1-40.82,379c-.72.45-1.48.9-2.23,1.36-1.9.65-3.83,1.81-5.28,2.4-1.08.45-2.17.94-3.28,1.42a1.58,1.58,0,0,0-.16.1q-12.07,7.44-24.36,14.4-12.63,7.14-25.33,14c-4,2.14-7.91,4.25-11.89,6.32a24.19,24.19,0,0,1-2.29,1s0,0-.06,0a18.81,18.81,0,0,1-4.52,1.26c-.06,0-.12,0-.18,0s0,.06,0,.06c1.2-.1,2.41-.19,3.62-.36a5.48,5.48,0,0,1-.64.55c-.09.07,0,.23.09.2.91-.36,1.81-.68,2.69-1a31,31,0,0,0,5-1.23c3.8-1.3,7.36-3.24,11-4.86,7.45-3.31,15.2-5,23-7a122.75,122.75,0,0,1,48.34-2.5c4,.62,7.81.16,9.56-4.35,1.33-3.37.45-6.67-1.08-9.66a16.42,16.42,0,0,0-3.65-1.62Z" transform="translate(210 -190.77)"/><path class="cls-1" d="M-35.57,314.17c.72,0,1.36-4.67,1.51-10.93a2.3,2.3,0,0,1,2.17-2.14c2.59-.23,4.34-.71,4.34-1.26s-1.78-1-4.37-1.27a2.29,2.29,0,0,1-2.17-2.14c-.18-5.83-.79-10.11-1.48-10.11s-1.3,4.28-1.48,10.11a2.29,2.29,0,0,1-2.17,2.14c-2.59.23-4.37.72-4.37,1.27s1.78,1,4.34,1.26a2.3,2.3,0,0,1,2.17,2.14C-36.93,309.5-36.32,314.17-35.57,314.17Z" transform="translate(210 -190.77)"/><path class="cls-1" d="M-145.61,205.56a2.29,2.29,0,0,1,2.17,2.13c.15,6.26.75,10.93,1.5,10.93s1.36-4.67,1.51-10.93a2.29,2.29,0,0,1,2.17-2.13c2.6-.23,4.35-.72,4.35-1.27s-1.78-1-4.38-1.26a2.3,2.3,0,0,1-2.17-2.14c-.18-5.84-.78-10.12-1.48-10.12s-1.29,4.28-1.47,10.12a2.3,2.3,0,0,1-2.17,2.14c-2.6.22-4.38.71-4.38,1.26S-148.21,205.33-145.61,205.56Z" transform="translate(210 -190.77)"/><path class="cls-1" d="M-184.82,242a3.7,3.7,0,0,0,5,1.07,5.09,5.09,0,0,0,1-.81,5.07,5.07,0,0,0,1.09-2,4.35,4.35,0,0,0-1-4.08,3.6,3.6,0,0,0-3.8-1.07,3.91,3.91,0,0,0-1.78,1.13,5.2,5.2,0,0,0-.48.65c-.06.1-.15.19-.21.29s0,.07-.06.1l.06-.07A4.43,4.43,0,0,0-184.82,242Z" transform="translate(210 -190.77)"/><path class="cls-1" d="M-87.83,204.58a1.72,1.72,0,0,0,1.62-1.75,1.72,1.72,0,0,0-1.62-1.75,1.72,1.72,0,0,0-1.63,1.75A1.75,1.75,0,0,0-87.83,204.58Z" transform="translate(210 -190.77)"/><path class="cls-1" d="M-14.25,344a2.53,2.53,0,0,0-2.41,2.59,2.55,2.55,0,0,0,2.41,2.59,2.53,2.53,0,0,0,2.41-2.59A2.53,2.53,0,0,0-14.25,344Z" transform="translate(210 -190.77)"/><path d="M95.22,378a18.21,18.21,0,0,1-6.53-1.19,12.47,12.47,0,0,1-4.83-3.08L85.13,371a12.78,12.78,0,0,0,4.35,2.84A14.53,14.53,0,0,0,95.22,375a11.94,11.94,0,0,0,4.68-.79,5.6,5.6,0,0,0,2.68-2.08,5.23,5.23,0,0,0,.85-2.9,4.5,4.5,0,0,0-1-3.11,7.07,7.07,0,0,0-2.68-1.86,28.62,28.62,0,0,0-3.66-1.18c-1.35-.35-2.69-.72-4-1.12a16.38,16.38,0,0,1-3.68-1.57,7.33,7.33,0,0,1-3.74-6.86,8.31,8.31,0,0,1,4.91-7.76,14,14,0,0,1,6.36-1.26,17.35,17.35,0,0,1,5.12.79,14.69,14.69,0,0,1,4.37,2.12l-1.1,2.77a14,14,0,0,0-4.17-2.05,14.81,14.81,0,0,0-4.26-.65,11.37,11.37,0,0,0-4.53.78,5.85,5.85,0,0,0-2.65,2.15,5.57,5.57,0,0,0-.85,3,4.61,4.61,0,0,0,1,3.11,7,7,0,0,0,2.7,1.83,33.22,33.22,0,0,0,3.71,1.16q2,.52,4,1.14a18.27,18.27,0,0,1,3.66,1.57,7.12,7.12,0,0,1,3.75,6.73,8.53,8.53,0,0,1-1.23,4.45,8.82,8.82,0,0,1-3.75,3.29A14.52,14.52,0,0,1,95.22,378Zm23.27-.05a6.43,6.43,0,0,1-5-1.88,7.51,7.51,0,0,1-1.74-5.3V347.58h3.09v23a5,5,0,0,0,1,3.34,3.75,3.75,0,0,0,3,1.16,4.84,4.84,0,0,0,3.41-1.25l1.08,2.39a5.37,5.37,0,0,1-2.2,1.3A8.49,8.49,0,0,1,118.49,377.9Zm3.37-22.11h-14.2V353h14.2Zm8.47,21.89h-3.1V353h3v6.73l-.32-1.18a8,8,0,0,1,3.25-4.3,10.1,10.1,0,0,1,5.61-1.47V356l-.33,0a2.11,2.11,0,0,0-.35,0,7.09,7.09,0,0,0-5.68,2.37,10,10,0,0,0-2.06,6.73Zm30,0h-3v-5.46l-.12-.89v-9.1a6.58,6.58,0,0,0-1.65-4.83,6.42,6.42,0,0,0-4.86-1.7,11.3,11.3,0,0,0-4.25.8,10.55,10.55,0,0,0-3.41,2.1l-1.39-2.48a12.14,12.14,0,0,1,4.2-2.46,15.19,15.19,0,0,1,5.16-.87c3,0,5.25.79,6.86,2.37s2.44,4,2.44,7.2Zm-10.88.22A10.24,10.24,0,0,1,145,377a6.89,6.89,0,0,1-2.91-2.53,7,7,0,0,1-1-3.74,7.12,7.12,0,0,1,.86-3.48,6.09,6.09,0,0,1,2.78-2.55,11.85,11.85,0,0,1,5.23-1h7.9v2.49H150c-2.21,0-3.74.42-4.6,1.27a4.25,4.25,0,0,0-1.29,3.15,4.19,4.19,0,0,0,1.52,3.38,6.55,6.55,0,0,0,4.29,1.28,7.83,7.83,0,0,0,4.51-1.3,7.39,7.39,0,0,0,2.79-3.74l.68,2.31a7.72,7.72,0,0,1-3,3.89A9.56,9.56,0,0,1,149.47,377.9Zm20.65-.22H167V353h3.1Zm-1.52-30.1a2.08,2.08,0,0,1-1.62-.72,2.46,2.46,0,0,1,0-3.35,2.31,2.31,0,0,1,3.23,0,2.21,2.21,0,0,1,.66,1.65,2.41,2.41,0,0,1-.64,1.72A2.06,2.06,0,0,1,168.6,347.58ZM186.81,387a18.36,18.36,0,0,1-6-1,11.6,11.6,0,0,1-4.68-2.82l1.56-2.54a11.65,11.65,0,0,0,4,2.46,13.85,13.85,0,0,0,5,.91c2.91,0,5.06-.72,6.43-2.17s2.06-3.72,2.06-6.8v-6.15l.44-4.22-.32-4.23V353h3v21.65q0,6.39-2.91,9.37T186.81,387Zm-.57-10.29a11.53,11.53,0,0,1-5.88-1.52,11.19,11.19,0,0,1-4.14-4.25,12.8,12.8,0,0,1-1.5-6.26,12.64,12.64,0,0,1,1.5-6.22,10.85,10.85,0,0,1,4.14-4.2,11.61,11.61,0,0,1,5.88-1.5,11.18,11.18,0,0,1,5.52,1.36,10,10,0,0,1,3.89,4,15.62,15.62,0,0,1,0,13.06,10.24,10.24,0,0,1-3.89,4.09A10.9,10.9,0,0,1,186.24,376.74Zm.32-2.95a8.56,8.56,0,0,0,4.49-1.17,8.07,8.07,0,0,0,3.1-3.19,10.3,10.3,0,0,0,0-9.42,8.28,8.28,0,0,0-3.1-3.17,9.39,9.39,0,0,0-9,0A8.26,8.26,0,0,0,179,360a10.63,10.63,0,0,0,0,9.42,8,8,0,0,0,3.12,3.19A8.63,8.63,0,0,0,186.56,373.79Zm30.34-21a10.23,10.23,0,0,1,4.93,1.14,8,8,0,0,1,3.31,3.51,12.78,12.78,0,0,1,1.21,5.9v14.34h-3.1v-14q0-3.89-1.81-5.9a6.57,6.57,0,0,0-5.1-2,8.36,8.36,0,0,0-4.26,1,7,7,0,0,0-2.79,3.06,10.86,10.86,0,0,0-1,4.81v13h-3.12V342.84h3.12v17l-.62-1.28a8.79,8.79,0,0,1,3.49-4.2A10.55,10.55,0,0,1,216.9,352.79Zm23.34,25.11a6.46,6.46,0,0,1-5-1.88,7.51,7.51,0,0,1-1.75-5.3V347.58h3.1v23a4.91,4.91,0,0,0,1,3.34,3.72,3.72,0,0,0,2.94,1.16,4.84,4.84,0,0,0,3.41-1.25l1.1,2.39a5.37,5.37,0,0,1-2.2,1.3A8.49,8.49,0,0,1,240.24,377.9Zm3.35-22.11H229.41V353h14.18Zm15.13,10.62H247.27V363.5h11.45Zm8.73-2.69v-3h16.16v3Zm.36-15.92v29.88h-3.25V344.81h21v3Zm31.36,30.1a11.23,11.23,0,0,1-6-1.61,11.77,11.77,0,0,1-4.18-4.47,14.7,14.7,0,0,1,0-13,11.73,11.73,0,0,1,4.16-4.42,11.34,11.34,0,0,1,6-1.59,11.17,11.17,0,0,1,10.2,6,15,15,0,0,1,0,13,11.61,11.61,0,0,1-4.18,4.47A11.35,11.35,0,0,1,299.17,377.9Zm0-2.95a8.11,8.11,0,0,0,4.41-1.21,8.31,8.31,0,0,0,3-3.37,12.16,12.16,0,0,0,0-10.11,8.34,8.34,0,0,0-3-3.36,8.54,8.54,0,0,0-8.73,0,8.32,8.32,0,0,0-3.06,3.36,11.78,11.78,0,0,0,0,10.11,8.28,8.28,0,0,0,3.06,3.37A7.88,7.88,0,0,0,299.17,375Zm19.39,2.73h-3.1V353h3v6.73l-.32-1.18a8.06,8.06,0,0,1,3.23-4.3,10.2,10.2,0,0,1,5.64-1.47V356l-.36,0a1.83,1.83,0,0,0-.33,0,7.09,7.09,0,0,0-5.68,2.37,10,10,0,0,0-2.06,6.73Zm20.26,0h-2.91L327.26,353h3l7.86,22.88h-1.35L344.81,353h2.66l8,22.88h-1.35l8-22.88H365l-8.7,24.67h-2.91l-7.7-21.51h.92l-7.74,21.51Zm46.41,0h-3v-5.46l-.12-.89v-9.1a6.62,6.62,0,0,0-1.64-4.83,6.46,6.46,0,0,0-4.87-1.7,11.14,11.14,0,0,0-4.24.8,10.28,10.28,0,0,0-3.42,2.1l-1.39-2.48a12.33,12.33,0,0,1,4.18-2.46,15.36,15.36,0,0,1,5.16-.87,9.48,9.48,0,0,1,6.89,2.37q2.43,2.37,2.43,7.2v15.32Zm-10.88.22a10.28,10.28,0,0,1-4.49-.91,6.69,6.69,0,0,1-3.91-6.27,7.12,7.12,0,0,1,.85-3.48,6.07,6.07,0,0,1,2.81-2.55,11.71,11.71,0,0,1,5.22-1h7.9v2.49h-7.82c-2.22,0-3.76.42-4.62,1.27a4.25,4.25,0,0,0-1.29,3.15,4.18,4.18,0,0,0,1.54,3.38,6.5,6.5,0,0,0,4.29,1.28,7.8,7.8,0,0,0,4.51-1.3,7.56,7.56,0,0,0,2.79-3.74l.69,2.31a7.79,7.79,0,0,1-3,3.89A9.51,9.51,0,0,1,374.35,377.9Zm20.66-.22h-3.1V353h3v6.73l-.31-1.18a8,8,0,0,1,3.22-4.3,10.25,10.25,0,0,1,5.64-1.47V356l-.35,0a1.94,1.94,0,0,0-.34,0,7.1,7.1,0,0,0-5.68,2.37q-2.06,2.37-2.05,6.73Zm21.8.22a10.88,10.88,0,0,1-10-6,15.23,15.23,0,0,1,0-13.1,10.85,10.85,0,0,1,10-6,10.06,10.06,0,0,1,5.38,1.45,10.2,10.2,0,0,1,3.81,4.25,17.31,17.31,0,0,1,0,13.64,10.23,10.23,0,0,1-3.79,4.3,10.08,10.08,0,0,1-5.42,1.47ZM417,375a8.17,8.17,0,0,0,7.45-4.58,12,12,0,0,0,0-10.11,8,8,0,0,0-3.06-3.36,8.15,8.15,0,0,0-4.39-1.2,8,8,0,0,0-4.32,1.2,8.46,8.46,0,0,0-3.06,3.36,12,12,0,0,0,0,10.11,8.42,8.42,0,0,0,3.06,3.37A8,8,0,0,0,417,375Zm11.63,2.73h-3v-7.43l.31-5-.44-5V342.84h3.1Z" transform="translate(210 -190.77)"/><path d="M35.27,302.38v-9.1H62.79v9.1Zm.79-24.55v40.94H67.28V328H25.78V268.55h40.4v9.28ZM90.6,328H80.32V268.55H90.6Zm42.37.85a30.91,30.91,0,0,1-11.9-2.23,28.44,28.44,0,0,1-9.44-6.38,29.07,29.07,0,0,1-6.24-9.72,34.73,34.73,0,0,1,0-24.49,28.37,28.37,0,0,1,6.28-9.73A28.69,28.69,0,0,1,121.2,270a33.15,33.15,0,0,1,24.61.22,24.92,24.92,0,0,1,9.52,7.22l-6.47,6.8a21.38,21.38,0,0,0-7-5.14,20.23,20.23,0,0,0-8.27-1.66,21,21,0,0,0-8,1.52,18.29,18.29,0,0,0-6.41,4.34,19.64,19.64,0,0,0-4.16,6.62,24.75,24.75,0,0,0,0,16.75,20.16,20.16,0,0,0,4.16,6.67,18.69,18.69,0,0,0,6.32,4.38,20.83,20.83,0,0,0,8.07,1.52,22.73,22.73,0,0,0,7.93-1.41,21,21,0,0,0,7.32-4.7l5.85,8.23A29.92,29.92,0,0,1,144.56,327,36.59,36.59,0,0,1,133,328.88Zm21.66-7.56-9.72-1.43V297.62h9.72Zm54,6.71V268.55H218.9V328ZM180,268.55V328H169.73V268.55Zm29.42,24.57v9.42H179.13v-9.42ZM256.84,328H246.57V277.9H228.22v-9.35h47v9.35H256.84ZM294,302.38v-9.1h27.5v9.1Zm.79-24.55v40.94H326V328h-41.5V268.55h40.37v9.28Zm53.76,24.55v-9.1H376v9.1Zm.79-24.55v40.94h31.22V328h-41.5V268.55h40.38v9.28ZM403.78,328H393.59V268.55H402l34.69,45.82h-4.18V268.55h10.19V328H434.3l-34.72-45.8h4.2Zm64.9-25.65v-9.1h27.5v9.1Zm.79-24.55v40.94H500.7V328H459.2V268.55h40.37v9.28ZM524,328H513.74V268.55H536.5a28.66,28.66,0,0,1,12.6,2.55,18.66,18.66,0,0,1,8.11,7.31A21.72,21.72,0,0,1,560,289.73,21.4,21.4,0,0,1,557.21,301a18.49,18.49,0,0,1-8.11,7.23,29.1,29.1,0,0,1-12.6,2.5H519.42l4.6-5V328Zm37,0H549.93l-14-21.58h11Zm-37-55.57v34.42l-4.6-5.26H536q6.79,0,10.23-3.15t3.45-8.74q0-5.72-3.45-8.77T536,277.9h-16.6Z" transform="translate(210 -190.77)"/></svg>